<svg xmlns="http://www.w3.org/2000/svg" viewBox="76 0 30.14 42.82">
  <defs>
    <style>
      .cls-1, .cls-3 {
        fill: #fff;
      }

      .cls-1 {
        font-size: 12px;
        font-family: Inter-ExtraLight, Inter;
        font-weight: 200;
      }

      .cls-1, .cls-2 {
        opacity: 1;
      }
    </style>
  </defs>
  <g id="Grupo_1704" data-name="Grupo 1704" transform="translate(0.048)">
    <g id="Grupo_1634" data-name="Grupo 1634" class="cls-2" transform="translate(75.952 0)">
      <g id="Grupo_1631" data-name="Grupo 1631">
        <g id="Grupo_1630" data-name="Grupo 1630">
          <path id="Trazado_3112" data-name="Trazado 3112" class="cls-3" d="M109.284,12.367a.641.641,0,0,0,.648-.634v-11A.746.746,0,0,0,109.178,0H83.206a3.365,3.365,0,0,0-3.4,3.324V39.491a3.366,3.366,0,0,0,3.4,3.324h26.078a.634.634,0,1,0,0-1.267h-1.06V37.434h1.06a.641.641,0,0,0,.648-.634V15.236a.648.648,0,0,0-1.3,0v20.93H83.206a3.429,3.429,0,0,0-2.1.716V3.324a2.083,2.083,0,0,1,2.1-2.057H97.978V7.612a.641.641,0,0,0,.648.634h4.687a.641.641,0,0,0,.648-.634V1.267h4.675V11.733A.641.641,0,0,0,109.284,12.367ZM83.206,37.434h23.722v1.423h-5.171a.634.634,0,1,0,0,1.267h5.171v1.423H83.206a2.057,2.057,0,1,1,0-4.114ZM102.665,6.978H99.274V1.267h3.392Z" transform="translate(-79.808)"/>
        </g>
      </g>
      <g id="Grupo_1633" data-name="Grupo 1633" transform="translate(8.817 10.599)">
        <g id="Grupo_1632" data-name="Grupo 1632">
          <path id="Trazado_3113" data-name="Trazado 3113" class="cls-3" d="M193.377,129.963h-8.741a.709.709,0,0,0,0,1.408h8.615v5.838H181.744v-5.838h.777a.709.709,0,0,0,0-1.408h-.9a1.208,1.208,0,0,0-1.135,1.268v6.12a1.208,1.208,0,0,0,1.135,1.268h11.759a1.208,1.208,0,0,0,1.135-1.268v-6.12A1.208,1.208,0,0,0,193.377,129.963Z" transform="translate(-180.483 -129.963)"/>
        </g>
      </g>
    </g>
  </g>
</svg>