<svg xmlns="http://www.w3.org/2000/svg" width="48.836" height="48.836" viewBox="0 0 48.836 48.836"><defs><style>.a{fill:#fff;}</style></defs><g transform="translate(-1775 -6112)"><path class="a" d="M54.851,1a2.861,2.861,0,0,0-.837.126L44.523,4.047l-1.1-1.105a3.911,3.911,0,0,0-2.785-1.154H38.788a.787.787,0,0,0-.641,1.245l3.938,5.514a.787.787,0,0,0,.812.311L47.21,7.9l-.535,3.211a.788.788,0,0,0,1.129.835l2.079-1.04a3.937,3.937,0,0,0,1.9-2.06l.861-2.152,4.435-.985a.788.788,0,0,0,.618-.77v-1.1A2.845,2.845,0,0,0,54.851,1ZM50.316,8.26A2.355,2.355,0,0,1,49.179,9.5l-.7.348.385-2.313,1.909-.424Zm5.8-3.953-13.053,2.9L40.318,3.363h.314a2.349,2.349,0,0,1,1.671.692L43.744,5.5a.791.791,0,0,0,.788.2l9.944-3.059a1.289,1.289,0,0,1,1.641,1.21Z" transform="translate(1766.144 6111)"/><path class="a" d="M49.485,25.55l-1.713-1.142a31.411,31.411,0,0,0-17.478-5.292h-.3a31.377,31.377,0,0,0-14.815,3.72v-3.72h.788a5.514,5.514,0,0,0,0-11.027H13.6V5.726a.787.787,0,0,0-.788-.788h-.788V1H10.452V4.938H9.664a.787.787,0,0,0-.788.788V8.089H6.514a5.514,5.514,0,1,0,0,11.027H7.3V48.261H1v1.575H49.836V48.261H47.473V33.295h1.575a.787.787,0,0,0,.788-.788v-6.3A.789.789,0,0,0,49.485,25.55ZM30.294,20.692a29.84,29.84,0,0,1,16.6,5.027l1.363.908v1.942H12.027V26.627l1.362-.908a29.84,29.84,0,0,1,16.6-5.027ZM7.3,14.39h3.151v3.151H7.3Zm0-4.726h3.151v3.151H7.3Zm7.877,3.151H12.027V9.664h3.151ZM12.027,14.39h3.151v3.151H12.027Zm4.726,3.071V14.39h3.071A3.951,3.951,0,0,1,16.754,17.462Zm3.071-4.647H16.754V9.744A3.951,3.951,0,0,1,19.825,12.815Zm-9.373-6.3h1.575V8.089H10.452ZM5.726,9.744v3.071H2.655A3.951,3.951,0,0,1,5.726,9.744ZM2.655,14.39H5.726v3.071A3.951,3.951,0,0,1,2.655,14.39Zm6.222,4.726H13.6v4.623c-.363.221-.732.432-1.087.669L10.8,25.55a.789.789,0,0,0-.351.655v6.3a.787.787,0,0,0,.788.788h1.575V48.261H8.877Zm5.514,21.267h3.151v7.877H14.391Zm4.726,0h3.151v1.575H20.692a.787.787,0,0,0-.788.788v5.514h-.788Zm14.178,1.575V40.384h3.151v1.575Zm-1.575,0H28.569V40.384h3.151Zm-4.726,0H23.843V40.384h3.151ZM21.48,43.535H24.63v4.726H21.48Zm4.726,0h3.151v4.726H26.206Zm4.726,0h3.151v4.726H30.932Zm4.726,0h3.151v4.726H35.658ZM39.6,41.959H38.021V40.384h3.151v7.877h-.788V42.747A.787.787,0,0,0,39.6,41.959Zm-1.575-3.151V33.295h3.151v5.514Zm-1.575,0H33.295V33.295h3.151Zm-4.726,0H28.569V33.295h3.151Zm-4.726,0H23.843V33.295h3.151Zm-4.726,0H19.117V33.295h3.151Zm-4.726,0H14.39V33.295h3.151Zm25.206,9.452V40.384H45.9v7.877ZM45.9,38.808H42.747V33.295H45.9Zm2.363-7.089H12.027V30.144H48.261Z" transform="translate(1774 6111)"/><path class="a" d="M0,0H8.223V1.575H0Z" transform="translate(1803.132 6123.851) rotate(-16.677)"/><path class="a" d="M0,0H8.223V1.575H0Z" transform="translate(1797.618 6122.275) rotate(-16.677)"/></g></svg>