<svg xmlns="http://www.w3.org/2000/svg" viewBox="32 0 36.63 41.11">
  <defs>
    <style>
      .cls-1, .cls-3 {
        fill: #fff;
      }

      .cls-1 {
        font-size: 12px;
        font-family: Inter-ExtraLight, Inter;
        font-weight: 200;
      }

      .cls-1, .cls-2 {
        opacity: 1;
      }
    </style>
  </defs>
  <g id="Grupo_1706" data-name="Grupo 1706" transform="translate(0.826)">
    <g id="hand-security-shield-protection-protect" class="cls-2" transform="translate(31.174)">
      <path id="Trazado_3102" data-name="Trazado 3102" class="cls-3" d="M144.782,41.832a.562.562,0,0,0,.834,0l5.452-5.652a12.374,12.374,0,0,0,3.33-8.537V20.778a.691.691,0,0,0-.374-.63l-8.586-4.111a.534.534,0,0,0-.478,0l-8.586,4.111a.691.691,0,0,0-.374.63v6.865a12.374,12.374,0,0,0,3.33,8.537Zm-7.556-20.6,7.973-3.816,7.973,3.816v6.413a10.9,10.9,0,0,1-2.938,7.53L145.2,40.4l-5.035-5.228a10.9,10.9,0,0,1-2.938-7.53Z" transform="translate(-126.8 -15.98)"/>
      <path id="Trazado_3103" data-name="Trazado 3103" class="cls-3" d="M52.541,312.37,51.314,310a2.9,2.9,0,0,0-4.189-1.261l-9.046,5.837v-.493a3.261,3.261,0,0,0-3.067-3.426H23.973a.658.658,0,0,0-.2.034l-3.582,1.336H16.613a.652.652,0,0,0-.613.685v10.962a.652.652,0,0,0,.613.685H36.239a.56.56,0,0,0,.325-.1L52.332,313.3A.733.733,0,0,0,52.541,312.37ZM19.68,322.99H17.227V313.4H19.68Zm16.381,0H20.906v-9.784l3.165-1.178H35.012a1.963,1.963,0,0,1,1.84,2.055v2.055H27.039v1.37H37.466a.652.652,0,0,0,.613-.685v-.665l9.66-6.228a1.665,1.665,0,0,1,1.4-.206,1.841,1.841,0,0,1,1.11.959l.932,1.8Z" transform="translate(-16 -283.251)"/>
      <path id="Trazado_3104" data-name="Trazado 3104" class="cls-3" d="M213.231,136.309a.583.583,0,0,0,.434-.2l4.293-4.8-.867-.969-3.86,4.312-2.02-2.256-.867.969,2.453,2.741A.583.583,0,0,0,213.231,136.309Z" transform="translate(-195.445 -120.55)"/>
    </g>
  </g>
</svg>