<svg xmlns="http://www.w3.org/2000/svg" viewBox="8 0 57.79 51">
  <defs>
    <style>
      .cls-1, .cls-2 {
        fill: #fff;
        opacity: 1;
      }
    </style>
  </defs>
  <g id="Grupo_1703" data-name="Grupo 1703">
    <path id="Trazado_3110" data-name="Trazado 3110" class="cls-2" d="M37.269,29.1l1.413-1.413a2.175,2.175,0,0,0,.169-3.058,1.929,1.929,0,0,0-1.494-.549,2.357,2.357,0,0,0-1.22.429l-.23-.931,1.53-1.53a2.174,2.174,0,0,0,.169-3.057,2.137,2.137,0,0,0-2.837-.025l-1.4-5.671c.723-.7,1.415-1.378,2.069-2.031a26.77,26.77,0,0,0,4.38-5.545c1.59-2.861,1.071-4.314.356-5.029s-2.168-1.234-5.029.356A26.743,26.743,0,0,0,29.6,5.424c-.653.653-1.333,1.346-2.031,2.068L21.9,6.093a2.137,2.137,0,0,0-.025-2.837,2.174,2.174,0,0,0-3.057.169l-1.53,1.53-.932-.23a2.359,2.359,0,0,0,.429-1.22,1.928,1.928,0,0,0-.549-1.494,2.174,2.174,0,0,0-3.057.169L11.764,3.594,5.053,1.939a.745.745,0,0,0-.695.211L2.5,4a.686.686,0,0,0,.023,1.04l16.52,11.65c-4.124,4.592-8.106,9.181-10.919,12.458L3.171,27.484a.736.736,0,0,0-.744.2l-2.2,2.2a.693.693,0,0,0-.054.976l9.833,9.833a.7.7,0,0,0,.976-.054l2.2-2.2a.736.736,0,0,0,.2-.745l-1.667-4.956c3.277-2.813,7.866-6.8,12.458-10.92l1.264,1.793a.684.684,0,0,0,1.028.035.717.717,0,0,0,.131-.911l-1.337-1.9c2.4-2.17,4.776-4.356,6.935-6.411L37.484,35.89l-.946.946-8.26-11.713a.666.666,0,0,0-.956-.1.721.721,0,0,0-.2.973l8.7,12.336a.686.686,0,0,0,1.04.023L38.713,36.5a.745.745,0,0,0,.211-.695ZM19.737,4.348a.793.793,0,0,1,1.106-.061.786.786,0,0,1-.061,1.106l-.342.341L18.764,5.32ZM14.1,3.1A.786.786,0,0,1,15.2,3.042a.786.786,0,0,1-.061,1.106l-.225.224-1.676-.413ZM4.027,4.325l.946-.946L26.437,8.672c-2.056,2.159-4.242,4.533-6.412,6.935ZM3.014,28.937l4.112,1.383C6,31.634,5.141,32.65,4.633,33.25L1.667,30.285Zm2.544,5.239C8.125,31.141,21.683,15.185,30.523,6.345a25.483,25.483,0,0,1,5.188-4.11c1.158-.644,2.695-1.257,3.434-.518s.127,2.276-.517,3.434a25.494,25.494,0,0,1-4.111,5.188c-8.839,8.839-24.8,22.4-27.831,24.964Zm6.367,3.672L10.578,39.2,7.612,36.23c.6-.508,1.617-1.37,2.93-2.493ZM36.715,25.719a.743.743,0,1,1,1.045,1.045l-.856.856-.414-1.676ZM35.47,20.081a.743.743,0,1,1,1.045,1.045l-.973.973-.413-1.676Z" transform="translate(7.541 28.894) rotate(-45)"/>
  </g>
</svg>