<svg xmlns="http://www.w3.org/2000/svg" width="38" height="38" viewBox="0 0 38 38"><defs><style>.a{fill:none;}.b{fill:#35bbd7;}.c,.d{stroke:none;}.d{fill:#35bbd7;}</style></defs><g transform="translate(-30 -3340)"><g class="a" transform="translate(30 3340)"><path class="c" d="M19,0A19,19,0,1,1,0,19,19,19,0,0,1,19,0Z"/><path class="d" d="M 19 1 C 14.19202995300293 1 9.671829223632812 2.872329711914062 6.272079467773438 6.272079467773438 C 2.872329711914062 9.671829223632812 1 14.19202995300293 1 19 C 1 23.80797004699707 2.872329711914062 28.32817077636719 6.272079467773438 31.72792053222656 C 9.671829223632812 35.12767028808594 14.19202995300293 37 19 37 C 23.80797004699707 37 28.32817077636719 35.12767028808594 31.72792053222656 31.72792053222656 C 35.12767028808594 28.32817077636719 37 23.80797004699707 37 19 C 37 14.19202995300293 35.12767028808594 9.671829223632812 31.72792053222656 6.272079467773438 C 28.32817077636719 2.872329711914062 23.80797004699707 1 19 1 M 19 0 C 29.49341011047363 0 38 8.506589889526367 38 19 C 38 29.49341011047363 29.49341011047363 38 19 38 C 8.506589889526367 38 0 29.49341011047363 0 19 C 0 8.506589889526367 8.506589889526367 0 19 0 Z"/></g><g transform="translate(-1014.58 178.5)"><path class="b" d="M1059.243,3168.828h3.818c1.3,0,2.6.036,3.9-.026a.479.479,0,0,0,.171-.046.6.6,0,0,0,.016-1.082.546.546,0,0,0-.165-.048l-2.541-.026c-.455.008-.724-.086-.793-.631a.484.484,0,0,0-.1-.218.613.613,0,0,0-.856-.135.59.59,0,0,0-.171.189.373.373,0,0,0-.046.138c-.068.592-.351.7-.965.646h-1.967c-.491.034-1.212-.117-1.216.613C1058.325,3168.793,1058.8,3168.828,1059.243,3168.828Z" transform="translate(0.974 0)"/><path class="b" d="M1074.283,3174.881h-7.149l.006-.56c.008-.558,0-1.118,0-1.659v-1.391a1.479,1.479,0,0,0-.468-1.21,2.565,2.565,0,0,0-1.574-.394h-.032l-2.086-.014a2.665,2.665,0,0,0-1.615.429,1.483,1.483,0,0,0-.455,1.217c.016.781.009.4,0,1.169v2.412h-7.119a1.1,1.1,0,0,0-1.213.985v4.255c0,.593.568.788,1.084.966l2.727.843a3.687,3.687,0,0,0,1.1.164h3.616c.2.912.378,2.713.552,3.482.15.662.3,1.338.468,2l.1.385-.364.159c-.626.275-1.247.57-1.849.854-.429.2-.872.414-1.312.614a1.738,1.738,0,0,0-1.161,2.046,1.717,1.717,0,0,0,1.9,1.374h3.31l.117.313a1.174,1.174,0,0,0,.117.234,1.27,1.27,0,0,0,1.03.569h.033a1.266,1.266,0,0,0,1.021-.515,1.056,1.056,0,0,0,.148-.282l.109-.324h.341c.685.007,1.379,0,2.047,0h.954a1.689,1.689,0,0,0,1.86-1.31,1.756,1.756,0,0,0-1.106-2.084c-.389-.177-.782-.366-1.169-.548-.667-.319-1.346-.646-2.038-.936l-.384-.158.109-.4c.021-.08.05-.171.085-.274a32.243,32.243,0,0,0,.9-5.158c0-.015.008-.031.009-.046h3.807a2.654,2.654,0,0,0,.8-.121l2.868-.886.151-.056c.349-.129.933-.341.933-.91v-4.255A1.1,1.1,0,0,0,1074.283,3174.881Zm-12.072-.513v-3.337l.519.007,3.111.018v1.6c0,.651.007,1.325-.011,1.988,0,.029,0,.135.008.235h-3.627C1062.212,3174.7,1062.212,3174.474,1062.211,3174.367Zm5.481,15.863c.387.186.786.378,1.19.561l.344.158-.072.378a.493.493,0,0,1-.49.386h-.953c-.745,0-1.52.007-2.27,0a1.48,1.48,0,0,0-1.078.341l-.329.316-.326-.318a1.384,1.384,0,0,0-1.007-.338h-.03c-.565,0-2.1,0-2.939,0h-.34a.545.545,0,0,1-.526-.41.583.583,0,0,1,.3-.661l.034-.018c.235-.1.619-.253,1.071-.43a23.1,23.1,0,0,0,2.136-.9l.048-.025a1.438,1.438,0,0,0,.98-1.781.572.572,0,0,0-.021-.064c-.179-.712-.343-1.436-.5-2.135-.153-.677-.317-2.316-.491-3.195h3.205a30.038,30.038,0,0,1-.827,4.777,2.458,2.458,0,0,0-.164,1.4,1.554,1.554,0,0,0,1.022,1.032C1066.347,3189.585,1067,3189.9,1067.692,3190.231Zm6.569-10.024-2.977.928a1.8,1.8,0,0,1-.544.081h-13.255a2.833,2.833,0,0,1-.836-.124l-2.8-.87a2.029,2.029,0,0,0-.372-.1.042.042,0,0,0-.021,0l0-4.24a.412.412,0,0,1,.338-.123h20.492a.484.484,0,0,1,.336.107l.029,4.163A1.52,1.52,0,0,1,1074.261,3180.207Z" transform="translate(0 0.533)"/></g></g></svg>