<svg xmlns="http://www.w3.org/2000/svg" width="34.055" height="26.322" viewBox="0 0 34.055 26.322"><defs><style>.a{fill:#35bbd7;}</style></defs><g transform="translate(-1850.971 -7652.969) rotate(90)"><g transform="translate(7652.969 -1885.025)"><path class="a" d="M7663.445-1850.97h-1.335a1.246,1.246,0,0,1-1.225-.973,1.046,1.046,0,0,1-.022-.177c-.1-2.478-.193-5-.279-7.434l-.044-1.266a1.209,1.209,0,0,0-.035-.29.061.061,0,0,0-.042-.042,1.2,1.2,0,0,0-.288-.029c-.279,0-.558-.012-.837-.02-.449-.013-.913-.026-1.366-.024h0a1.166,1.166,0,0,1-.32-.042.064.064,0,0,0-.082.065c0,.084.005.169.006.254a.719.719,0,0,1-.025.188.6.6,0,0,1-.569.442.594.594,0,0,1-.582-.417.7.7,0,0,1-.032-.175,8.277,8.277,0,0,1,.017-1.284c.022-.2-.005-.215-.1-.254-.017-.007-.034-.015-.052-.024a.6.6,0,0,1-.311-.719.429.429,0,0,1,.259-.272c.152-.059.252-.1.191-.527a5.245,5.245,0,0,1-.012-1.049l.006-.107a.639.639,0,0,1,.057-.228.6.6,0,0,1,.567-.354.6.6,0,0,1,.542.385.587.587,0,0,1,.04.214c0,.171-.009.34-.019.506a.064.064,0,0,0,.086.064,1.211,1.211,0,0,1,.43-.061c.636.015,1.287.009,1.917,0h.12a.066.066,0,0,0,.062-.085c-.063-.206-.134-.41-.208-.625-.068-.2-.138-.4-.2-.605-.021-.068-.026-.085-.151-.091a22.683,22.683,0,0,1-4.164-.56,14.672,14.672,0,0,1-1.762-.586l-.17-.064a.9.9,0,0,1-.538-.764.879.879,0,0,1,.566-.763c.177-.056.354-.114.531-.172a18.161,18.161,0,0,1,2.162-.606c.9-.173,1.818-.269,2.707-.361l.613-.065c.173-.019.218-.057.267-.226.055-.19.119-.375.18-.555s.121-.35.169-.521a.065.065,0,0,0-.062-.083h-.117c-.626-.006-1.274-.013-1.906,0a1.257,1.257,0,0,1-.437-.058.064.064,0,0,0-.084.064c.005.12.009.242.008.365a.61.61,0,0,1-.014.129.6.6,0,0,1-.639.471.588.588,0,0,1-.547-.559v-.01a9.724,9.724,0,0,1,.012-1.275.519.519,0,0,0,0-.144.288.288,0,0,0-.05-.021.718.718,0,0,1-.289-.2l-.012-.012a.529.529,0,0,1-.111-.589.533.533,0,0,1,.318-.318c.136-.045.182-.06.138-.439a6.911,6.911,0,0,1-.008-1.143.708.708,0,0,1,.042-.2.6.6,0,0,1,.574-.391.6.6,0,0,1,.559.408.626.626,0,0,1,.032.2c0,.106,0,.212-.01.317a.065.065,0,0,0,.085.065,1.28,1.28,0,0,1,.409-.054c.69.013,1.4,0,2.077,0h.086c.281,0,.311-.033.319-.312q.034-1.118.065-2.236c.038-1.3.077-2.639.12-3.958.03-.887.079-1.785.127-2.654l0-.081a.9.9,0,0,1,1.02-.985l.3-.008c.367-.01.748-.02,1.119-.038.639-.031,1.037.1,1.179.884q.248,1.359.491,2.718c.2,1.093.4,2.224.6,3.334.146.793.3,1.6.451,2.38.139.725.283,1.475.42,2.214.228,1.232.419,2.327.585,3.348.034.212.074.217.193.231,1.2.144,2.6.313,3.962.489.525.067,1.493.2,2.09.313,0-.01,0-.021,0-.032.117-.885.248-1.782.375-2.649q.073-.5.146-1c.012-.087.025-.23.028-.307.034-1.119.5-1.229,1.386-1.341l.088-.011a3.888,3.888,0,0,1,1.373.154l.16.038a.96.96,0,0,1,.655.785c.062.814.112,1.641.161,2.441.034.552.068,1.123.106,1.683a1.6,1.6,0,0,1-.083.7.065.065,0,0,0,.056.088l1.228.091a.362.362,0,0,1,.335.361v.224a.363.363,0,0,1-.335.361l-1.19.089a.065.065,0,0,0-.056.09,1.181,1.181,0,0,1,.077.546c-.1,1.393-.195,2.8-.277,4.187a.909.909,0,0,1-.762.932l-.025.005a3.919,3.919,0,0,1-2.054.039,1.117,1.117,0,0,1-.826-.992c-.175-1.377-.353-2.651-.543-3.893-.013-.084-.031-.2-.05-.3a.064.064,0,0,0-.069-.051c-.085.009-.192.023-.291.036l-.028,0c-1.728.233-3.484.461-5.183.682l-.25.032a.486.486,0,0,0-.416.4c-.18.985-.365,1.985-.544,2.952q-.253,1.362-.5,2.725c-.111.612-.22,1.236-.326,1.839-.1.586-.208,1.192-.316,1.787-.253,1.392-.525,2.854-.856,4.6A1.041,1.041,0,0,1,7663.445-1850.97Zm-5.419-11.141c.447,0,.9.012,1.334.025.276.008.552.015.828.02.848.014,1.206.366,1.236,1.216l.045,1.266c.086,2.435.175,4.953.279,7.428,0,.009,0,.021,0,.033a.362.362,0,0,0,.357.268h1.335a.154.154,0,0,0,.151-.124c.33-1.744.6-3.2.854-4.594.108-.593.213-1.2.315-1.781.106-.6.214-1.23.327-1.846q.249-1.364.5-2.727c.179-.967.364-1.966.543-2.95a1.372,1.372,0,0,1,1.173-1.115l.249-.032c1.7-.221,3.454-.45,5.18-.682l.027,0c.455-.061.756-.1,1.016.089s.319.52.387.966c.192,1.25.372,2.531.547,3.916.021.166.058.21.215.26a3.2,3.2,0,0,0,1.61-.063l.025-.005a.253.253,0,0,0,.039-.011.457.457,0,0,0,.016-.106c.082-1.389.175-2.8.278-4.2a.186.186,0,0,0-.072-.186l-.425-.372a.634.634,0,0,1-.216-.488l0-.268a.634.634,0,0,1,.285-.518l.22-.145s.195-.088.17-.447c-.038-.564-.073-1.136-.106-1.69-.047-.785-.1-1.6-.157-2.393a.279.279,0,0,0-.026-.035l-.114-.027a3.2,3.2,0,0,0-1.056-.137l-.089.011a3.769,3.769,0,0,0-.535.089.063.063,0,0,0-.041.043,1.72,1.72,0,0,0-.036.357,4.054,4.054,0,0,1-.037.407c-.048.334-.1.668-.146,1-.127.864-.258,1.758-.374,2.636a.943.943,0,0,1-.34.675.864.864,0,0,1-.7.113c-.572-.112-1.526-.24-2.044-.306-1.363-.175-2.756-.344-3.955-.488a1.049,1.049,0,0,1-.962-.969c-.165-1.015-.355-2.1-.582-3.328-.136-.736-.28-1.485-.419-2.208-.15-.781-.306-1.59-.452-2.386-.2-1.112-.408-2.244-.6-3.338q-.243-1.358-.49-2.716c-.009-.048-.018-.086-.024-.114a.063.063,0,0,0-.06-.048c-.041,0-.1,0-.181,0-.381.018-.766.029-1.138.039l-.3.008-.1.005a.063.063,0,0,0-.058.057c0,.023-.005.052-.007.086l0,.081c-.048.864-.1,1.758-.126,2.635-.043,1.318-.083,2.658-.12,3.955q-.032,1.119-.066,2.237a1.086,1.086,0,0,1-1.194,1.171h-.086c-.689.009-1.4.017-2.1,0-.029,0-.052,0-.07,0a.063.063,0,0,0-.056.046c0,.014-.008.032-.013.054a.9.9,0,0,1-.274.464c-.025.026-.05.053-.064.071l-.182.235a.065.065,0,0,0,.007.088l.1.1c.013.012.042.033.066.051a.82.82,0,0,1,.34.424.5.5,0,0,0,.017.048.063.063,0,0,0,.051.039.651.651,0,0,0,.092,0c.648-.016,1.3-.01,1.938,0l.218,0a.9.9,0,0,1,.746.3.915.915,0,0,1,.092.789c-.063.238-.142.468-.218.689-.061.177-.118.344-.167.514a1.112,1.112,0,0,1-1.021.859l-.618.065c-.87.09-1.77.184-2.63.35a17.447,17.447,0,0,0-2.055.578l-.143.047a.065.065,0,0,0,0,.123,12.459,12.459,0,0,0,1.452.476,21.852,21.852,0,0,0,4,.536.969.969,0,0,1,.948.711c.061.193.129.39.195.581.084.245.172.5.249.754a.918.918,0,0,1-.08.813.929.929,0,0,1-.761.316l-.209,0c-.637.006-1.3.013-1.946,0a.365.365,0,0,0-.109.009.28.28,0,0,0-.033.076.931.931,0,0,1-.292.4c-.026.023-.05.045-.064.061l-.15.165a.065.065,0,0,0,0,.09l.143.148.063.063a2.372,2.372,0,0,1,.2.218.6.6,0,0,1,.118.357v.015a.177.177,0,0,0,0,.019h.1Zm-.094-1.612Zm-4.111-4.339h0Zm19.539-1.036Zm-16.708-4.121v0Zm19.96-.141Z" transform="translate(-7652.969 1885.025)"/></g></g></svg>