<svg xmlns="http://www.w3.org/2000/svg" width="33" height="22.799" viewBox="0 0 33 22.799"><defs><style>.a{fill:#00b0ce;}</style></defs><g transform="translate(-6871.928 2106.4)"><g transform="translate(6871.928 -2100.156)"><path class="a" d="M6906.661-1982.7s.329.008.512.008.427.1.427.553-.3.5-.455.5l-.445,0h-12.928a2.712,2.712,0,0,1-2.756,2.251c-1.227-.018-2.069-.793-2.553-2.251h-12.82c-.138,0-.275,0-.413,0-.328,0-.6-.112-.628-.491-.023-.4.255-.515.58-.539l.39-.029c.087-.776.14-1.549.264-2.308a15.982,15.982,0,0,1,6.337-10.565c.139-.1.292-.254.442-.26a.645.645,0,0,1,.515.206.667.667,0,0,1-.046.573,2.463,2.463,0,0,1-.561.471,15.053,15.053,0,0,0-5.891,11.3c-.012.175,0,.352,0,.606h.852c1.171,0,2.341-.012,3.51.007.36.006.513-.085.542-.5a9.935,9.935,0,0,1,3.546-7.05l.12-.1c.259-.22.538-.306.769.005s.091.583-.168.8a9.368,9.368,0,0,0-2.285,2.778,8.592,8.592,0,0,0-1,4.022,2.606,2.606,0,0,0,.34.044c1.738,0,3.477,0,5.216.007.273,0,.4-.091.526-.372.241-.536.573-1.026.867-1.536,1.9-3.3,3.792-6.616,5.721-9.9a2.4,2.4,0,0,1,1.016-.923,1.269,1.269,0,0,1,1.5.414,1.6,1.6,0,0,1,.283,1.72q-1.348,3.739-2.694,7.477c-.359,1-.717,2-1.1,3.063h5.561a8.731,8.731,0,0,0-1.083-4.049,16.744,16.744,0,0,0-1.113-1.629c-.218-.3-.5-.595-.15-.937s.621-.055.866.233a9.938,9.938,0,0,1,2.419,5.935c.026.412.166.515.532.51,1.291-.019,2.583-.022,3.873,0,.407.007.533-.114.506-.556a15.088,15.088,0,0,0-5.941-11.388c-.138-.108-.282-.208-.423-.312-.272-.2-.422-.466-.219-.785s.516-.275.765-.054a31.263,31.263,0,0,1,2.806,2.555,16.042,16.042,0,0,1,4,10.079c0,.091.009.181.019.271A1.09,1.09,0,0,0,6906.661-1982.7Zm-15.822-2.234a2.827,2.827,0,0,1,2.6,1.336c.075-.167.117-.245.146-.328q1.715-4.753,3.427-9.507a1.721,1.721,0,0,0,.085-.307c.045-.3.008-.506-.307-.649a.479.479,0,0,0-.619.184c-.089.13-.159.229-.23.354q-2.4,4.162-4.793,8.326C6891.055-1985.363,6890.974-1985.192,6890.839-1984.934Zm1.96,2.792a1.718,1.718,0,0,0-1.659-1.772,1.713,1.713,0,0,0-1.711,1.717,1.693,1.693,0,0,0,1.685,1.788A1.689,1.689,0,0,0,6892.8-1982.143Z" transform="translate(-6874.6 1995.937)"/></g><g transform="translate(6879.204 -2106.4)"><path class="a" d="M6967.412-2051.409c-.868-.362-1.742-.725-2.64-1a20.025,20.025,0,0,0-8.431-.7l-.056.006a23.147,23.147,0,0,0-5.813,1.673c-.854.344-.972.723-.564,1.53q2.177,4.3,4.359,8.59c.374.735.679.856,1.444.542a8.643,8.643,0,0,1,3.45-.655c.375.005.734-.042.723-.518-.008-.435-.351-.485-.7-.494a8.5,8.5,0,0,0-3.463.58c-.4.162-.56.065-.744-.3-1.305-2.612-2.635-5.213-3.956-7.818-.071-.14-.065-.145-.181-.41a27.113,27.113,0,0,1,2.534-1.033,16.4,16.4,0,0,1,2.829-.647l.046-.006.125-.015a19.969,19.969,0,0,1,6.721.29,17.663,17.663,0,0,1,3.955,1.36l-1.36,2.69c-.168.334-.269.675.163.876.4.188.593-.1.75-.412.452-.89.907-1.777,1.352-2.67C6968.325-2050.695,6968.195-2051.082,6967.412-2051.409Z" transform="translate(-6949.683 2053.271)"/></g></g></svg>