<svg xmlns="http://www.w3.org/2000/svg" width="27.832" height="21.842" viewBox="0 0 27.832 21.842"><defs><style>.a{fill:#00b0ce;}</style></defs><g transform="translate(-6080.234 1684.07)"><g transform="translate(6080.235 -1674.553)"><path class="a" d="M6095.974-1576.842h-2.24l-2.249,0h-.041v0h-2.2c-1.743,0-3.545,0-5.318,0a3.663,3.663,0,0,1-3.62-2.955,3.664,3.664,0,0,1,2.184-4.129,3.581,3.581,0,0,1,2.883,0c.291.122.385.083.386.083s.082-.056.136-.356a6.148,6.148,0,0,1,5.714-4.96,6.137,6.137,0,0,1,6.338,4.72c.079.3.111.321.427.269a3.743,3.743,0,0,1,2.9.738,3.593,3.593,0,0,1,1.391,2.508,3.8,3.8,0,0,1-.957,2.893,3.611,3.611,0,0,1-2.684,1.185C6098.011-1576.843,6096.989-1576.842,6095.974-1576.842Zm-4.489-1.106,2.25,0c1.732,0,3.523,0,5.284,0a2.519,2.519,0,0,0,1.874-.825,2.662,2.662,0,0,0,.673-2.053,2.454,2.454,0,0,0-.967-1.733,2.64,2.64,0,0,0-2.041-.521,1.335,1.335,0,0,1-1.674-1.077,5.064,5.064,0,0,0-5.23-3.9,5.024,5.024,0,0,0-4.669,4.054,1.5,1.5,0,0,1-.695,1.13,1.513,1.513,0,0,1-1.339-.036,2.483,2.483,0,0,0-2.025,0,2.569,2.569,0,0,0-1.534,2.9,2.569,2.569,0,0,0,2.541,2.07c1.771,0,3.572,0,5.314,0C6089.993-1577.948,6090.74-1577.95,6091.484-1577.948Z" transform="translate(-6080.235 1589.167)"/></g><g transform="translate(6093.556 -1684.071)"><path class="a" d="M6222.645-1667.8a.894.894,0,0,1-.753-.421,4.052,4.052,0,0,0-3.38-1.809.893.893,0,0,1-.873-.614,6.458,6.458,0,0,0-3.936-3.934.867.867,0,0,1-.613-.87c0-.145-.007-.3-.018-.456,0-.074-.009-.148-.013-.222v-.044a8.35,8.35,0,0,1,5.858-7.819,1.244,1.244,0,0,1,1.275.206,1.23,1.23,0,0,1,.3,1.242,8.781,8.781,0,0,0,6.149,10.527,1.237,1.237,0,0,1,.9.874,1.209,1.209,0,0,1-.4,1.16,8.3,8.3,0,0,1-4.3,2.162A1.092,1.092,0,0,1,6222.645-1667.8Zm-4.01-3.329a5.139,5.139,0,0,1,4.112,2.206,7.2,7.2,0,0,0,3.634-1.859.323.323,0,0,0,.082-.1.369.369,0,0,0-.142-.071,9.862,9.862,0,0,1-6.907-11.824.6.6,0,0,0,.018-.183.614.614,0,0,0-.2.032,7.248,7.248,0,0,0-5.073,6.775c0,.061.007.123.011.184.009.131.017.265.02.4A7.585,7.585,0,0,1,6218.635-1671.132Z" transform="translate(-6213.059 1684.071)"/></g></g></svg>