<svg xmlns="http://www.w3.org/2000/svg" width="24.694" height="28.611" viewBox="0 0 24.694 28.611"><defs><style>.a{fill:#00b0ce;}</style></defs><g transform="translate(-7322.884 1755.125)"><path class="a" d="M7329.946-1742.315c-1.2-.057-1.883-.517-2.105-1.4a1.822,1.822,0,0,1,1.229-2.224c.3-.093.437-.213.348-.525a.269.269,0,0,1-.009-.133c.236-.983-.318-1.473-1.1-1.89a2.569,2.569,0,0,1-1.477-2.505,2.33,2.33,0,0,1,1.527-2.271c1.922-.66,3.876-1.245,5.85-1.728a7.019,7.019,0,0,1,3.86.4c1.243.407,2.5.78,3.74,1.187a2.5,2.5,0,0,1,1.794,2.084,2.547,2.547,0,0,1-1.13,2.635c-.377.265-.782.49-1.156.758a.609.609,0,0,0-.244.376,9.5,9.5,0,0,0-.034,1.291.425.425,0,0,0,.249.286,1.874,1.874,0,0,1,1.314,2.071,1.824,1.824,0,0,1-1.837,1.56c-.3.015-.312.179-.376.385a15.68,15.68,0,0,1-.7,2.1,9.764,9.764,0,0,1-.98,1.313,1.065,1.065,0,0,0-.208.57,8.18,8.18,0,0,0,.126,1.062,1.2,1.2,0,0,0,1.252,1.2c1.109.115,2.228.181,3.325.362a5.1,5.1,0,0,1,4.359,5.056c.025,1.056.01,2.112.007,3.169,0,.514-.1.61-.595.61q-11.741,0-23.48,0c-.5,0-.6-.093-.6-.6,0-1.056-.02-2.113,0-3.169a5.138,5.138,0,0,1,4.942-5.165c.935-.067,1.866-.167,2.8-.267a1.181,1.181,0,0,0,1.193-1.156c.057-.382.119-.765.145-1.15a.592.592,0,0,0-.129-.431,5.684,5.684,0,0,1-1.763-3.422,2.969,2.969,0,0,0-.07-.3A.75.75,0,0,0,7329.946-1742.315Zm5.286-6.071c1.294,0,2.591-.056,3.881.018a3.947,3.947,0,0,0,2.687-.79,2,2,0,0,0,1.023-2.014,1.907,1.907,0,0,0-1.506-1.579c-1.264-.386-2.524-.784-3.784-1.184a6.279,6.279,0,0,0-3.475-.246c-1.8.461-3.583.981-5.326,1.608a1.832,1.832,0,0,0-.351,3.2,11.274,11.274,0,0,0,1.2.771,1.546,1.546,0,0,0,.7.208C7331.931-1748.378,7333.582-1748.386,7335.232-1748.386Zm-1.628,16.958c-.182.172-.31.3-.439.418-.465.44-.579.44-1.024,0l-2.4-2.4c-.378-.379-.749-.766-1.143-1.13a.554.554,0,0,0-.386-.122c-.05,0-.11.207-.121.324a2.717,2.717,0,0,0,0,.624.724.724,0,0,1-.517.821c-.608.277-1.194.6-1.8.891-.712.34-.754.544-1.359-.253a1.1,1.1,0,0,0-.176-.141c-.912,1.635-.458,3.373-.585,5.065h2.643c0-.429,0-.828,0-1.227,0-.3.048-.564.415-.55.337.012.38.274.377.547,0,.41,0,.82,0,1.26,1.967,0,3.869,0,5.771-.01a.436.436,0,0,0,.316-.226c.38-.92.741-1.848,1.1-2.778a.4.4,0,0,0-.03-.322C7334.06-1730.9,7333.839-1731.145,7333.6-1731.428Zm3.43,0a9.286,9.286,0,0,0-.705.868.7.7,0,0,0-.077.545c.286.8.623,1.575.917,2.368a.464.464,0,0,0,.521.349c1.74-.013,3.479-.006,5.22-.008.128,0,.255-.021.419-.036,0-.432,0-.831,0-1.23,0-.269.03-.535.378-.54s.393.252.393.526v1.246h2.716c-.155-1.719.329-3.472-.635-5.116-.138.148-.229.241-.313.34-.429.5-.441.507-1.045.206s-1.183-.633-1.8-.886a.973.973,0,0,1-.717-1.152,4.9,4.9,0,0,0,.006-.708l-.135-.025c-.117.109-.236.216-.35.329q-1.7,1.7-3.4,3.408c-.354.352-.5.351-.861.019C7337.4-1731.078,7337.239-1731.233,7337.034-1731.429Zm-6.71-12.978c.262,1.142.465,2.285.793,3.391a4.247,4.247,0,0,0,4.115,3.04,4.287,4.287,0,0,0,4.12-3.041c.16-.508.255-1.038.37-1.559.136-.609.263-1.219.39-1.814A9.7,9.7,0,0,1,7330.324-1744.407Zm9.749-1.7h-9.7a1.919,1.919,0,0,0,1.222,1.471,13.839,13.839,0,0,0,2.262.658,8.552,8.552,0,0,0,5.056-.668A1.9,1.9,0,0,0,7340.073-1746.109Zm-2.384,8.306a5.331,5.331,0,0,1-4.932,0c-.088.545-.178,1.039-.235,1.536-.011.084.094.209.178.271.8.591,1.6,1.18,2.421,1.748a.453.453,0,0,0,.413-.012c.768-.534,1.522-1.088,2.274-1.645.083-.062.186-.189.174-.27C7337.9-1736.7,7337.8-1737.218,7337.689-1737.8Zm-8.132,2.978,3.163,3.155,1.98-1.892c-.868-.632-1.679-1.229-2.5-1.808-.073-.052-.236-.007-.347.028-.433.134-.855.308-1.294.415A7.139,7.139,0,0,1,7329.558-1734.825Zm11.427.055c.007.006-.012-.023-.035-.028-.071-.016-.146-.022-.22-.031a4.268,4.268,0,0,1-2.137-.505c-.062-.044-.247.03-.343.1-.428.294-.844.6-1.264.911l-1.052.771,1.944,1.851Zm-10.777-12.2h10.029v-.595h-10.029Zm6.248,19.635c-.364-.926-.7-1.794-1.051-2.658a.349.349,0,0,0-.214-.177c-.043-.011-.147.088-.176.157-.352.876-.7,1.755-1.059,2.678Zm-2.243-4.671c.944,1.512,1.42,1.281,2.2-.011l-1.092-1.044Zm-4.8-13.177a.986.986,0,0,0-.819,1.2.951.951,0,0,0,1.162.792c-.1-.611-.19-1.222-.288-1.833A1.294,1.294,0,0,0,7329.416-1745.182Zm11.271,2.022a1.022,1.022,0,0,0,1.143-.908.93.93,0,0,0-.8-1.073C7340.92-1744.492,7340.807-1743.842,7340.688-1743.16Zm2.472,8.552c-.159.93-.073,1.073.735,1.285.135-.277.272-.56.438-.9Zm-17.08.411c.177.348.319.629.46.9.849-.356.879-.413.689-1.3Zm19.6,1.014-.679-.6-.411.833C7345.245-1732.523,7345.246-1732.523,7345.682-1733.183Zm-19.86.226c-.14-.267-.265-.51-.445-.858l-.585.7C7325.14-1732.527,7325.179-1732.519,7325.821-1732.957Z"/><path class="a" d="M7430.456-1706.554a.973.973,0,0,1-.507-.015c-.184-.054-.381-.112-.579-.172-.554-.168-1.109-.338-1.663-.508-.289-.088-.641-.165-.509-.573s.468-.258.752-.172c.543.164,1.083.342,1.629.5a2.343,2.343,0,0,0,1.27,0c.589-.166,1.171-.354,1.756-.535.268-.083.525-.1.624.219s-.126.451-.393.532c-.782.239-1.562.481-2.343.72Z" transform="translate(-94.978 -42.836)"/><path class="a" d="M7446.227-1724.925a3.839,3.839,0,0,1-2.848,0l-.022-.009a.433.433,0,0,1-.157-.4c.05-.127.289-.306.374-.273a3.308,3.308,0,0,0,2.461,0c.084-.032.321.149.371.277a.434.434,0,0,1-.163.4Z" transform="translate(-109.569 -26.88)"/></g></svg>