<svg xmlns="http://www.w3.org/2000/svg" width="50.465" height="22.119" viewBox="0 0 50.465 22.119"><defs><style>.a{fill:#00b0ce;}</style></defs><g transform="translate(-6163.992 2117.561)"><path class="a" d="M6211.839-1989.128a4.938,4.938,0,0,0-2.2-1,6.3,6.3,0,0,0-4.458.651,2.919,2.919,0,0,0-1.726,2.674c0,.385-.008.77,0,1.155.011.635.271.9.9.9,1.293,0,2.586,0,3.88,0s2.586,0,3.88,0c.608,0,.868-.266.881-.873.008-.354-.016-.709,0-1.062A2.829,2.829,0,0,0,6211.839-1989.128Z" transform="translate(-35.808 -115.518)"/><path class="a" d="M6348.224-2011.684c-.11,0-.221,0-.332,0H6342.5c-.65,0-1.3-.011-1.95.005a.792.792,0,0,0-.851.832.8.8,0,0,0,.889.8q1.887,0,3.773,0v.006q1.9,0,3.805,0a.882.882,0,0,0,.98-.814A.864.864,0,0,0,6348.224-2011.684Z" transform="translate(-159.467 -96.085)"/><path class="a" d="M6348.224-2043.367c-.11,0-.221,0-.332,0H6342.5c-.65,0-1.3-.011-1.95.005a.792.792,0,0,0-.851.832.8.8,0,0,0,.889.8q1.887,0,3.773,0v.006q1.9,0,3.805,0a.882.882,0,0,0,.98-.814A.864.864,0,0,0,6348.224-2043.367Z" transform="translate(-159.467 -67.331)"/><path class="a" d="M6348.167-1978.362a.883.883,0,0,0,.98-.814.864.864,0,0,0-.922-.826c-.11,0-.221,0-.332,0H6342.5c-.65,0-1.3-.011-1.95.006a.792.792,0,0,0-.851.832.8.8,0,0,0,.889.8q1.887,0,3.773,0v.006Q6346.263-1978.362,6348.167-1978.362Z" transform="translate(-159.467 -124.839)"/><path class="a" d="M6233.418-2058.5a2.442,2.442,0,0,0-2.435-2.491,2.452,2.452,0,0,0-2.48,2.45,2.5,2.5,0,0,0,2.685,2.451A2.455,2.455,0,0,0,6233.418-2058.5Z" transform="translate(-58.548 -51.343)"/><path class="a" d="M6487.657-2080.41a2.107,2.107,0,0,0-2.333-1.81c-.627,0-1.254,0-1.881,0h-1.193l-.912,0h-.01c-.707,0-1.437-.005-2.161,0l-.38,0,.006-.381c.007-.438,0-.878,0-1.3,0-.364,0-.732,0-1.092a1.159,1.159,0,0,0-.363-.951,2.018,2.018,0,0,0-1.235-.31h-.026l-1.638-.011a2.1,2.1,0,0,0-1.27.337,1.168,1.168,0,0,0-.356.957c.012.614.007,1.238,0,1.841v.216c0,.118,0,.224,0,.32l0,.373h-.669q-1.018,0-2.036,0h-.057c-1.285,0-2.615-.006-3.923.007a2.2,2.2,0,0,0-1.831.908,2.053,2.053,0,0,0-.217,1.895,2.312,2.312,0,0,0,1.691,1.384l.227.065c2.17.626,4.414,1.273,6.611,1.941l.053.021a.7.7,0,0,1,.14.093l.088.075.03.112c.171.652.322,1.321.467,1.969.118.52.237,1.051.367,1.574l.075.3-.286.125c-.491.216-.979.447-1.452.671-.337.16-.686.325-1.031.482a1.365,1.365,0,0,0-.913,1.608,1.349,1.349,0,0,0,1.5,1.079h.99c.479,0,.912,0,1.349,0l.262,0,.089.246a.879.879,0,0,0,.094.186,1,1,0,0,0,.81.446h.025a1,1,0,0,0,.8-.4.84.84,0,0,0,.117-.221l.086-.254.268,0c.539.006,1.083,0,1.609,0h.019l.73,0a1.326,1.326,0,0,0,1.461-1.029,1.374,1.374,0,0,0-.869-1.637c-.305-.139-.615-.288-.915-.431-.523-.251-1.057-.507-1.6-.732l-.3-.125.085-.314c.017-.062.04-.135.068-.215a15.479,15.479,0,0,0,.709-3.133,1.471,1.471,0,0,1,.051-.249l.053-.164.16-.065a1.057,1.057,0,0,1,.114-.038c1.621-.453,3.262-.933,4.849-1.4l2.018-.588a2.156,2.156,0,0,0,1.784-2.376Zm-2.067,1.4-2.02.588c-1.584.463-3.222.941-4.838,1.393a1.431,1.431,0,0,0-1.112,1.365,14.493,14.493,0,0,1-.661,2.929,1.921,1.921,0,0,0-.129,1.1,1.221,1.221,0,0,0,.8.811c.536.22,1.049.466,1.592.726.3.146.618.3.936.441l.271.124-.058.3a.387.387,0,0,1-.384.3l-.734,0h-.013c-.585,0-1.191.006-1.783,0a1.171,1.171,0,0,0-.848.268l-.258.248-.256-.25a1.093,1.093,0,0,0-.791-.265h-.023c-.444,0-1.657,0-2.309,0h-.267a.427.427,0,0,1-.414-.321.461.461,0,0,1,.239-.52l.027-.013c.18-.08.486-.2.841-.338a17.872,17.872,0,0,0,1.678-.709l.038-.019a1.129,1.129,0,0,0,.754-1.449c-.142-.559-.27-1.128-.393-1.678-.155-.687-.314-1.4-.5-2.1a1.5,1.5,0,0,0-.964-.921c-2.208-.671-4.458-1.32-6.635-1.948l-.227-.065c-.606-.175-.882-.379-1.017-.752a1.039,1.039,0,0,1,.1-.969,1.2,1.2,0,0,1,1.005-.472c1.314-.013,2.644-.01,3.931-.007q1.039,0,2.077,0h.25c.621,0,.929-.007,1.181-.259s.255-.56.251-1.093c0-.1,0-.219,0-.35v-.216c0-.543,0-1.669,0-1.68v-.427l.409.057,2.443.014v.367s0,.6,0,.893c0,.512.006,1.041-.008,1.557a1.119,1.119,0,0,0,.279.851,1.159,1.159,0,0,0,.869.289c.811-.013,1.627-.01,2.417-.008l.915,0h1.109q.981,0,1.962,0c1.195,0,1.3.708,1.33.939C6486.734-2079.687,6486.348-2079.23,6485.59-2079.01Z" transform="translate(-273.223 -28.402)"/><path class="a" d="M6547.923-2115.731h3c1.022,0,2.045.029,3.064-.021a.372.372,0,0,0,.135-.035.473.473,0,0,0,.013-.85.4.4,0,0,0-.13-.038l-2-.02c-.357.006-.568-.068-.623-.5a.367.367,0,0,0-.077-.171.482.482,0,0,0-.807.042.315.315,0,0,0-.036.108c-.052.465-.272.55-.756.507l-1.545,0c-.386.026-.952-.1-.955.481C6547.2-2115.756,6547.574-2115.732,6547.923-2115.731Z" transform="translate(-347.793)"/><path class="a" d="M6194.982-2098.813h0a.629.629,0,0,0-.584.074.629.629,0,0,0-.272.522v.862q0,2.155,0,4.31a1.422,1.422,0,0,1-1.625,1.635q-4.7,0-9.408,0h-16.1c-1.225,0-1.724-.5-1.724-1.722q0-7.717,0-15.434c0-1.211.491-1.705,1.7-1.705h25.507a1.442,1.442,0,0,1,1.655,1.653v.741a.636.636,0,0,0,.636.635.632.632,0,0,0,.45-.186.631.631,0,0,0,.186-.45v-.818a2.661,2.661,0,0,0-2.881-2.849h-25.64a2.66,2.66,0,0,0-2.877,2.853c-.005,5.287-.006,10.571,0,15.707a2.66,2.66,0,0,0,2.881,2.849h25.64a2.66,2.66,0,0,0,2.878-2.853q0-2.614,0-5.228A.638.638,0,0,0,6194.982-2098.813Z" transform="translate(0 -5.459)"/></g></svg>