<svg xmlns="http://www.w3.org/2000/svg" width="38" height="39" viewBox="0 0 38 39"><defs><style>.a,.d{fill:none;}.a{stroke:#fff;opacity:0.7;}.b{fill:#fff;}.c{stroke:none;}</style></defs><g transform="translate(9996 18253.164)"><g class="a" transform="translate(-9996 -18253.164)"><ellipse class="c" cx="19" cy="19.5" rx="19" ry="19.5"/><ellipse class="d" cx="19" cy="19.5" rx="18.5" ry="19"/></g><g transform="translate(-9987 -18243.164)"><path class="b" d="M131.478,108a1.468,1.468,0,0,0-1.467,1.467v1.585l-3.436,1.375a.366.366,0,0,0-.231.34v1.1a.367.367,0,0,0,.367.367h3.3v1.259l-1.656.993a.367.367,0,0,0-.178.314v.5h0l.026.136v.821l.685-.055v0l2.593-.648,2.567.642v1.547a.367.367,0,0,0,.367.367h4.034a.367.367,0,0,0,.367-.367v-2.2h-.733v1.833h-3.3v-2.933h1.833V115.7h-2.2a.367.367,0,0,0-.367.367v.086l-1.1-.66v-1.259h3.3a.367.367,0,0,0,.367-.367v-1.1a.367.367,0,0,0-.231-.341l-3.436-1.374v-1.585A1.468,1.468,0,0,0,131.478,108Zm4.4,5.015v.485h-3.3a.367.367,0,0,0-.367.367V115.7a.367.367,0,0,0,.178.314l1.656.993v.423l-2.478-.619a.363.363,0,0,0-.177,0l-2.478.619v-.423l1.656-.993a.367.367,0,0,0,.178-.314v-1.833a.367.367,0,0,0-.367-.367h-3.3v-.485l3.436-1.375a.366.366,0,0,0,.231-.34v-1.833a.733.733,0,0,1,1.467,0V111.3a.367.367,0,0,0,.231.341Z" transform="translate(-121.253 -103.05)"/><g transform="translate(13.786 12.758)"><path class="b" d="M323.622,278.344l-1.941,1.941-.474-.474-.518.519.733.733a.366.366,0,0,0,.518,0l2.2-2.2Z" transform="translate(-320.688 -278.344)"/></g><path class="b" d="M20.654,1.12a1.759,1.759,0,0,0-.229-.311q-.034-.037-.069-.072Q20.284.667,20.2.6a2.446,2.446,0,0,0-.45-.288,2.793,2.793,0,0,0-.312-.132l-.11-.037Q19.221.11,19.1.083L18.987.058q-.119-.023-.242-.037A3.358,3.358,0,0,0,18.368,0H2.482A3.358,3.358,0,0,0,2.1.021q-.123.014-.242.037L1.745.083q-.116.027-.228.062l-.11.037A2.792,2.792,0,0,0,1.1.314,2.446,2.446,0,0,0,.646.6Q.565.667.494.737.458.772.424.809A1.758,1.758,0,0,0,.2,1.12a1.424,1.424,0,0,0-.2.713V17.6c0,1.011,1.113,1.833,2.482,1.833H18.368c1.369,0,2.482-.822,2.482-1.833V1.833A1.424,1.424,0,0,0,20.654,1.12Zm-.8,1.08V17.6c0,.607-.668,1.1-1.489,1.1H2.482c-.821,0-1.489-.494-1.489-1.1V1.833c0-.607.668-1.1,1.489-1.1H18.368c.821,0,1.489.494,1.489,1.1Z" transform="translate(0 0)"/><rect class="b" width="18.754" height="0.628" transform="translate(1.048 2.704)"/></g></g></svg>