<svg xmlns="http://www.w3.org/2000/svg" width="39" height="39" viewBox="0 0 39 39"><defs><style>.a,.e{fill:none;}.a{stroke:#fff;opacity:0.7;}.b{fill:#fcfcfc;}.c{fill:#fff;}.d{stroke:none;}</style></defs><g transform="translate(-290 -312)"><g class="a" transform="translate(290 312)"><circle class="d" cx="19.5" cy="19.5" r="19.5"/><circle class="e" cx="19.5" cy="19.5" r="19"/></g><g transform="translate(298 320)"><g transform="translate(0 0)"><path class="b" d="M21.046,24.4H1.6A1.6,1.6,0,0,0,0,26V42.2a1.6,1.6,0,0,0,1.6,1.6H14.335a.38.38,0,1,0,0-.759H12.916V40.583a1.591,1.591,0,0,0-.982-1.473l-1.995-.831a.43.43,0,0,1-.265-.4v-.593a2.821,2.821,0,0,0,.81-1.974V33.695a2.635,2.635,0,0,0-2.811-2.406,2.635,2.635,0,0,0-2.811,2.406v1.621a2.821,2.821,0,0,0,.81,1.974v.593a.43.43,0,0,1-.265.4l-1.995.831a1.591,1.591,0,0,0-.982,1.473V43.04H1.6A.837.837,0,0,1,.759,42.2V29.212H21.882v6.306a.38.38,0,0,0,.759,0V26A1.6,1.6,0,0,0,21.046,24.4ZM3.191,40.583a.834.834,0,0,1,.514-.772L5.7,38.98a1.187,1.187,0,0,0,.732-1.1V37.8a.379.379,0,0,0,.215-.707,2.06,2.06,0,0,1-1.025-1.777V33.695a1.885,1.885,0,0,1,2.052-1.646,1.885,1.885,0,0,1,2.052,1.646v1.621A2.06,2.06,0,0,1,8.7,37.093a.38.38,0,0,0,.191.709l.025,0v.082a1.187,1.187,0,0,0,.732,1.1l1.995.831a.834.834,0,0,1,.514.772V43.04H3.191ZM21.882,28.452H.759V26a.837.837,0,0,1,.836-.836H21.046a.837.837,0,0,1,.836.836Z" transform="translate(0 -24.4)"/></g><g transform="translate(2.456 2.026)"><g transform="translate(0 0)"><path class="b" d="M48.887,64.418h0a.38.38,0,1,0,.384.38A.378.378,0,0,0,48.883,64.418Z" transform="translate(-48.505 -64.418)"/></g></g><g transform="translate(4.883 2.026)"><g transform="translate(0 0)"><path class="b" d="M96.828,64.418h0a.38.38,0,1,0,.384.38A.378.378,0,0,0,96.824,64.418Z" transform="translate(-96.446 -64.418)"/></g></g><g transform="translate(3.667 2.026)"><g transform="translate(0 0)"><path class="b" d="M72.816,64.418h0a.38.38,0,1,0,.384.38A.378.378,0,0,0,72.812,64.418Z" transform="translate(-72.434 -64.418)"/></g></g><g transform="translate(13.347 7.319)"><g transform="translate(0 0)"><path class="c" d="M268.854,168.966h-4.863a.38.38,0,0,0,0,.759h4.863a.38.38,0,1,0,0-.759Z" transform="translate(-263.612 -168.966)"/></g></g><g transform="translate(13.347 9.7)"><path class="c" d="M266.828,215.981h-2.837a.38.38,0,1,0,0,.759h2.837a.38.38,0,1,0,0-.759Z" transform="translate(-263.612 -215.981)"/></g><path class="b" d="M303.508,257.344a.44.44,0,0,0-.345-.43l-4.058-.9a.445.445,0,0,0-.192,0l-4.058.9a.441.441,0,0,0,.192.86l3.962-.883,3.617.806v2.518a6.572,6.572,0,0,1-3.617,5.87,6.574,6.574,0,0,1-3.6-5.347c-.008-.1-.013-.2-.017-.292a.441.441,0,1,0-.881.03c0,.11.01.221.019.331a7.454,7.454,0,0,0,4.29,6.167.44.44,0,0,0,.37,0,7.453,7.453,0,0,0,4.314-6.759v-2.871Z" transform="translate(-279.6 -244.273)"/><path class="c" d="M340.008,322.6a.44.44,0,0,0,.307.155h.029a.441.441,0,0,0,.3-.114l3.194-2.89a.441.441,0,1,0-.591-.653l-2.856,2.584-.815-.964a.441.441,0,0,0-.673.569Z" transform="translate(-321.641 -304.075)"/><path class="b" d="M294.728,305.413a.441.441,0,1,0-.165-.528A.444.444,0,0,0,294.728,305.413Z" transform="translate(-279.621 -290.42)"/></g></g></svg>