<svg xmlns="http://www.w3.org/2000/svg" width="38" height="38" viewBox="0 0 38 38"><defs><style>.a{opacity:0.7;}.b{fill:#FFF;}.c,.e{fill:none;}.c{stroke:#FFF;opacity: 0.7;}.d{stroke:none;}</style></defs><g transform="translate(9041 19230)"><g class="a" transform="translate(-9071 -22570)"><g transform="translate(-6163.404 5464.559)"><path class="b" d="M6489.657-2079.892a2.294,2.294,0,0,0-2.539-1.97q-1.024,0-2.048,0h-1.3l-.993,0h-.011c-.769,0-1.564-.006-2.352,0l-.414.005.006-.414c.008-.477.005-.956,0-1.419,0-.4,0-.8,0-1.189a1.262,1.262,0,0,0-.4-1.035,2.195,2.195,0,0,0-1.345-.338h-.028l-1.783-.012a2.287,2.287,0,0,0-1.382.367,1.27,1.27,0,0,0-.388,1.041c.013.668.008,1.347,0,2v.236c0,.128,0,.244,0,.348l0,.406h-.728q-1.108,0-2.216,0h-.062c-1.4,0-2.846-.006-4.27.008a2.4,2.4,0,0,0-1.993.989,2.236,2.236,0,0,0-.236,2.062,2.518,2.518,0,0,0,1.841,1.506l.247.071c2.362.681,4.8,1.386,7.2,2.113l.058.023a.785.785,0,0,1,.152.1l.1.082.032.122c.187.709.35,1.438.509,2.143.128.566.258,1.144.4,1.713l.082.329-.311.136c-.534.235-1.066.487-1.58.73-.367.174-.746.354-1.122.525a1.486,1.486,0,0,0-.993,1.75,1.468,1.468,0,0,0,1.628,1.175h.012q.5,0,1.008,0h.058c.521,0,.992,0,1.468,0l.285,0,.1.268a.979.979,0,0,0,.1.2,1.085,1.085,0,0,0,.881.486h.028a1.082,1.082,0,0,0,.873-.44.911.911,0,0,0,.127-.241l.093-.277.292,0c.586.006,1.179,0,1.751,0h.021l.795,0a1.443,1.443,0,0,0,1.591-1.12,1.5,1.5,0,0,0-.946-1.782c-.333-.151-.669-.313-1-.469-.57-.273-1.151-.552-1.743-.8l-.327-.135.093-.342c.018-.068.043-.146.073-.234a16.837,16.837,0,0,0,.772-3.411,1.571,1.571,0,0,1,.056-.271l.057-.179.174-.071a1.145,1.145,0,0,1,.124-.042c1.765-.493,3.551-1.015,5.278-1.519l2.2-.64a2.347,2.347,0,0,0,1.941-2.586Zm-2.25,1.523-2.2.64c-1.724.5-3.507,1.024-5.266,1.516a1.558,1.558,0,0,0-1.21,1.486,15.77,15.77,0,0,1-.719,3.188,2.1,2.1,0,0,0-.14,1.2,1.329,1.329,0,0,0,.874.883c.583.239,1.142.507,1.733.791.331.159.672.323,1.018.48l.294.134-.062.324a.421.421,0,0,1-.419.329l-.8,0h-.015c-.637,0-1.3.006-1.941,0a1.272,1.272,0,0,0-.923.292l-.281.27-.279-.272a1.188,1.188,0,0,0-.861-.289h-.026c-.483.005-1.8,0-2.513,0h-.291a.465.465,0,0,1-.45-.35.5.5,0,0,1,.26-.566l.03-.015c.2-.087.529-.217.916-.368a19.56,19.56,0,0,0,1.826-.772l.041-.021a1.229,1.229,0,0,0,.821-1.578c-.154-.609-.293-1.228-.427-1.826-.169-.748-.343-1.522-.545-2.281a1.629,1.629,0,0,0-1.049-1c-2.4-.73-4.853-1.437-7.222-2.12l-.247-.071c-.659-.19-.959-.412-1.106-.819a1.13,1.13,0,0,1,.1-1.055,1.312,1.312,0,0,1,1.094-.514c1.43-.014,2.878-.011,4.278-.007q1.131,0,2.261,0h.272c.676,0,1.012-.008,1.285-.282s.277-.609.273-1.19c0-.113,0-.239,0-.381v-.235c0-.591,0-1.817,0-1.829v-.464l.444.062,2.66.015v.4s0,.653,0,.971c0,.557.006,1.133-.009,1.7a1.219,1.219,0,0,0,.3.926,1.262,1.262,0,0,0,.946.315c.882-.015,1.771-.011,2.63-.008l1,0h1.207q1.067,0,2.136,0c1.3.005,1.411.771,1.448,1.022C6488.653-2079.105,6488.232-2078.608,6487.408-2078.369Z" transform="translate(-264.636 -28.146)"/><path class="b" d="M6547.986-2115.57q1.632,0,3.264,0c1.113,0,2.226.031,3.335-.023a.4.4,0,0,0,.146-.038.514.514,0,0,0,.014-.925.43.43,0,0,0-.141-.041l-2.173-.022c-.389.007-.619-.074-.678-.54a.406.406,0,0,0-.084-.186.524.524,0,0,0-.878.046.328.328,0,0,0-.039.118c-.057.506-.3.6-.824.552l-1.682,0c-.42.029-1.036-.1-1.04.524C6547.2-2115.6,6547.606-2115.57,6547.986-2115.57Z" transform="translate(-338.535)"/></g></g><g class="c" transform="translate(-9041 -19230)"><circle class="d" cx="19" cy="19" r="19"/><circle class="e" cx="19" cy="19" r="18.5"/></g></g></svg>