<svg xmlns="http://www.w3.org/2000/svg" width="38" height="38" viewBox="0 0 38 38"><defs><style>.a,.d{fill:none;}.a{stroke:#35bbd7;}.b{fill:#35bbd7;}.c{stroke:none;}</style></defs><g transform="translate(-30 -3340)"><g class="a" transform="translate(30 3340)"><circle class="c" cx="19" cy="19" r="19"/><circle class="d" cx="19" cy="19" r="18.5"/></g><g transform="translate(-1823.971 -4321.969) rotate(90)"><g transform="translate(7671.667 -1887.829)"><path class="b" d="M7662.093-1855.363h-1.163a1.085,1.085,0,0,1-1.066-.848.871.871,0,0,1-.02-.154c-.091-2.158-.168-4.353-.244-6.475l-.039-1.1a1.033,1.033,0,0,0-.031-.253.052.052,0,0,0-.037-.037,1.038,1.038,0,0,0-.251-.026c-.243,0-.486-.011-.729-.017-.391-.011-.8-.022-1.189-.021h0a1.016,1.016,0,0,1-.279-.036.056.056,0,0,0-.071.056c0,.073,0,.147.005.222a.636.636,0,0,1-.021.164.52.52,0,0,1-.5.385.517.517,0,0,1-.507-.363.631.631,0,0,1-.028-.152,7.236,7.236,0,0,1,.015-1.118c.019-.177,0-.187-.085-.222l-.045-.021a.523.523,0,0,1-.271-.627.373.373,0,0,1,.226-.237c.133-.051.22-.085.167-.459a4.548,4.548,0,0,1-.01-.914l.005-.093a.559.559,0,0,1,.049-.2.524.524,0,0,1,.494-.308.519.519,0,0,1,.472.335.509.509,0,0,1,.034.187c0,.149-.008.3-.016.441a.056.056,0,0,0,.075.056,1.054,1.054,0,0,1,.375-.053c.554.013,1.121.008,1.669,0h.1a.057.057,0,0,0,.054-.074c-.055-.18-.117-.357-.182-.544-.059-.172-.121-.349-.177-.527-.019-.059-.023-.074-.132-.079a19.754,19.754,0,0,1-3.627-.488,12.739,12.739,0,0,1-1.534-.51l-.148-.056a.783.783,0,0,1-.468-.665.766.766,0,0,1,.493-.664l.463-.15a15.813,15.813,0,0,1,1.883-.528c.783-.151,1.583-.234,2.358-.315l.534-.056c.15-.016.19-.05.232-.2.048-.166.1-.327.157-.483s.1-.305.147-.454a.057.057,0,0,0-.055-.073h-.1c-.545-.005-1.109-.011-1.66,0a1.094,1.094,0,0,1-.381-.051.056.056,0,0,0-.073.056c0,.1.008.21.007.318a.519.519,0,0,1-.012.113.52.52,0,0,1-.557.411.512.512,0,0,1-.477-.487v-.009a8.484,8.484,0,0,1,.01-1.11.45.45,0,0,0,0-.125.261.261,0,0,0-.044-.019.628.628,0,0,1-.252-.171l-.01-.01a.461.461,0,0,1-.1-.513.463.463,0,0,1,.277-.277c.119-.039.159-.052.12-.382a6.086,6.086,0,0,1-.007-1,.626.626,0,0,1,.037-.176.527.527,0,0,1,.5-.341.521.521,0,0,1,.486.355.55.55,0,0,1,.028.172c0,.093,0,.185-.008.276a.057.057,0,0,0,.074.056,1.118,1.118,0,0,1,.356-.047c.6.011,1.215,0,1.81,0h.075c.245,0,.271-.028.278-.272q.029-.974.057-1.948c.033-1.13.067-2.3.1-3.448.026-.772.068-1.555.11-2.312l0-.071a.787.787,0,0,1,.888-.858l.262-.007c.32-.009.651-.018.974-.033.557-.027.9.091,1.027.77q.216,1.183.427,2.367c.171.952.348,1.937.526,2.9.127.691.262,1.394.393,2.073.121.632.247,1.285.366,1.928.2,1.073.366,2.027.51,2.916.029.185.064.189.168.2,1.045.126,2.261.273,3.451.426.458.059,1.3.172,1.821.273,0-.009,0-.018,0-.028.1-.771.216-1.552.327-2.307q.064-.435.127-.871c.011-.075.022-.2.024-.267.029-.974.434-1.071,1.207-1.168l.077-.01a3.387,3.387,0,0,1,1.2.134l.139.033a.836.836,0,0,1,.571.684c.054.709.1,1.429.14,2.126.029.481.059.978.093,1.466a1.4,1.4,0,0,1-.072.609.056.056,0,0,0,.049.077l1.069.08a.316.316,0,0,1,.292.315v.195a.316.316,0,0,1-.292.315l-1.036.077a.057.057,0,0,0-.049.078,1.027,1.027,0,0,1,.067.475c-.089,1.214-.169,2.441-.242,3.647a.792.792,0,0,1-.663.812l-.022,0a3.412,3.412,0,0,1-1.789.034.973.973,0,0,1-.72-.864c-.152-1.2-.307-2.309-.473-3.391-.012-.073-.027-.176-.043-.258a.056.056,0,0,0-.06-.045c-.074.008-.167.02-.253.032l-.024,0c-1.5.2-3.035.4-4.515.594l-.217.028a.424.424,0,0,0-.362.345c-.156.858-.317,1.729-.474,2.571q-.22,1.186-.438,2.373c-.1.533-.192,1.076-.284,1.6-.089.51-.181,1.038-.275,1.557-.221,1.213-.458,2.486-.746,4.008A.907.907,0,0,1,7662.093-1855.363Zm-4.72-9.7c.39,0,.782.011,1.162.021.241.007.481.013.721.017.739.012,1.05.319,1.076,1.059l.04,1.1c.075,2.121.152,4.314.243,6.47a.285.285,0,0,0,0,.029.314.314,0,0,0,.311.233h1.163a.135.135,0,0,0,.132-.108c.287-1.519.524-2.791.744-4,.094-.516.186-1.042.275-1.551.092-.527.187-1.072.285-1.608q.217-1.188.439-2.376c.156-.842.317-1.712.473-2.569a1.2,1.2,0,0,1,1.022-.971l.217-.028c1.479-.193,3.008-.392,4.511-.594l.024,0c.4-.053.659-.089.885.077s.278.453.337.841c.168,1.089.324,2.2.477,3.411.018.145.05.183.187.226a2.789,2.789,0,0,0,1.4-.055l.021,0a.223.223,0,0,0,.034-.009.389.389,0,0,0,.014-.092c.071-1.21.153-2.441.242-3.658a.161.161,0,0,0-.062-.162l-.37-.324a.552.552,0,0,1-.188-.425l0-.233a.553.553,0,0,1,.248-.452l.191-.126s.17-.076.148-.39c-.033-.491-.063-.99-.093-1.472-.041-.684-.083-1.391-.136-2.085a.265.265,0,0,0-.022-.03l-.1-.023a2.787,2.787,0,0,0-.919-.119l-.078.01a3.316,3.316,0,0,0-.466.077.056.056,0,0,0-.036.037,1.52,1.52,0,0,0-.031.311,3.513,3.513,0,0,1-.032.355c-.042.291-.084.582-.127.872-.11.753-.225,1.531-.326,2.3a.822.822,0,0,1-.3.588.753.753,0,0,1-.611.1c-.5-.1-1.33-.209-1.781-.267-1.187-.152-2.4-.3-3.445-.425a.913.913,0,0,1-.838-.844c-.144-.884-.309-1.832-.507-2.9-.119-.641-.244-1.293-.366-1.924-.13-.681-.266-1.385-.394-2.079-.178-.969-.355-1.954-.526-2.907q-.212-1.183-.427-2.365c-.008-.042-.015-.074-.021-.1a.054.054,0,0,0-.052-.042c-.036,0-.086,0-.158,0-.332.016-.667.025-.991.034l-.261.007-.083,0a.055.055,0,0,0-.05.049c0,.02,0,.045-.006.075l0,.071c-.042.753-.084,1.531-.11,2.295-.038,1.148-.072,2.316-.1,3.445q-.028.974-.057,1.949a.946.946,0,0,1-1.04,1.02h-.075c-.6.008-1.221.015-1.833,0-.025,0-.045,0-.061,0a.055.055,0,0,0-.049.04c0,.012-.007.028-.011.047a.785.785,0,0,1-.238.4.792.792,0,0,0-.056.062l-.159.205a.057.057,0,0,0,.006.077l.091.085c.012.01.036.029.058.045a.717.717,0,0,1,.3.37c0,.018.01.031.014.042a.056.056,0,0,0,.045.034.572.572,0,0,0,.08,0c.564-.014,1.135-.008,1.688,0l.19,0a.785.785,0,0,1,.65.26.8.8,0,0,1,.081.688c-.055.207-.124.407-.19.6-.053.154-.1.3-.146.448a.968.968,0,0,1-.89.748l-.538.057c-.758.079-1.542.16-2.292.3a15.242,15.242,0,0,0-1.79.5l-.125.041a.057.057,0,0,0,0,.108,10.882,10.882,0,0,0,1.264.414,19.034,19.034,0,0,0,3.488.467.844.844,0,0,1,.826.619c.053.168.112.34.17.506.073.213.15.433.216.657a.8.8,0,0,1-.069.708.809.809,0,0,1-.663.275l-.182,0c-.554.005-1.128.011-1.695,0a.316.316,0,0,0-.1.008.248.248,0,0,0-.028.066.81.81,0,0,1-.254.35c-.022.021-.043.039-.056.053l-.131.144a.057.057,0,0,0,0,.078l.125.129.054.055a2.059,2.059,0,0,1,.174.19.518.518,0,0,1,.1.311v.013a.137.137,0,0,0,0,.016h.088Zm-.082-1.4Zm-3.581-3.779h0Zm17.018-.9Zm-14.553-3.59h0Zm17.386-.123Z" transform="translate(-7652.969 1885.025)"/></g></g></g></svg>