<svg xmlns="http://www.w3.org/2000/svg" width="11.784" height="11.783" viewBox="0 0 11.784 11.783"><path d="M8.1,0H3.682A3.683,3.683,0,0,0,0,3.682V8.1a3.683,3.683,0,0,0,3.682,3.682H8.1A3.683,3.683,0,0,0,11.784,8.1V3.682A3.683,3.683,0,0,0,8.1,0Zm2.578,8.1A2.581,2.581,0,0,1,8.1,10.679H3.682A2.581,2.581,0,0,1,1.1,8.1V3.682A2.581,2.581,0,0,1,3.682,1.1H8.1a2.581,2.581,0,0,1,2.578,2.578Z" transform="translate(0 0)"/><g transform="translate(2.946 2.946)"><path d="M130.946,128a2.946,2.946,0,1,0,2.946,2.946A2.946,2.946,0,0,0,130.946,128Zm0,4.787a1.841,1.841,0,1,1,1.841-1.841A1.844,1.844,0,0,1,130.946,132.787Z" transform="translate(-128 -128)"/></g><g transform="translate(8.666 2.332)"><circle cx="0.393" cy="0.393" r="0.393"/></g></svg>