<svg id="Capa_1" data-name="Capa 1" xmlns="http://www.w3.org/2000/svg" xmlns:xlink="http://www.w3.org/1999/xlink" viewBox="0 0 713.41 714.46"><defs><style>.cls-1,.cls-2,.cls-3,.cls-5,.cls-6,.cls-9{fill:none;}.cls-2,.cls-3,.cls-5{stroke:#fff;}.cls-2{stroke-width:1.5px;stroke-dasharray:5 25;}.cls-3{stroke-width:0.5px;stroke-dasharray:12.07 12.07;}.cls-4{fill:#fff;}.cls-6,.cls-9{stroke:#35bbd7;}.cls-7{fill:#35bbd7;}.cls-8{clip-path:url(#clip-path);}.cls-9{stroke-linecap:round;stroke-width:4px;}</style><clipPath id="clip-path" transform="translate(0 0)"><path class="cls-1" d="M113.94,348.57l4.55-5.31A12,12,0,0,1,135.41,342h0a12,12,0,0,1,1.31,16.92l-4.55,5.32a12,12,0,0,1-16.92,1.3h0A12,12,0,0,1,113.94,348.57Z"/></clipPath></defs><title>Elipse3</title><g id="Elipse_1684" data-name="Elipse 1684"><ellipse class="cls-1" cx="360.37" cy="357.23" rx="353.04" ry="357.23"/><ellipse class="cls-2" cx="360.37" cy="357.23" rx="352.28" ry="356.47"/></g><g id="Elipse_1683" data-name="Elipse 1683"><circle class="cls-1" cx="390.33" cy="338.65" r="265.5"/><circle class="cls-3" cx="390.33" cy="338.65" r="265"/></g><g id="Elipse_5" data-name="Elipse 5"><circle id="Elipse_2" data-name="Elipse 2" class="cls-4" cx="156.42" cy="649.3" r="3.33"/><g id="Trazado_9333" data-name="Trazado 9333"><path class="cls-1" d="M152.32,643.22a7.33,7.33,0,1,1-1.92,10.19l0,0a7.31,7.31,0,0,1,2-10.16h-.05Z" transform="translate(0 0)"/><path class="cls-4" d="M152.88,644.05a6.33,6.33,0,1,0,8.79,1.71,6.34,6.34,0,0,0-8.79-1.71m-.56-.83a7.33,7.33,0,1,1-1.92,10.19l0,0a7.32,7.32,0,0,1,1.94-10.16Z" transform="translate(0 0)"/></g></g><g id="Elipse_4" data-name="Elipse 4"><circle id="Elipse_2-2" data-name="Elipse 2-2" class="cls-4" cx="45.58" cy="520.9" r="3.33"/><g id="Elipse_3" data-name="Elipse 3"><circle class="cls-1" cx="45.58" cy="520.9" r="7.33"/><circle class="cls-5" cx="45.58" cy="520.9" r="6.83"/></g></g><g id="Elipse_2-2-2" data-name="Elipse 2"><circle class="cls-1" cx="45.58" cy="197.73" r="7.33"/><circle class="cls-5" cx="45.58" cy="197.73" r="6.83"/><circle id="Elipse_2-3" data-name="Elipse 2-3" class="cls-4" cx="45.58" cy="197.73" r="3.33"/></g><g id="Elipse_1" data-name="Elipse 1"><circle class="cls-1" cx="159.75" cy="65.3" r="7.33"/><circle class="cls-5" cx="159.75" cy="65.3" r="6.83"/><circle id="Elipse_2-3-2" data-name="Elipse 2-3" class="cls-4" cx="159.75" cy="65.3" r="3.33"/></g><g id="Elipse_3_celeste" data-name="Elipse 3 celeste"><circle class="cls-1" cx="7.33" cy="357.23" r="7.33"/><circle class="cls-6" cx="7.33" cy="357.23" r="6.83"/><circle id="Elipse_2-6" data-name="Elipse 2-6" class="cls-7" cx="7.33" cy="357.23" r="3.33"/></g><g id="_3" data-name="3"><g class="cls-8"><g id="Line"><g id="Elipse_1591" data-name="Elipse 1591"><circle class="cls-1" cx="376.13" cy="337.78" r="252.48"/><circle class="cls-9" cx="376.13" cy="337.78" r="250.48"/></g></g></g></g></svg>