<svg id="emPy2vocaUL1" xmlns="http://www.w3.org/2000/svg" xmlns:xlink="http://www.w3.org/1999/xlink" viewBox="0 0 328.41003 714.46003" shape-rendering="geometricPrecision" text-rendering="geometricPrecision"><style><![CDATA[#emPy2vocaUL37_tr {animation: emPy2vocaUL37_tr__tr 3000ms linear 1 normal forwards}@keyframes emPy2vocaUL37_tr__tr { 0% {transform: translate(356.789519px,327.362472px) rotate(11.240777deg)} 3.333333% {transform: translate(356.789519px,327.362472px) rotate(11.240777deg)} 13.333333% {transform: translate(356.789519px,327.362472px) rotate(-7.934699deg)} 20% {transform: translate(356.789519px,327.362472px) rotate(-7.934699deg)} 30% {transform: translate(356.789519px,327.362472px) rotate(-32.873499deg)} 36.666667% {transform: translate(356.789519px,327.362472px) rotate(-32.873499deg)} 46.666667% {transform: translate(356.789519px,327.362472px) rotate(-57.536833deg)} 53.333333% {transform: translate(356.789519px,327.362472px) rotate(-57.536833deg)} 63.333333% {transform: translate(356.789519px,327.362472px) rotate(-85.962621deg)} 70% {transform: translate(356.789519px,327.362472px) rotate(-85.962621deg)} 80% {transform: translate(356.789519px,327.362472px) rotate(-113.240162deg)} 100% {transform: translate(356.789519px,327.362472px) rotate(-113.240162deg)}}]]></style><g><g><ellipse rx="353.04" ry="357.23" transform="translate(360.37 357.23)" fill="none"/><ellipse rx="352.28" ry="356.47" transform="translate(360.37 357.23)" fill="none" stroke="#fff" stroke-width="1.5" stroke-dasharray="5,25"/></g><g transform="translate(58.411 32.4551)"><circle r="3.33" transform="translate(156.42 649.3)" fill="#fff"/><g><path d="M152.32,643.22c3.343291-2.28168,7.903175-1.421559,10.185526,1.921274s1.423145,7.90289-1.91923,10.185911-7.902604,1.424731-10.186296-1.917185v0c-1.085298-1.611543-1.48439-3.588846-1.109127-5.495182s1.494004-3.584854,3.109127-4.664818h-.05Z" fill="none"/><path d="M152.88,644.05c-2.897539,1.955095-3.661929,5.888725-1.707441,8.786674s5.887957,3.663164,8.786316,1.709284s3.664397-5.88719,1.711125-8.785958c-1.957724-2.895511-5.889555-3.660406-8.79-1.71m-.56-.83c3.343291-2.28168,7.903175-1.421559,10.185526,1.921274s1.423145,7.90289-1.91923,10.185911-7.902604,1.424731-10.186296-1.917185v0c-2.266383-3.342048-1.398329-7.888144,1.94-10.16Z" fill="#fff"/></g></g><g transform="translate(-80.2659-80.1598)"><circle r="3.33" transform="translate(156.42 649.3)" fill="#fff"/><g><path d="M152.32,643.22c3.343291-2.28168,7.903175-1.421559,10.185526,1.921274s1.423145,7.90289-1.91923,10.185911-7.902604,1.424731-10.186296-1.917185v0c-1.085298-1.611543-1.48439-3.588846-1.109127-5.495182s1.494004-3.584854,3.109127-4.664818h-.05Z" fill="none"/><path d="M152.88,644.05c-2.897539,1.955095-3.661929,5.888725-1.707441,8.786674s5.887957,3.663164,8.786316,1.709284s3.664397-5.88719,1.711125-8.785958c-1.957724-2.895511-5.889555-3.660406-8.79-1.71m-.56-.83c3.343291-2.28168,7.903175-1.421559,10.185526,1.921274s1.423145,7.90289-1.91923,10.185911-7.902604,1.424731-10.186296-1.917185v0c-2.266383-3.342048-1.398329-7.888144,1.94-10.16Z" fill="#fff"/></g></g><g transform="translate(-35.0415-117.831)"><circle r="3.33" transform="translate(45.58 520.9)" fill="#fff"/><g><circle r="7.33" transform="translate(45.58 520.9)" fill="none"/><circle r="6.83" transform="translate(45.58 520.9)" fill="none" stroke="#fff"/></g></g><g transform="translate(15.5269-103.194)"><circle r="7.33" transform="translate(7.33 357.23)" fill="none"/><circle r="6.83" transform="translate(7.33 357.23)" fill="none" stroke="#fff"/><circle r="3.33" transform="translate(7.33 357.23)" fill="#fff"/></g><g transform="translate(48.5318-74.3038)"><circle r="7.33" transform="translate(45.58 197.73)" fill="none"/><circle r="6.83" transform="translate(45.58 197.73)" fill="none" stroke="#fff"/><circle r="3.33" transform="translate(45.58 197.73)" fill="#fff"/></g><g transform="translate(27.4049-17.4781)"><circle r="7.33" transform="translate(159.75 65.3)" fill="none"/><circle r="6.83" transform="translate(159.75 65.3)" fill="none" stroke="#35bbd7"/><circle r="3.33" transform="translate(159.75 65.3)" fill="#35bbd7"/></g></g><g transform="matrix(.992076 0.12564-.12564 0.992076 12.016-57.1776)"><g><circle r="265.5" transform="translate(390.33 338.65)" fill="none"/><circle r="265" transform="translate(390.33 338.65)" fill="none" stroke="#fff" stroke-width="0.5" stroke-dasharray="12.07,12.07"/></g></g><g id="emPy2vocaUL37_tr" transform="translate(356.789519,327.362472) rotate(11.240777)"><g transform="translate(-390.329987,-338.175003)"><g opacity="0"><circle r="265.5" transform="translate(390.33 338.65)" fill="none"/><circle r="265" transform="translate(390.33 338.65)" fill="none" stroke="#fff" stroke-width="0.5" stroke-dasharray="12.07,12.07"/></g><g><g clip-path="url(#emPy2vocaUL48)"><g><g><g><circle r="252.48" transform="translate(384.15 324.68)" fill="none"/><circle r="250.48" transform="translate(384.15 324.68)" fill="none" stroke="#35bbd7" stroke-width="4" stroke-linecap="round"/></g></g></g><clipPath id="emPy2vocaUL48"><path d="M205.38,132.58h7c6.627417,0,12,5.372583,12,12v0c0,6.627417-5.372583,12-12,12h-7c-6.627417,0-12-5.372583-12-12v0c0-6.627417,5.372583-12,12-12Z" fill="none"/></clipPath></g></g></g></g></svg>