<?xml version="1.0" encoding="utf-8"?>
<!-- Generator: Adobe Illustrator 23.0.1, SVG Export Plug-In . SVG Version: 6.00 Build 0)  -->
<svg version="1.1" id="Capa_1" xmlns="http://www.w3.org/2000/svg" xmlns:xlink="http://www.w3.org/1999/xlink" x="0px" y="0px"
	 viewBox="0 0 713.4 714.5" style="enable-background:new 0 0 713.4 714.5;" xml:space="preserve">
<style type="text/css">
	.st0{fill:none;}
	.st1{fill:none;stroke:#FFFFFF;stroke-width:1.5;stroke-dasharray:5,25;}
	.st2{fill:none;stroke:#FFFFFF;stroke-width:0.5;stroke-dasharray:12.07,12.07;}
	.st3{fill:#FFFFFF;}
	.st4{display:none;}
	.st5{display:inline;fill:#FFFFFF;}
	.st6{display:inline;}
	.st7{fill:none;stroke:#FFFFFF;}
	.st8{display:inline;fill:none;}
	.st9{display:inline;fill:none;stroke:#35BBD7;}
	.st10{display:inline;fill:#35BBD7;}
	.st11{fill:none;stroke:#35BBD7;}
	.st12{fill:#35BBD7;}
	.st13{display:inline;clip-path:url(#SVGID_2_);}
	.st14{fill:none;stroke:#35BBD7;stroke-width:4;stroke-linecap:round;}
	.st15{display:inline;clip-path:url(#SVGID_4_);}
	.st16{display:inline;clip-path:url(#SVGID_6_);}
	.st17{clip-path:url(#SVGID_8_);}
	.st18{display:inline;clip-path:url(#SVGID_10_);}
</style>
<title>Elipse</title>
<g id="Elipse_1684">
	<ellipse class="st0" cx="360.4" cy="357.2" rx="353" ry="357.2"/>
	<ellipse class="st1" cx="360.4" cy="357.2" rx="352.3" ry="356.5"/>
</g>
<g id="Elipse_1683">
	<circle class="st0" cx="390.3" cy="338.6" r="265.5"/>
	<circle class="st2" cx="390.3" cy="338.6" r="265"/>
</g>
<g id="Elipse_5">
	<circle id="Elipse_2" class="st3" cx="156.4" cy="649.3" r="3.3"/>
	<g id="Trazado_9333">
		<path class="st0" d="M152.3,643.2c3.3-2.3,7.9-1.4,10.2,1.9c2.3,3.3,1.4,7.9-1.9,10.2s-7.9,1.4-10.2-1.9c0,0,0,0,0,0
			C148.1,650,149,645.5,152.3,643.2C152.4,643.2,152.4,643.2,152.3,643.2L152.3,643.2z"/>
		<path class="st3" d="M152.9,644c-2.9,2-3.7,5.9-1.7,8.8c2,2.9,5.9,3.7,8.8,1.7c2.9-2,3.7-5.9,1.7-8.8
			C159.7,642.9,155.8,642.1,152.9,644 M152.3,643.2c3.3-2.3,7.9-1.4,10.2,1.9c2.3,3.3,1.4,7.9-1.9,10.2c-3.3,2.3-7.9,1.4-10.2-1.9
			c0,0,0,0,0,0C148.1,650,149,645.5,152.3,643.2L152.3,643.2z"/>
	</g>
</g>
<g id="Elipse_4" class="st4">
	<circle id="Elipse_2-2" class="st5" cx="45.6" cy="520.9" r="3.3"/>
	<g id="Elipse_3" class="st6">
		<circle class="st0" cx="45.6" cy="520.9" r="7.3"/>
		<circle class="st7" cx="45.6" cy="520.9" r="6.8"/>
	</g>
</g>
<g id="Elipse_3_1_">
	<circle class="st0" cx="7.3" cy="357.2" r="7.3"/>
	<circle class="st7" cx="7.3" cy="357.2" r="6.8"/>
	<circle id="Elipse_2-5" class="st3" cx="7.3" cy="357.2" r="3.3"/>
</g>
<g id="Elipse_2_1_">
	<circle class="st0" cx="45.6" cy="197.7" r="7.3"/>
	<circle class="st7" cx="45.6" cy="197.7" r="6.8"/>
	<circle id="Elipse_2-3" class="st3" cx="45.6" cy="197.7" r="3.3"/>
</g>
<g id="Elipse_1">
	<circle class="st0" cx="159.8" cy="65.3" r="7.3"/>
	<circle class="st7" cx="159.8" cy="65.3" r="6.8"/>
	<circle id="Elipse_2-3_1_" class="st3" cx="159.8" cy="65.3" r="3.3"/>
</g>
<g id="Elipse_1_celeste" class="st4">
	<circle class="st8" cx="159.8" cy="65.3" r="7.3"/>
	<circle class="st9" cx="159.8" cy="65.3" r="6.8"/>
	<circle id="Elipse_2-6" class="st10" cx="159.8" cy="65.3" r="3.3"/>
</g>
<g id="Elipse_2_celeste" class="st4">
	<circle class="st8" cx="45.6" cy="197.7" r="7.3"/>
	<circle class="st9" cx="45.6" cy="197.7" r="6.8"/>
	<circle id="Elipse_2-6_1_" class="st10" cx="45.6" cy="197.7" r="3.3"/>
</g>
<g id="Elipse_3_celeste" class="st4">
	<circle class="st8" cx="7.3" cy="357.2" r="7.3"/>
	<circle class="st9" cx="7.3" cy="357.2" r="6.8"/>
	<circle id="Elipse_2-6_2_" class="st10" cx="7.3" cy="357.2" r="3.3"/>
</g>
<g id="Elipse_4_celeste">
	<circle class="st0" cx="45.6" cy="520.9" r="7.3"/>
	<circle class="st11" cx="45.6" cy="520.9" r="6.8"/>
	<circle id="Elipse_2-6_3_" class="st12" cx="45.6" cy="520.9" r="3.3"/>
</g>
<g id="Elipse_5_celeste" class="st4">
	<circle class="st8" cx="156.4" cy="649.3" r="7.3"/>
	<circle class="st9" cx="156.4" cy="649.3" r="6.8"/>
	<circle id="Elipse_2-6_4_" class="st10" cx="156.4" cy="649.3" r="3.3"/>
</g>
<g id="_x31_" class="st4">
	<defs>
		<path id="SVGID_1_" d="M205.4,132.6h7c6.6,0,12,5.4,12,12l0,0c0,6.6-5.4,12-12,12h-7c-6.6,0-12-5.4-12-12l0,0
			C193.4,138,198.8,132.6,205.4,132.6z"/>
	</defs>
	<clipPath id="SVGID_2_" class="st6">
		<use xlink:href="#SVGID_1_"  style="overflow:visible;"/>
	</clipPath>
	<g class="st13">
		<g id="Line">
			<g id="Elipse_1591">
				<circle class="st0" cx="384.1" cy="324.7" r="252.5"/>
				<circle class="st14" cx="384.1" cy="324.7" r="250.5"/>
			</g>
		</g>
	</g>
</g>
<g id="_x32_" class="st4">
	<defs>
		<path id="SVGID_3_" d="M140.4,218.8l6.5-2.5c6.2-2.4,13.1,0.7,15.5,6.9l0,0c2.4,6.2-0.7,13.1-6.9,15.5l-6.5,2.5
			c-6.2,2.4-13.1-0.7-15.5-6.9l0,0C131.1,228.1,134.2,221.1,140.4,218.8z"/>
	</defs>
	<clipPath id="SVGID_4_" class="st6">
		<use xlink:href="#SVGID_3_"  style="overflow:visible;"/>
	</clipPath>
	<g class="st15">
		<g id="Line_1_">
			<g id="Elipse_1591_1_">
				<circle class="st0" cx="376" cy="334.2" r="252.5"/>
				<circle class="st14" cx="376" cy="334.2" r="250.5"/>
			</g>
		</g>
	</g>
</g>
<g id="_x33_" class="st4">
	<defs>
		<path id="SVGID_5_" d="M113.9,348.6l4.6-5.3c4.3-5,11.9-5.6,16.9-1.3l0,0c5,4.3,5.6,11.9,1.3,16.9l-4.6,5.3
			c-4.3,5-11.9,5.6-16.9,1.3l0,0C110.2,361.2,109.6,353.6,113.9,348.6z"/>
	</defs>
	<clipPath id="SVGID_6_" class="st6">
		<use xlink:href="#SVGID_5_"  style="overflow:visible;"/>
	</clipPath>
	<g class="st16">
		<g id="Line_2_">
			<g id="Elipse_1591_2_">
				<circle class="st0" cx="376.1" cy="337.8" r="252.5"/>
				<circle class="st14" cx="376.1" cy="337.8" r="250.5"/>
			</g>
		</g>
	</g>
</g>
<g id="_x34_">
	<defs>
		<path id="SVGID_7_" d="M143.2,463.6l1.9-6.7c1.8-6.4,8.4-10.1,14.8-8.4l0,0c6.4,1.8,10.1,8.4,8.4,14.8l-1.9,6.7
			c-1.8,6.4-8.4,10.1-14.8,8.4l0,0C145.1,476.6,141.4,470,143.2,463.6z"/>
	</defs>
	<clipPath id="SVGID_8_">
		<use xlink:href="#SVGID_7_"  style="overflow:visible;"/>
	</clipPath>
	<g class="st17">
		<g id="Line_3_">
			<g id="Elipse_1591_3_">
				<circle class="st0" cx="376" cy="342.6" r="252.5"/>
				<circle class="st14" cx="376" cy="342.6" r="250.5"/>
			</g>
		</g>
	</g>
</g>
<g id="_x35_" class="st4">
	<defs>
		<path id="SVGID_9_" d="M210.3,549.3l-0.9-6.9c-0.8-6.6,3.8-12.6,10.4-13.4l0,0c6.6-0.8,12.6,3.8,13.4,10.4l0.9,6.9
			c0.8,6.6-3.8,12.6-10.4,13.4l0,0C217.1,560.5,211.1,555.9,210.3,549.3z"/>
	</defs>
	<clipPath id="SVGID_10_" class="st6">
		<use xlink:href="#SVGID_9_"  style="overflow:visible;"/>
	</clipPath>
	<g class="st18">
		<g id="Line_4_">
			<g id="Elipse_1591_4_">
				<circle class="st0" cx="378.5" cy="347.9" r="252.5"/>
				<circle class="st14" cx="378.5" cy="347.9" r="250.5"/>
			</g>
		</g>
	</g>
</g>
</svg>
