<svg xmlns="http://www.w3.org/2000/svg" width="143" height="640" viewBox="0 0 143 640"><defs><style>.a{opacity:0.2;}.b{fill:#0c192a;}.c{opacity:0;}.d{fill:#35bbd7;fill-rule:evenodd;}</style></defs><g class="a"><rect class="b" width="143" height="640"/><g class="c" transform="translate(37 14.422)"><path class="d" d="M465.948,302.529c10.494-21.119,22.543-11.283,35.4-27.327-1.638,5.957-4.124,8.351-9.729,10.663-9.377,3.87-17.816,1.737-25.667,16.664Z" transform="translate(-462.448 -275.202)"/><path class="d" d="M461.47,312.787c11.3-31.041,24.649-14.968,39-31.036-2.7,9.479-10,11.354-14.953,13.522,5.22-.533,8.7-2.6,12.251-4.555-3.337,6.8-10.029,8.594-13.12,9.65,3.341.1,5.858-.888,8.6-2-8.025,12.275-16.657,3.886-31.774,14.422Z" transform="translate(-461.47 -276.632)"/></g></g></svg>