<svg xmlns="http://www.w3.org/2000/svg" width="11.149" height="11.172" viewBox="0 0 11.149 11.172"><defs><style>.a{fill:#fff;}</style></defs><g transform="translate(-0.539)"><g transform="translate(0.539 0)"><path class="a" d="M11.4,8.2,9.836,6.64a1.037,1.037,0,0,0-1.726.39A1.061,1.061,0,0,1,6.885,7.7a4.808,4.808,0,0,1-2.9-2.9,1.009,1.009,0,0,1,.668-1.225,1.037,1.037,0,0,0,.39-1.726L3.489.292a1.112,1.112,0,0,0-1.5,0L.927,1.35c-1.058,1.114.111,4.065,2.728,6.682s5.568,3.842,6.682,2.728L11.4,9.7A1.112,1.112,0,0,0,11.4,8.2Z" transform="translate(-0.539 0)"/></g></g></svg>