<svg xmlns="http://www.w3.org/2000/svg" width="6.064" height="12.004" viewBox="0 0 6.064 12.004"><defs><style>.a{fill:#fff;}</style></defs><path class="a" d="M76.9,6.393h1.316V11.81a.194.194,0,0,0,.194.194h2.231a.194.194,0,0,0,.194-.194V6.419h1.513a.194.194,0,0,0,.192-.172l.23-1.994a.194.194,0,0,0-.192-.216H80.831V2.787c0-.377.2-.568.6-.568h1.139a.194.194,0,0,0,.194-.194V.2A.194.194,0,0,0,82.573,0H80.931a3.009,3.009,0,0,0-1.967.742,2.063,2.063,0,0,0-.686,1.834V4.037H76.9a.194.194,0,0,0-.194.194V6.2A.194.194,0,0,0,76.9,6.393Z" transform="translate(-76.703)"/></svg>