<svg xmlns="http://www.w3.org/2000/svg" width="50.634" height="23.674" viewBox="0 0 50.634 23.674"><defs><style>.a{fill:#35bbd7;}</style></defs><path class="a" d="M2307.634,830.638a4.983,4.983,0,0,1-2.253,3.532,7.274,7.274,0,0,1-4.108,1.232c-8.141.131-16.283.224-24.425.342-1.482.022-2.963.137-4.445.127-.6,0-.786.235-.9.747a26.541,26.541,0,0,1-3.269,8.184,23.891,23.891,0,0,1-10.431,9.236c-.179.084-.378.129-.8.271.254-.471.384-.747.544-1a97.74,97.74,0,0,0,8.945-18.109,22.724,22.724,0,0,0,.859-3.256c.1-.5.29-.671.786-.677,1.779-.022,3.557-.1,5.336-.119,5.662-.074,11.324-.117,16.985-.2,5.338-.081,10.675-.2,16.012-.3C2306.812,830.632,2307.157,830.638,2307.634,830.638Z" transform="translate(-2257 -830.635)"/></svg>