<svg xmlns="http://www.w3.org/2000/svg" width="22.559" height="4.996" viewBox="0 0 22.559 4.996"><defs><style>.a{fill:#35bbd7;}</style></defs><path class="a" d="M2284.625,848.374c.346-1.257.615-2.445,1.008-3.59a1.718,1.718,0,0,1,1.619-1.024c.963-.089,1.932-.143,2.9-.155q7.961-.1,15.923-.162c.347,0,.694,0,1.01,0,.054.111.111.172.1.2-.976,2.14-3.152,4.487-6.247,4.44-3.409-.052-6.822.187-10.233.279-1.745.047-3.49.054-5.235.075C2285.258,848.44,2285.05,848.408,2284.625,848.374Z" transform="translate(-2284.625 -843.441)"/></svg>