<?xml version="1.0" encoding="UTF-8" standalone="no"?>
<svg
   xmlns:dc="http://purl.org/dc/elements/1.1/"
   xmlns:cc="http://creativecommons.org/ns#"
   xmlns:rdf="http://www.w3.org/1999/02/22-rdf-syntax-ns#"
   xmlns:svg="http://www.w3.org/2000/svg"
   xmlns="http://www.w3.org/2000/svg"
   xmlns:sodipodi="http://sodipodi.sourceforge.net/DTD/sodipodi-0.dtd"
   xmlns:inkscape="http://www.inkscape.org/namespaces/inkscape"
   width="30.239"
   height="30.24"
   viewBox="0 0 30.239 30.24"
   version="1.1"
   id="svg12"
   sodipodi:docname="envelope-light.svg"
   inkscape:version="0.92.3 (2405546, 2018-03-11)">
  <metadata
     id="metadata16">
    <rdf:RDF>
      <cc:Work
         rdf:about="">
        <dc:format>image/svg+xml</dc:format>
        <dc:type
           rdf:resource="http://purl.org/dc/dcmitype/StillImage" />
        <dc:title></dc:title>
      </cc:Work>
    </rdf:RDF>
  </metadata>
  <sodipodi:namedview
     pagecolor="#ffffff"
     bordercolor="#666666"
     borderopacity="1"
     objecttolerance="10"
     gridtolerance="10"
     guidetolerance="10"
     inkscape:pageopacity="0"
     inkscape:pageshadow="2"
     inkscape:window-width="1366"
     inkscape:window-height="717"
     id="namedview14"
     showgrid="false"
     inkscape:zoom="22.073704"
     inkscape:cx="9.1610606"
     inkscape:cy="11.313005"
     inkscape:window-x="0"
     inkscape:window-y="26"
     inkscape:window-maximized="1"
     inkscape:current-layer="svg12" />
  <defs
     id="defs4">
    <style
       id="style2">.a,.c{fill:none;}.a{stroke:#000;}.b{stroke:none;}</style>
  </defs>
  <g
     class="a"
     id="g10"
     style="fill:none;stroke:#000000">
    <rect
       class="b"
       width="30.239"
       height="30.239"
       rx="15.12"
       id="rect6"
       x="0"
       y="0"
       style="stroke:none" />
    <rect
       class="c"
       x="0.5"
       y="0.5"
       width="29.239"
       height="29.239"
       rx="14.62"
       id="rect8"
       style="fill:none;stroke:#ffffff;stroke-opacity:1" />
  </g>
  <g
     id="g985"
     transform="translate(12.351461,9.7059999)">
    <g
       id="g983"
       transform="translate(-2.877,1.393)">
      <path
         id="path975"
         transform="translate(-152.084,-48.035)"
         d="m 163.366,48.844 c 0,-0.013 0.009,-0.025 0.008,-0.038 l -3.446,3.32 3.442,3.214 c 0,-0.023 0,-0.046 0,-0.07 v -6.426 z"
         inkscape:connector-curvature="0"
         style="fill:#ffffff;fill-opacity:1" />
      <path
         id="path977"
         transform="translate(-10.47,-122.299)"
         d="m 17.789,126.9 -1.407,1.353 a 0.368,0.368 0 0 1 -0.506,0 l -1.4,-1.307 -3.466,3.344 a 0.8,0.8 0 0 0 0.269,0.054 h 9.7 a 0.8,0.8 0 0 0 0.387,-0.107 z"
         inkscape:connector-curvature="0"
         style="fill:#ffffff;fill-opacity:1" />
      <path
         id="path979"
         transform="translate(-5.829,-33.085)"
         d="M 11.483,38.269 16.741,33.2 a 0.8,0.8 0 0 0 -0.406,-0.118 h -9.7 a 0.8,0.8 0 0 0 -0.509,0.19 z"
         inkscape:connector-curvature="0"
         style="fill:#ffffff;fill-opacity:1" />
      <path
         id="path981"
         transform="translate(0,-51.167)"
         d="m 0,52.1 v 6.3 a 0.8,0.8 0 0 0 0.035,0.209 l 3.421,-3.294 z"
         inkscape:connector-curvature="0"
         style="fill:#ffffff;fill-opacity:1" />
    </g>
  </g>
</svg>
