<?xml version="1.0" encoding="UTF-8" standalone="no"?>
<svg
   xmlns:dc="http://purl.org/dc/elements/1.1/"
   xmlns:cc="http://creativecommons.org/ns#"
   xmlns:rdf="http://www.w3.org/1999/02/22-rdf-syntax-ns#"
   xmlns:svg="http://www.w3.org/2000/svg"
   xmlns="http://www.w3.org/2000/svg"
   xmlns:sodipodi="http://sodipodi.sourceforge.net/DTD/sodipodi-0.dtd"
   xmlns:inkscape="http://www.inkscape.org/namespaces/inkscape"
   width="30.239"
   height="30.24"
   viewBox="0 0 30.239 30.24"
   version="1.1"
   id="svg12"
   sodipodi:docname="fb-dark.svg"
   inkscape:version="0.92.3 (2405546, 2018-03-11)">
  <metadata
     id="metadata16">
    <rdf:RDF>
      <cc:Work
         rdf:about="">
        <dc:format>image/svg+xml</dc:format>
        <dc:type
           rdf:resource="http://purl.org/dc/dcmitype/StillImage" />
        <dc:title></dc:title>
      </cc:Work>
    </rdf:RDF>
  </metadata>
  <sodipodi:namedview
     pagecolor="#ffffff"
     bordercolor="#666666"
     borderopacity="1"
     objecttolerance="10"
     gridtolerance="10"
     guidetolerance="10"
     inkscape:pageopacity="0"
     inkscape:pageshadow="2"
     inkscape:window-width="1366"
     inkscape:window-height="717"
     id="namedview14"
     showgrid="false"
     inkscape:zoom="7.8042329"
     inkscape:cx="-0.064567521"
     inkscape:cy="15.12"
     inkscape:window-x="0"
     inkscape:window-y="26"
     inkscape:window-maximized="1"
     inkscape:current-layer="svg12" />
  <defs
     id="defs4">
    <style
       id="style2">.a,.c{fill:none;}.a{stroke:#000;}.b{stroke:none;}</style>
  </defs>
  <g
     class="a"
     id="g10">
    <rect
       class="b"
       width="30.239"
       height="30.239"
       rx="15.12"
       id="rect6" />
    <rect
       class="c"
       x="0.5"
       y="0.5"
       width="29.239"
       height="29.239"
       rx="14.62"
       id="rect8" />
  </g>
  <path
     id="path885"
     d="m 12.280874,15.511 h 1.316 v 5.417 a 0.194,0.194 0 0 0 0.194,0.194 h 2.231 a 0.194,0.194 0 0 0 0.194,-0.194 v -5.391 h 1.513 a 0.194,0.194 0 0 0 0.192,-0.172 l 0.23,-1.994 a 0.194,0.194 0 0 0 -0.192,-0.216 h -1.747 v -1.25 c 0,-0.377 0.2,-0.568 0.6,-0.568 h 1.139 a 0.194,0.194 0 0 0 0.194,-0.194 V 9.3179997 a 0.194,0.194 0 0 0 -0.191,-0.2 h -1.642 a 3.009,3.009 0 0 0 -1.967,0.742 2.063,2.063 0 0 0 -0.686,1.8340003 v 1.461 h -1.378 a 0.194,0.194 0 0 0 -0.194,0.194 v 1.969 a 0.194,0.194 0 0 0 0.194,0.193 z"
     inkscape:connector-curvature="0" />
</svg>
