<?xml version="1.0" encoding="UTF-8" standalone="no"?>
<svg
   xmlns:dc="http://purl.org/dc/elements/1.1/"
   xmlns:cc="http://creativecommons.org/ns#"
   xmlns:rdf="http://www.w3.org/1999/02/22-rdf-syntax-ns#"
   xmlns:svg="http://www.w3.org/2000/svg"
   xmlns="http://www.w3.org/2000/svg"
   xmlns:sodipodi="http://sodipodi.sourceforge.net/DTD/sodipodi-0.dtd"
   xmlns:inkscape="http://www.inkscape.org/namespaces/inkscape"
   width="30.239"
   height="30.24"
   viewBox="0 0 30.239 30.24"
   version="1.1"
   id="svg12"
   sodipodi:docname="ig-light.svg"
   inkscape:version="0.92.3 (2405546, 2018-03-11)">
  <metadata
     id="metadata16">
    <rdf:RDF>
      <cc:Work
         rdf:about="">
        <dc:format>image/svg+xml</dc:format>
        <dc:type
           rdf:resource="http://purl.org/dc/dcmitype/StillImage" />
        <dc:title></dc:title>
      </cc:Work>
    </rdf:RDF>
  </metadata>
  <sodipodi:namedview
     pagecolor="#ffffff"
     bordercolor="#666666"
     borderopacity="1"
     objecttolerance="10"
     gridtolerance="10"
     guidetolerance="10"
     inkscape:pageopacity="0"
     inkscape:pageshadow="2"
     inkscape:window-width="1366"
     inkscape:window-height="717"
     id="namedview14"
     showgrid="false"
     inkscape:zoom="5.518426"
     inkscape:cx="-0.41392981"
     inkscape:cy="-8.8563784"
     inkscape:window-x="0"
     inkscape:window-y="26"
     inkscape:window-maximized="1"
     inkscape:current-layer="svg12" />
  <defs
     id="defs4">
    <style
       id="style2">.a,.c{fill:none;}.a{stroke:#000;}.b{stroke:none;}</style>
  </defs>
  <g
     class="a"
     id="g10"
     style="fill:none;stroke:#000000">
    <rect
       class="b"
       width="30.239"
       height="30.239"
       rx="15.12"
       id="rect6"
       x="0"
       y="0"
       style="stroke:none" />
    <rect
       class="c"
       x="0.5"
       y="0.5"
       width="29.239"
       height="29.239"
       rx="14.62"
       id="rect8"
       style="fill:none;stroke:#ffffff;stroke-opacity:1" />
  </g>
  <g
     id="g846"
     transform="translate(9.2275002,9.2289999)">
    <path
       id="path823"
       d="M 8.1,0 H 3.682 A 3.683,3.683 0 0 0 0,3.682 V 8.1 a 3.683,3.683 0 0 0 3.682,3.682 H 8.1 A 3.683,3.683 0 0 0 11.784,8.1 V 3.682 A 3.683,3.683 0 0 0 8.1,0 Z m 2.578,8.1 A 2.581,2.581 0 0 1 8.1,10.679 H 3.682 A 2.581,2.581 0 0 1 1.1,8.1 V 3.682 A 2.581,2.581 0 0 1 3.682,1.1 H 8.1 a 2.581,2.581 0 0 1 2.578,2.578 z"
       inkscape:connector-curvature="0"
       style="fill:#ffffff;fill-opacity:1" />
    <g
       id="g827"
       transform="translate(2.946,2.946)">
      <path
         id="path825"
         transform="translate(-128,-128)"
         d="m 130.946,128 a 2.946,2.946 0 1 0 2.946,2.946 2.946,2.946 0 0 0 -2.946,-2.946 z m 0,4.787 a 1.841,1.841 0 1 1 1.841,-1.841 1.844,1.844 0 0 1 -1.841,1.841 z"
         inkscape:connector-curvature="0"
         style="fill:#ffffff;fill-opacity:1" />
    </g>
    <g
       id="g831"
       transform="translate(8.666,2.332)">
      <circle
         id="circle829"
         r="0.39300001"
         cy="0.39300001"
         cx="0.39300001"
         style="fill:#ffffff;fill-opacity:1" />
    </g>
  </g>
</svg>
