<svg xmlns="http://www.w3.org/2000/svg" width="30.645" height="30.645" viewBox="0 0 30.645 30.645"><defs><style>.a{fill:#fff;}</style></defs><g transform="translate(14.708 27.908)"><path class="a" d="M246.751,466.445a.6.6,0,1,0,.175.423A.6.6,0,0,0,246.751,466.445Z" transform="translate(-245.729 -466.27)"/></g><path class="a" d="M23.462,0H7.183a1.8,1.8,0,0,0-1.8,1.8v.239H1.8A1.8,1.8,0,0,0,0,3.83V9.336a1.8,1.8,0,0,0,1.8,1.8H7.3a1.8,1.8,0,0,0,1.8-1.8V4.429H19.153a.6.6,0,1,0,0-1.2H8.995A1.8,1.8,0,0,0,7.3,2.034H6.584V1.8a.6.6,0,0,1,.6-.6H23.462a.6.6,0,0,1,.6.6V15.322a.6.6,0,0,0,1.2,0V1.8A1.8,1.8,0,0,0,23.462,0ZM7.9,9.336a.6.6,0,0,1-.6.6H1.8a.6.6,0,0,1-.6-.6V9.119a.6.6,0,0,0,.094-.077l1.9-1.9L4.515,8.473a.6.6,0,0,0,.847,0L7.9,5.934ZM7.3,3.231a.6.6,0,0,1,.6.6v.411L4.938,7.2,3.61,5.876a.6.6,0,0,0-.847,0L1.2,7.443V3.83a.6.6,0,0,1,.6-.6Z"/><g transform="translate(5.387 12.809)"><path class="a" d="M113.468,218.549H107a1.8,1.8,0,0,0-1.8,1.8v6.464a1.8,1.8,0,0,0,1.8,1.8h1.676v1.436a.6.6,0,0,1-.6.6H91.8a.6.6,0,0,1-.6-.6V228.6h12.65a.6.6,0,1,0,0-1.2H91.2V214.6a.6.6,0,1,0-1.2,0v15.442a1.8,1.8,0,0,0,1.8,1.8h16.279a1.8,1.8,0,0,0,1.8-1.8V228.6h3.592a1.8,1.8,0,0,0,1.8-1.8v-6.464A1.8,1.8,0,0,0,113.468,218.549Zm.6,8.26a.6.6,0,0,1-.6.6H107a.6.6,0,0,1-.6-.6v-6.464a.6.6,0,0,1,.6-.6h6.464a.6.6,0,0,1,.6.6Z" transform="translate(-90.006 -214)"/></g><g transform="translate(23.431 19.87)"><path class="a" d="M395.526,333.371l-2.1-1.212a1.3,1.3,0,0,0-1.951,1.127v2.423a1.3,1.3,0,0,0,1.951,1.127l2.1-1.211a1.3,1.3,0,0,0,0-2.255Zm-.6,1.218-2.1,1.211a.1.1,0,0,1-.156-.09v-2.423a.1.1,0,0,1,.052-.09.1.1,0,0,1,.1,0l2.1,1.212a.1.1,0,0,1,0,.181Z" transform="translate(-391.474 -331.982)"/></g></svg>