<svg xmlns="http://www.w3.org/2000/svg" width="34.692" height="30.645" viewBox="0 0 34.692 30.645"><defs><style>.a{fill:#fff;}</style></defs><path class="a" d="M134.439,108a2.315,2.315,0,0,0-2.313,2.313v2.5l-5.418,2.168a.578.578,0,0,0-.364.537v1.735a.578.578,0,0,0,.578.578h5.2v1.986l-2.611,1.566a.579.579,0,0,0-.28.5v.781l0,0,.041.215v1.295l1.08-.087v0l4.089-1.022,4.047,1.012V126.5a.578.578,0,0,0,.578.578h6.36A.578.578,0,0,0,146,126.5v-3.469h-1.156v2.891h-5.2V121.3h2.891v-1.156h-3.469a.578.578,0,0,0-.578.578v.135l-1.735-1.041V117.83h5.2a.578.578,0,0,0,.578-.578v-1.735a.579.579,0,0,0-.364-.537l-5.418-2.167v-2.5A2.315,2.315,0,0,0,134.439,108Zm6.938,7.908v.765h-5.2a.578.578,0,0,0-.578.578v2.891a.579.579,0,0,0,.28.5l2.611,1.566v.667l-3.907-.977a.573.573,0,0,0-.28,0l-3.908.977V122.2L133,120.638a.579.579,0,0,0,.28-.5v-2.891a.578.578,0,0,0-.578-.578h-5.2v-.765l5.418-2.168a.578.578,0,0,0,.364-.537v-2.891a1.156,1.156,0,0,1,2.313,0V113.2a.579.579,0,0,0,.364.537Z" transform="translate(-117.212 -100.194)"/><g transform="translate(23.178 20.118)"><path class="a" d="M325.314,278.344l-3.06,3.06-.748-.748-.818.818,1.156,1.156a.578.578,0,0,0,.818,0l3.469-3.469Z" transform="translate(-320.688 -278.344)"/></g><path class="a" d="M34.367,1.767a2.786,2.786,0,0,0-.381-.491q-.056-.058-.115-.113-.119-.111-.253-.214A4.1,4.1,0,0,0,32.87.494a4.789,4.789,0,0,0-.519-.209q-.09-.031-.183-.058-.185-.055-.379-.1-.1-.021-.2-.039-.2-.036-.4-.058A5.893,5.893,0,0,0,30.562,0H4.13A5.893,5.893,0,0,0,3.5.033q-.2.022-.4.058Q3,.109,2.9.13q-.194.042-.379.1-.093.028-.183.058a4.788,4.788,0,0,0-.519.209,4.1,4.1,0,0,0-.748.454q-.133.1-.253.214-.06.056-.115.113a2.786,2.786,0,0,0-.381.491A2.157,2.157,0,0,0,0,2.891V27.754c0,1.594,1.853,2.891,4.13,2.891H30.562c2.277,0,4.13-1.3,4.13-2.891V2.891A2.157,2.157,0,0,0,34.367,1.767Zm-1.327,1.7V27.754c0,.956-1.112,1.735-2.478,1.735H4.13c-1.366,0-2.478-.778-2.478-1.735V2.891c0-.956,1.112-1.735,2.478-1.735H30.562c1.366,0,2.478.778,2.478,1.735Z" transform="translate(0 0)"/><rect class="a" width="31.388" height="0.99" transform="translate(1.652 4.264)"/></svg>