<svg xmlns="http://www.w3.org/2000/svg" width="37.699" height="35.86" viewBox="0 0 37.699 35.86"><defs><style>.a{fill:#fcfcfc;}</style></defs><g transform="translate(0 0)"><path class="a" d="M33.186,24.4H2.516A2.519,2.519,0,0,0,0,26.916V52.474A2.518,2.518,0,0,0,2.516,54.99H22.6a.6.6,0,0,0,0-1.2H20.366V49.918A2.509,2.509,0,0,0,18.818,47.6l-3.146-1.311a.677.677,0,0,1-.418-.627v-.935a4.448,4.448,0,0,0,1.278-3.112V39.056c0-2.092-1.988-3.794-4.433-3.794s-4.433,1.7-4.433,3.794v2.556a4.448,4.448,0,0,0,1.278,3.112v.935a.678.678,0,0,1-.418.627L5.382,47.6a2.509,2.509,0,0,0-1.548,2.322v3.874H2.516A1.32,1.32,0,0,1,1.2,52.474V31.987H34.5v9.944a.6.6,0,1,0,1.2,0V26.916A2.518,2.518,0,0,0,33.186,24.4ZM5.031,49.918A1.315,1.315,0,0,1,5.842,48.7l3.146-1.311a1.872,1.872,0,0,0,1.155-1.732v-.13a.6.6,0,0,0,.339-1.115,3.248,3.248,0,0,1-1.617-2.8V39.056c0-1.431,1.451-2.6,3.235-2.6s3.235,1.165,3.235,2.6v2.556a3.248,3.248,0,0,1-1.618,2.8.6.6,0,0,0,.3,1.117l.04,0v.13a1.872,1.872,0,0,0,1.155,1.732L18.358,48.7a1.315,1.315,0,0,1,.811,1.217v3.874H5.031ZM34.5,30.79H1.2V26.916A1.32,1.32,0,0,1,2.516,25.6h30.67A1.32,1.32,0,0,1,34.5,26.916Z" transform="translate(0 -24.4)"/></g><g transform="translate(3.872 3.195)"><g transform="translate(0 0)"><path class="a" d="M49.107,64.418H49.1a.6.6,0,1,0,.006,0Z" transform="translate(-48.505 -64.418)"/></g></g><g transform="translate(7.7 3.195)"><g transform="translate(0 0)"><path class="a" d="M97.048,64.418h-.006a.6.6,0,1,0,.006,0Z" transform="translate(-96.446 -64.418)"/></g></g><g transform="translate(5.783 3.195)"><g transform="translate(0 0)"><path class="a" d="M73.036,64.418H73.03a.6.6,0,1,0,.006,0Z" transform="translate(-72.434 -64.418)"/></g></g><g transform="translate(21.045 11.541)"><g transform="translate(0 0)"><path class="a" d="M271.878,168.966h-7.667a.6.6,0,0,0,0,1.2h7.667a.6.6,0,0,0,0-1.2Z" transform="translate(-263.612 -168.966)"/></g></g><g transform="translate(21.045 15.295)"><path class="a" d="M268.684,215.981h-4.473a.6.6,0,1,0,0,1.2h4.473a.6.6,0,1,0,0-1.2Z" transform="translate(-263.612 -215.981)"/></g><path class="a" d="M308.7,258.12a.694.694,0,0,0-.543-.678l-6.4-1.426a.7.7,0,0,0-.3,0l-6.4,1.426a.695.695,0,0,0,.3,1.356l6.248-1.393,5.7,1.272v3.97a10.363,10.363,0,0,1-5.7,9.256,10.367,10.367,0,0,1-5.672-8.431c-.012-.153-.021-.308-.026-.46a.695.695,0,1,0-1.389.048c.006.173.016.348.029.522a11.755,11.755,0,0,0,6.765,9.724.694.694,0,0,0,.584,0,11.752,11.752,0,0,0,6.8-10.658V258.12Z" transform="translate(-270.999 -237.509)"/><path class="a" d="M340.708,324.689a.694.694,0,0,0,.484.244l.046,0a.7.7,0,0,0,.466-.179l5.036-4.557a.695.695,0,1,0-.932-1.03l-4.5,4.074-1.285-1.52a.695.695,0,0,0-1.061.9Z" transform="translate(-311.747 -295.471)"/><path class="a" d="M294.841,305.879a.695.695,0,1,0-.26-.833A.7.7,0,0,0,294.841,305.879Z" transform="translate(-271.019 -282.236)"/></svg>