<svg xmlns="http://www.w3.org/2000/svg" width="42.285" height="30.645" viewBox="0 0 42.285 30.645"><defs><style>.a{fill:#fff;}</style></defs><path class="a" d="M41.657,95.465H39.442V73.007a2.535,2.535,0,0,0-2.535-2.535H5.179a2.535,2.535,0,0,0-2.535,2.535V95.465H.628A.628.628,0,0,0,0,96.093V97.48a3.637,3.637,0,0,0,3.637,3.637H27.3a.628.628,0,1,0,0-1.256H3.637A2.381,2.381,0,0,1,1.256,97.48v-.759h14.8a2.242,2.242,0,0,0,2.238,2.2h5.694a2.242,2.242,0,0,0,2.238-2.2h14.8v.759a2.381,2.381,0,0,1-2.381,2.381h-8.42a.628.628,0,1,0,0,1.256h8.42a3.637,3.637,0,0,0,3.637-3.637V96.093A.628.628,0,0,0,41.657,95.465Zm-17.667,2.2H18.295a.984.984,0,0,1-.982-.942h7.659A.984.984,0,0,1,23.989,97.663Zm14.2-2.2H3.9V73.007a1.281,1.281,0,0,1,1.279-1.279H36.907a1.281,1.281,0,0,1,1.279,1.279Z" transform="translate(0 -70.472)"/></svg>