<svg xmlns="http://www.w3.org/2000/svg" width="30.239" height="30.239" viewBox="0 0 30.239 30.239"><defs><style>.a,.d{fill:none;}.a{stroke:#fff;}.b{fill:#fff;}.c{stroke:none;}</style></defs><g class="a"><rect class="c" width="30.239" height="30.239" rx="15.12"/><rect class="d" x="0.5" y="0.5" width="29.239" height="29.239" rx="14.62"/></g><g transform="translate(12.252 9.941)"><g transform="translate(-2.877 1.393)"><path class="b" d="M163.366,48.844c0-.013.009-.025.008-.038l-3.446,3.32,3.442,3.214c0-.023,0-.046,0-.07V48.844Z" transform="translate(-152.084 -48.035)"/><path class="b" d="M17.789,126.9l-1.407,1.353a.368.368,0,0,1-.506,0l-1.4-1.307L11.01,130.29a.8.8,0,0,0,.269.054h9.7a.8.8,0,0,0,.387-.107Z" transform="translate(-10.47 -122.299)"/><path class="b" d="M11.483,38.269,16.741,33.2a.8.8,0,0,0-.406-.118h-9.7a.8.8,0,0,0-.509.19Z" transform="translate(-5.829 -33.085)"/><path class="b" d="M0,52.1v6.3a.8.8,0,0,0,.035.209l3.421-3.294Z" transform="translate(0 -51.167)"/></g></g></svg>