<svg xmlns="http://www.w3.org/2000/svg" width="41.133" height="41.133" viewBox="0 0 41.133 41.133"><defs><style>.a{fill:#fff;opacity:0;}.a,.b{stroke:#fff;}.b,.d{fill:none;}.c{stroke:none;}</style></defs><g class="a"><rect class="c" width="41.133" height="41.133"/><rect class="d" x="0.5" y="0.5" width="40.133" height="40.133"/></g><path class="b" d="M24.229,8.7a1.657,1.657,0,0,0-2.022-1.165l-5.827,1.56L8.77,2.03,6.662,2.6l4.559,7.867L5.753,11.919l-2.159-1.68L2,10.668,4.845,15.6l18.2-4.867A1.694,1.694,0,0,0,24.229,8.7M34.563,15.69,32.85,19.117H24.28L22.566,15.69l1.714-1.714h3.428V10.548h1.714v3.428H32.85l1.714,1.714m1.714,17.139v3.428H2V32.828H24.28v-12H32.85v12Z" transform="translate(1.428 1.402)"/></svg>