<svg xmlns="http://www.w3.org/2000/svg" width="20.778" height="24.073" viewBox="0 0 20.778 24.073"><defs><style>.a{fill:#fff;}</style></defs><path class="a" d="M7328.827-1744.346c-1.012-.048-1.584-.435-1.771-1.179a1.533,1.533,0,0,1,1.034-1.872c.256-.078.367-.179.293-.442a.226.226,0,0,1-.008-.112c.2-.827-.268-1.239-.927-1.59a2.163,2.163,0,0,1-1.243-2.108,1.961,1.961,0,0,1,1.285-1.911c1.618-.556,3.261-1.048,4.922-1.454a5.907,5.907,0,0,1,3.249.338c1.046.343,2.1.656,3.147,1a2.1,2.1,0,0,1,1.509,1.753,2.142,2.142,0,0,1-.95,2.217c-.317.223-.658.412-.973.638a.512.512,0,0,0-.206.317,8.065,8.065,0,0,0-.029,1.086.358.358,0,0,0,.209.241,1.577,1.577,0,0,1,1.106,1.743,1.534,1.534,0,0,1-1.545,1.312c-.25.013-.263.151-.316.324a13.261,13.261,0,0,1-.589,1.77,8.206,8.206,0,0,1-.825,1.1.9.9,0,0,0-.175.48,6.95,6.95,0,0,0,.106.893,1.012,1.012,0,0,0,1.054,1.007c.933.1,1.875.152,2.8.3a4.289,4.289,0,0,1,3.668,4.254c.021.888.008,1.777.006,2.666,0,.432-.083.513-.5.513q-9.879,0-19.757,0c-.425,0-.505-.078-.507-.505,0-.889-.017-1.778,0-2.667a4.324,4.324,0,0,1,4.159-4.346c.786-.056,1.57-.141,2.354-.224a.994.994,0,0,0,1-.973c.047-.322.1-.644.122-.968a.5.5,0,0,0-.109-.363,4.782,4.782,0,0,1-1.483-2.88,2.439,2.439,0,0,0-.059-.256A.669.669,0,0,0,7328.827-1744.346Zm4.447-5.108c1.089,0,2.18-.047,3.266.015a3.321,3.321,0,0,0,2.261-.665,1.683,1.683,0,0,0,.861-1.694,1.6,1.6,0,0,0-1.267-1.329c-1.063-.325-2.124-.66-3.184-1a5.281,5.281,0,0,0-2.923-.207c-1.511.388-3.015.825-4.481,1.353a1.542,1.542,0,0,0-.3,2.692,9.474,9.474,0,0,0,1.01.649,1.3,1.3,0,0,0,.589.175C7330.5-1749.448,7331.886-1749.455,7333.274-1749.455Zm-1.37,14.269c-.152.145-.26.249-.37.352-.391.37-.487.371-.862,0l-2.016-2.02c-.318-.319-.63-.644-.961-.951a.465.465,0,0,0-.325-.1c-.042,0-.093.174-.1.272a2.272,2.272,0,0,0,0,.525.609.609,0,0,1-.435.691c-.512.233-1,.507-1.512.749-.6.286-.635.458-1.144-.213a.907.907,0,0,0-.148-.119c-.767,1.376-.385,2.838-.492,4.262h2.224c0-.361,0-.7,0-1.032,0-.248.041-.474.35-.463.283.01.319.23.317.46,0,.345,0,.69,0,1.06,1.655,0,3.256,0,4.856-.009a.367.367,0,0,0,.267-.19c.32-.774.624-1.555.924-2.338a.338.338,0,0,0-.025-.271C7332.288-1734.745,7332.1-1734.948,7331.9-1735.186Zm2.886,0a7.656,7.656,0,0,0-.593.73.59.59,0,0,0-.065.458c.241.67.524,1.325.771,1.993a.39.39,0,0,0,.438.294c1.464-.011,2.927-.005,4.392-.007.108,0,.214-.018.353-.03,0-.363,0-.7,0-1.035,0-.226.025-.45.318-.455s.33.212.33.442v1.049h2.285c-.131-1.447.277-2.922-.534-4.3-.116.124-.193.2-.264.286-.361.424-.372.427-.879.173s-1-.532-1.515-.745a.819.819,0,0,1-.6-.969,4.114,4.114,0,0,0,0-.6l-.113-.021c-.1.092-.2.182-.294.277q-1.432,1.434-2.864,2.868c-.3.3-.422.3-.725.016C7335.1-1734.891,7334.963-1735.022,7334.791-1735.187Zm-5.646-10.92c.22.961.391,1.923.667,2.853a3.574,3.574,0,0,0,3.462,2.558,3.608,3.608,0,0,0,3.467-2.559c.134-.428.214-.873.312-1.312.114-.512.221-1.026.328-1.527A8.165,8.165,0,0,1,7329.145-1746.107Zm8.2-1.432h-8.164a1.615,1.615,0,0,0,1.028,1.238,11.654,11.654,0,0,0,1.9.553,7.2,7.2,0,0,0,4.254-.562A1.6,1.6,0,0,0,7337.347-1747.539Zm-2.005,6.989a4.485,4.485,0,0,1-4.149,0c-.074.459-.15.874-.2,1.292-.009.07.079.176.149.228.674.5,1.349.993,2.037,1.471a.381.381,0,0,0,.348-.01c.646-.449,1.281-.916,1.914-1.384.07-.052.156-.159.146-.227C7335.522-1739.619,7335.433-1740.058,7335.342-1740.55Zm-6.842,2.505,2.661,2.655,1.667-1.592c-.73-.531-1.413-1.034-2.106-1.521-.062-.044-.2-.005-.292.023-.364.113-.72.259-1.088.349A6.012,6.012,0,0,1,7328.5-1738.044Zm9.615.046c.006.005-.01-.019-.029-.024-.061-.013-.124-.019-.185-.026a3.593,3.593,0,0,1-1.8-.425c-.053-.037-.208.025-.288.08-.36.247-.71.509-1.063.766l-.885.649,1.636,1.558Zm-9.068-10.265h8.438v-.5h-8.438Zm5.257,16.521c-.307-.779-.59-1.51-.884-2.236a.293.293,0,0,0-.18-.149c-.036-.009-.124.074-.147.132-.3.737-.585,1.477-.891,2.254Zm-1.888-3.93c.794,1.273,1.2,1.078,1.85-.009l-.918-.878Zm-4.035-11.088a.83.83,0,0,0-.689,1.012.8.8,0,0,0,.978.667c-.08-.514-.16-1.028-.242-1.542A1.15,1.15,0,0,0,7328.38-1746.759Zm9.484,1.7a.86.86,0,0,0,.961-.764.782.782,0,0,0-.67-.9C7338.06-1746.178,7337.965-1745.631,7337.864-1745.057Zm2.08,7.2c-.134.782-.062.9.619,1.081l.368-.755Zm-14.372.346.387.761c.714-.3.74-.347.58-1.095Zm16.495.853-.572-.5-.346.7C7341.7-1736.107,7341.7-1736.108,7342.067-1736.662Zm-16.711.19c-.117-.225-.223-.429-.375-.722l-.492.587C7324.782-1736.111,7324.815-1736.1,7325.355-1736.472Z" transform="translate(-7322.884 1755.125)"/></svg>