<svg xmlns="http://www.w3.org/2000/svg" width="218.634" height="26.039" viewBox="0 0 218.634 26.039"><defs><style>.a{fill:#1b57a2;}.b{fill:#4aa5de;}</style></defs><g transform="translate(-291.36 -499.32)"><path class="a" d="M300.41,504.135l-9.05,18.748h4.824l1.921-4.235h8.666l2.092,4.235H313.6l-8.836-18.748Zm2.048,5.08,2.6,5.891h-5.251Z" transform="translate(0 -0.504)"/><path class="a" d="M319.386,522.883l-.042-18.748h4.525l9.689,11.44v-11.44h4.526v18.748H334.07l-9.989-11.79-.043,11.79Z" transform="translate(-2.926 -0.504)"/><path class="a" d="M352.721,504.135,343.8,522.883h4.7l1.879-4.149,8.708-.086,2.135,4.235H366l-8.922-18.748Zm2.007,4.952,2.646,5.891-5.336.17Z" transform="translate(-5.484 -0.504)"/><path class="a" d="M386.045,517.346l2.945,2.689c-6.094,5.837-19.171,3.8-19.209-7.214,1.906-12.825,16.657-9.767,18.91-6.19l-2.817,3.116c-6.793-5.677-11.385.173-11.611,3.116C375.141,522.9,384.716,519.372,386.045,517.346Z" transform="translate(-8.2 -0.439)"/><path class="b" d="M400.291,499.892h1.75L402,525.419h-1.58Z" transform="translate(-11.391 -0.06)"/><path class="b" d="M414.818,502.323l-4.183,8.965h2.306l.853-2.093h3.8l.854,2.093h2.475l-4.055-8.965Zm.9,2.732,1.2,2.391h-2.348Z" transform="translate(-12.473 -0.314)"/><path class="b" d="M420.885,502.323h2.6l2.391,6.1,2.348-6.1H430.7l-3.842,8.965h-1.836Z" transform="translate(-13.544 -0.314)"/><path class="b" d="M433.423,502.323h2.006l.086,8.965h-2.05Z" transform="translate(-14.855 -0.314)"/><path class="b" d="M441.773,502.323l-4.012,8.965h2.262l.726-2.007,3.97.042.81,1.965h2.348l-4.012-8.965Zm1.024,2.647,1.2,2.562h-2.519Z" transform="translate(-15.309 -0.314)"/><path class="b" d="M456.778,505c-3.582-2.174-5.254.749-5.122,1.708,0,0,.347,4.177,5.037,1.793l1.409,1.366c-2.242,1.409-7.791,3.4-8.708-3.158.45-6.073,7.879-4.749,8.793-2.988Z" transform="translate(-16.525 -0.306)"/><path class="b" d="M461,502.323h1.921l-.085,8.965h-2.05Z" transform="translate(-17.717 -0.314)"/><path class="b" d="M470.769,502.371c.029,0-4.779-.141-5.123,4.183-.281,3.539,2.466,4.517,4.909,4.653,3.42-.033,5.072-1.848,5.123-4.7A4.843,4.843,0,0,0,470.769,502.371Zm.013,1.9a2.708,2.708,0,0,1,2.548,2.325,2.461,2.461,0,0,1-.811,2.007,2.393,2.393,0,0,1-1.964.811s-2.86-.128-2.732-2.732A2.851,2.851,0,0,1,470.782,504.271Z" transform="translate(-18.223 -0.319)"/><path class="b" d="M470.512,501.156l1.537.128,1.58-1.024-1.537-.939Z" transform="translate(-18.734)"/><path class="b" d="M478.575,502.3l-.026,9.016H480.5l.051-5.481,4.713,5.481H487l.026-9.016H485l.051,5.4-4.636-5.4Z" transform="translate(-19.574 -0.312)"/><path class="b" d="M506.409,502.3h2.023l-.1,9.016h-1.9Z" transform="translate(-22.488 -0.312)"/><path class="b" d="M503.749,503.642l-1.409,1.434c-1.618-1.571-4.725-1.76-5.123,1.844.188,2.159,2.541,3.347,5.046,1.563l1.383,1.306c-1.186,1.589-7.448,3.5-8.708-2.869.225-5.62,6.641-5.731,8.81-3.278Z" transform="translate(-21.288 -0.292)"/><path class="b" d="M510.756,502.362l3.816,8.938h1.922l3.918-8.938H517.85l-2.3,6.146-2.51-6.146Z" transform="translate(-22.942 -0.318)"/><path class="b" d="M522.713,502.362h2.023l-.025,8.938h-1.922Z" transform="translate(-24.193 -0.318)"/><path class="b" d="M527.832,502.362V511.3h6.813l.077-1.691-4.739-.128-.1-7.12Z" transform="translate(-24.728 -0.318)"/><path class="b" d="M414.688,515.8l-3.957,8.644h2.229l.768-1.767,3.88-.077.922,1.844H420.8l-4-8.644Zm1,2.728,1.267,2.535-2.458.039Z" transform="translate(-12.483 -1.724)"/><path class="b" d="M423.645,515.8l.116,8.644H425.6v-2.766l1.768-.038,2.075,2.881h2.228l-2.112-3.036c2.729-1.774,2.448-4.475.116-5.686Zm2,1.728h2.8a1.342,1.342,0,0,1,0,2.421h-2.842Z" transform="translate(-13.833 -1.724)"/><path class="b" d="M438.873,519.644l3.881-.076.038,3.8c-4.668,2.808-8.162.847-8.721-3.266.389-5.73,7.087-5.356,8.49-3.38l-1.421,1.537a2.991,2.991,0,0,0-4.918,1.729c.775,3.522,3.167,3.077,4.571,2.382l.039-1.268-1.844-.077Z" transform="translate(-14.923 -1.683)"/><path class="b" d="M446.213,515.719l.154,8.8h6.992l.077-1.575-5.032.039-.039-2.036,4.418.038v-1.691l-4.418-.076-.077-1.883,4.995-.077v-1.537Z" transform="translate(-16.193 -1.715)"/><path class="b" d="M456.2,515.719h1.921l4.611,5.456v-5.456h2l-.116,8.8h-1.844l-4.688-5.493-.039,5.493h-1.921Z" transform="translate(-17.229 -1.715)"/><path class="b" d="M467.408,515.719l.039,1.806H470.4v6.992h2l.039-7.069h2.612v-1.729Z" transform="translate(-18.409 -1.715)"/><path class="b" d="M478.129,515.719l-.038,8.8h1.883l.077-8.8Z" transform="translate(-19.526 -1.715)"/><path class="b" d="M483.364,515.719l-.038,8.8h2l.039-5.339,4.61,5.339h1.845v-8.8h-2.19l.116,5.456-4.5-5.456Z" transform="translate(-20.074 -1.715)"/><path class="b" d="M497.919,515.719l-4,8.8h2.343l.653-1.922h3.841l1.038,1.922h2.267l-4.112-8.8Zm1,2.689,1.191,2.536h-2.42Z" transform="translate(-21.182 -1.715)"/></g></svg>