<svg xmlns="http://www.w3.org/2000/svg" width="24" height="24" viewBox="0 0 24 24"><defs><style>.a{fill:#fff;stroke:rgba(0,0,0,0);opacity:0;}.b,.d{fill:none;}.b{stroke:#fff;}.c{stroke:none;}</style></defs><g class="a"><rect class="c" width="24" height="24"/><rect class="d" x="0.5" y="0.5" width="23" height="23"/></g><path class="b" d="M20,17s-6.974,0-8.643,0c-.681,0,2.1-.008,8.916-.019A1.935,1.935,0,0,0,22,15V4a2,2,0,0,0-2-2H9.46m5.21,4.488V9H9V22H7V16H5v6H3V14H1.5V9a2,2,0,0,1,2-2H15M8,4A2,2,0,1,1,6,2,2,2,0,0,1,8,4Z" transform="translate(0.5)"/></svg>