<svg xmlns="http://www.w3.org/2000/svg" width="204.089" height="35" viewBox="0 0 204.089 35"><defs><style>.a{fill:#fff;}.b{fill:#35bbd7;}</style></defs><g transform="translate(-2257 -827.42)"><g transform="translate(2325.118 827.42)"><path class="a" d="M2372.236,843.889c-.4,0-.808,0-1.253-.04,0,4.446.041,8.244.081,9.5.04.97.444,1.293,1.253,1.657l-.04.2c-.97-.081-2.344-.121-3.4-.121-1.011,0-2.3.04-3.315.121l-.04-.2c.849-.4,1.213-.687,1.253-1.657.04-1.294.081-5.254.081-11.519,0-6.3-.041-10.225-.081-11.519a1.392,1.392,0,0,0-1.253-1.536v-.2c1.778-.081,4.365-.121,6.265-.121,6.547,0,11.882,2.587,11.882,7.315C2383.674,841.221,2379.147,843.889,2372.236,843.889Zm-1.172-14.024c-.04,1.657-.081,6.951-.081,12.407.444.041.889.041,1.294.041,4.85,0,6.87-2.708,6.87-6.548C2379.147,831.845,2376.763,829.865,2371.064,829.865Z" transform="translate(-2365.527 -827.803)"/><path class="a" d="M2405.7,852.149l-.162.041a3.058,3.058,0,0,0-2.829-1.94,3.147,3.147,0,0,0-3.113,1.859v2.344c0,2.425.041,5.052.081,6.063a1.756,1.756,0,0,0,1.253,1.7l-.04.162c-.97-.081-1.98-.121-2.991-.121-1.051,0-1.98.04-2.95.121l-.041-.162a1.689,1.689,0,0,0,1.253-1.7c.041-1.011.081-3.637.081-5.658,0-1.576-.04-3.193-.081-3.92a1.581,1.581,0,0,0-1.334-1.657v-.162a13.469,13.469,0,0,0,4.81-1.415l.162.081c-.122,1.415-.162,2.182-.162,3.031.889-1.859,2.3-3.031,4-3.031a2.573,2.573,0,0,1,2.061.768Z" transform="translate(-2376.437 -834.972)"/><path class="a" d="M2422.433,862.867c-4.971,0-8.286-2.991-8.286-7.517s3.314-7.517,8.286-7.517,8.285,2.991,8.285,7.517S2427.4,862.867,2422.433,862.867Zm0-13.863c-2.829,0-4.284,2.183-4.284,6.346,0,4.2,1.455,6.346,4.284,6.346,2.789,0,4.284-2.142,4.284-6.346C2426.716,851.187,2425.221,849,2422.433,849Z" transform="translate(-2383.63 -835.02)"/><path class="a" d="M2464.854,832.653c-2.627-2.344-5.779-2.829-9.5-2.829-.889,0-1.86,0-2.83.081-.04,1.617-.08,5.618-.08,10.831,8-.08,9.012-.484,9.457-2.142l.2.04a19.956,19.956,0,0,0-.162,2.789,19.22,19.22,0,0,0,.162,2.789l-.2.041c-.444-1.779-1.455-2.021-9.457-2.1,0,5.941.04,9.9.08,11.2.04.97.445,1.293,1.253,1.657l-.04.2c-.969-.081-2.344-.121-3.355-.121a30.58,30.58,0,0,0-3.354.161l-.04-.242c.849-.4,1.212-.687,1.253-1.657.04-1.294.081-5.254.081-11.519,0-6.3-.04-10.225-.081-11.519-.041-.97-.4-1.253-1.253-1.657l.04-.2c1.01.081,2.3.121,4.971.121h11.842a24.26,24.26,0,0,0,1.293,3.88Z" transform="translate(-2395.86 -827.803)"/><path class="a" d="M2484.865,854.822q-1.453-.121-3.031-.121c-1.011,0-1.94.04-2.91.121l-.04-.162a1.689,1.689,0,0,0,1.253-1.7c.04-1.011.081-3.637.081-11.519,0-6.143-.041-9.377-.081-10.791A1.582,1.582,0,0,0,2478.8,829v-.161a13.48,13.48,0,0,0,4.809-1.415l.162.081c-.162,2.223-.2,6.588-.2,13.943,0,7.881.04,10.508.081,11.519a1.755,1.755,0,0,0,1.253,1.7Z" transform="translate(-2407.705 -827.42)"/><path class="a" d="M2498.454,857.819c-.97-.081-1.98-.121-2.991-.121-1.051,0-1.98.04-2.95.121l-.041-.162a1.689,1.689,0,0,0,1.253-1.7c.041-1.011.081-3.637.081-5.214,0-2.02-.04-3.637-.081-4.365a1.581,1.581,0,0,0-1.334-1.657v-.162a13.468,13.468,0,0,0,4.81-1.415l.162.081c-.162,2.223-.2,4.567-.2,6.669,0,2.425.04,5.052.08,6.063a1.756,1.756,0,0,0,1.253,1.7Zm-3.233-18.026a2.162,2.162,0,1,1,2.182-2.142A2.166,2.166,0,0,1,2495.22,839.794Z" transform="translate(-2412.764 -830.417)"/><path class="a" d="M2521.742,863.356c0,3.637-5.052,4.89-9.538,4.89-3.678,0-6.224-1.091-6.224-2.95,0-2.182,3.112-3.314,5.981-3.557-2.425,0-3.476-.606-3.476-1.7,0-.889.849-2.021,2.627-3.193-2.708-.687-4.688-2.465-4.688-5.254,0-3.556,3.233-5.537,7.073-5.537a10.947,10.947,0,0,1,2.344.243l1.738-3.234,2.749.727v.162l-3.638,2.587a5.263,5.263,0,0,1,3.88,5.052c0,3.557-3.233,5.5-7.073,5.5a7.194,7.194,0,0,1-.929-.04c-1.173.889-1.5,1.334-1.5,1.7,0,.646,1.334.727,2.83.727C2517.822,859.476,2521.742,859.8,2521.742,863.356Zm-2.587.849c0-1.576-1.737-2.223-4.365-2.223a13.953,13.953,0,0,0-1.536.08c-2.183.2-4.123,1.253-4.123,2.587,0,1.132,1.7,2.062,4.81,2.062C2516.609,866.711,2519.155,865.943,2519.155,864.2Zm-5.658-8.326c2.021,0,3.677-1.455,3.677-4.284,0-2.87-1.657-4.325-3.677-4.325s-3.678,1.455-3.678,4.325C2509.819,854.424,2511.476,855.879,2513.5,855.879Z" transform="translate(-2417.824 -833.246)"/><path class="a" d="M2551.41,854.822c-.97-.081-1.98-.121-2.991-.121-1.051,0-1.98.04-2.951.121l-.04-.162a1.688,1.688,0,0,0,1.253-1.7c.041-1.011.081-3.6.081-6.063,0-4.122-1.132-5.335-3.193-5.335a4.64,4.64,0,0,0-4.486,4.082c0,3.678.04,6.3.08,7.315a1.755,1.755,0,0,0,1.253,1.7l-.04.162q-1.455-.121-3.031-.121c-1.011,0-1.94.04-2.911.121l-.04-.162a1.689,1.689,0,0,0,1.253-1.7c.04-1.011.081-3.637.081-11.519,0-6.143-.041-9.377-.081-10.791a1.581,1.581,0,0,0-1.334-1.657v-.161a13.485,13.485,0,0,0,4.81-1.415l.161.081c-.161,2.223-.2,6.588-.2,13.943v2.223a5.568,5.568,0,0,1,5.334-3.435c4.405,0,5.7,2.667,5.7,6.669,0,2.425.041,5.052.081,6.063a1.756,1.756,0,0,0,1.253,1.7Z" transform="translate(-2428.374 -827.42)"/><path class="a" d="M2575.112,857.936a5.46,5.46,0,0,1-5.174,2.789c-2.708,0-4-1.415-3.92-4,.081-2.506.122-4.89.122-9.255h-2.83l-.08-.364a7.5,7.5,0,0,0,6.062-5.133l.323.041c-.04.849-.121,2.789-.121,3.395v.808h4.567v1.253h-4.567c0,4.809.04,7.8.081,9.255.04,1.981.808,2.627,2.182,2.627a4.358,4.358,0,0,0,3.112-1.617Z" transform="translate(-2439.141 -832.838)"/></g><g transform="translate(2257 829.438)"><path class="b" d="M2315.372,830.638a5.744,5.744,0,0,1-2.6,4.072,8.385,8.385,0,0,1-4.736,1.42c-9.385.151-18.772.259-28.158.394-1.708.025-3.416.158-5.124.147-.688,0-.906.271-1.036.861a30.594,30.594,0,0,1-3.769,9.435,27.542,27.542,0,0,1-12.024,10.647c-.207.1-.436.148-.928.312.293-.543.442-.861.627-1.156a112.669,112.669,0,0,0,10.312-20.876,26.2,26.2,0,0,0,.99-3.754c.119-.582.334-.773.906-.78,2.051-.025,4.1-.111,6.151-.137,6.527-.085,13.055-.134,19.581-.234,6.154-.094,12.306-.233,18.459-.351C2314.424,830.631,2314.822,830.638,2315.372,830.638Z" transform="translate(-2257 -830.635)"/><path class="b" d="M2284.625,849.128c.4-1.449.708-2.819,1.162-4.139a1.981,1.981,0,0,1,1.866-1.18c1.11-.1,2.228-.165,3.342-.179q9.178-.11,18.356-.187c.4,0,.8,0,1.165,0,.063.127.127.2.112.233-1.125,2.467-3.634,5.172-7.2,5.119-3.93-.06-7.864.215-11.8.322-2.011.055-4.023.063-6.035.086C2285.355,849.2,2285.115,849.167,2284.625,849.128Z" transform="translate(-2267.286 -835.404)"/><path class="b" d="M2277.722,861.291a6.259,6.259,0,0,1,6.07-5.108c2.507-.007,5.015,0,7.522,0,.242,0,.484.031.816.054a5.416,5.416,0,0,1-2.744,3.939,11.638,11.638,0,0,1-4.244,1.437,61.97,61.97,0,0,1-7.023-.153A1.406,1.406,0,0,1,2277.722,861.291Z" transform="translate(-2264.716 -840.147)"/></g></g></svg>