<?xml version="1.0" encoding="UTF-8" standalone="no"?>
<svg
   xmlns:dc="http://purl.org/dc/elements/1.1/"
   xmlns:cc="http://creativecommons.org/ns#"
   xmlns:rdf="http://www.w3.org/1999/02/22-rdf-syntax-ns#"
   xmlns:svg="http://www.w3.org/2000/svg"
   xmlns="http://www.w3.org/2000/svg"
   xmlns:sodipodi="http://sodipodi.sourceforge.net/DTD/sodipodi-0.dtd"
   xmlns:inkscape="http://www.inkscape.org/namespaces/inkscape"
   width="187.26341"
   height="188.57205"
   viewBox="0 0 187.26341 188.57205"
   version="1.1"
   id="svg781"
   sodipodi:docname="Trazado 9413.svg"
   inkscape:version="0.92.3 (2405546, 2018-03-11)">
  <metadata
     id="metadata785">
    <rdf:RDF>
      <cc:Work
         rdf:about="">
        <dc:format>image/svg+xml</dc:format>
        <dc:type
           rdf:resource="http://purl.org/dc/dcmitype/StillImage" />
        <dc:title></dc:title>
      </cc:Work>
    </rdf:RDF>
  </metadata>
  <sodipodi:namedview
     pagecolor="#ffa8ff"
     bordercolor="#666666"
     borderopacity="1"
     objecttolerance="10"
     gridtolerance="10"
     guidetolerance="10"
     inkscape:pageopacity="0"
     inkscape:pageshadow="2"
     inkscape:window-width="1366"
     inkscape:window-height="718"
     id="namedview783"
     showgrid="false"
     inkscape:zoom="1.6565043"
     inkscape:cx="202.18875"
     inkscape:cy="120.50961"
     inkscape:window-x="0"
     inkscape:window-y="26"
     inkscape:window-maximized="1"
     inkscape:current-layer="svg781" />
  <defs
     id="defs777">
    <style
       id="style775">.a{fill:#fff;}</style>
  </defs>
  <path
     class="a"
     d="m 186.86149,77.642831 a 6.555,6.555 0 0 0 -6.23,-4.3 89.4,89.4 0 0 0 -80.016,-67.3 6.563,6.563 0 0 0 -13.083004,-0.021 89.4,89.4 0 0 0 -80.3349996,67.348 6.566,6.566 0 0 0 -3.377,12.5 6.671,6.671 0 0 0 1.129,0.394 c -0.048,0.482 -0.094,0.964 -0.135,1.448 v 0 c -0.2,2.473 -0.309,4.989 -0.309,7.481 0,1.564 0.041,3.148 0.122,4.712 a 89.6,89.6 0 0 0 21.3219996,53.356999 6.564,6.564 0 1 0 0.9,-1.38 A 88.02,88.02 0 0 1 6.2034864,99.822831 c -0.079,-1.536 -0.12,-3.093 -0.12,-4.63 0,-2.448 0.1,-4.921 0.3,-7.35 v 0 c 0.038,-0.457 0.083,-0.911 0.127,-1.366 0.022,0 0.043,0 0.065,0 a 6.57,6.57 0 0 0 2.761,-12.533 q -0.3,-0.136 -0.6,-0.242 a 88.4,88.4 0 0 1 78.8449996,-66.102 6.563,6.563 0 0 0 12.967004,0.02 88.459,88.459 0 0 1 78.5,65.928 q -0.315,0.083 -0.625,0.2 a 6.571,6.571 0 0 0 2.263,12.737 c 0.209,0 0.416,-0.012 0.624,-0.032 0.286,2.893 0.439,5.828 0.439,8.745 a 87.788,87.788 0 0 1 -20.431,56.288999 6.663,6.663 0 1 0 0.994,1.289 89.369,89.369 0 0 0 21.012,-57.577999 c 0,-3.032 -0.162,-6.083 -0.464,-9.089 0.031,-0.011 0.064,-0.019 0.1,-0.031 a 6.569,6.569 0 0 0 3.9,-8.431 z M 31.861486,151.12883 a 5.006,5.006 0 1 1 -4.431,2.7 l 0.243,-0.43 0.215,-0.289 a 4.984,4.984 0 0 1 3.966,-1.981 z m -20.6,-72.941999 a 5,5 0 1 1 -2.5909996,-2.81 4.958,4.958 0 0 1 2.5909996,2.81 z m 87.337,-69.52 a 4.994,4.994 0 1 1 -2.437,-6.629 5,5 0 0 1 2.442,6.632 z M 156.67249,161.11683 a 4.994,4.994 0 1 1 3.632,-8.411 l -0.022,0.027 0.219,0.19 a 4.99,4.99 0 0 1 -3.829,8.194 z m 28.55,-79.110999 a 4.995,4.995 0 1 1 0.154,-3.819 4.966,4.966 0 0 1 -0.15,3.819 z"
     id="path779"
     inkscape:connector-curvature="0"
     style="fill:#ffffff" />
</svg>
