<svg xmlns="http://www.w3.org/2000/svg" width="187.258" height="162.692" viewBox="0 0 187.258 162.692"><defs><style>.a{fill:#fff;}</style></defs><path class="a" d="M206.5,184.273a6.555,6.555,0,0,0-6.23-4.3,89.4,89.4,0,0,0-80.016-67.3,6.563,6.563,0,0,0-13.083-.021A89.4,89.4,0,0,0,26.836,180a6.566,6.566,0,0,0-3.377,12.5,6.671,6.671,0,0,0,1.129.394c-.048.482-.094.964-.135,1.448h0c-.2,2.473-.309,4.989-.309,7.481,0,1.564.041,3.148.122,4.712a89.6,89.6,0,0,0,21.322,53.357,6.564,6.564,0,1,0,.9-1.38,88.02,88.02,0,0,1-20.646-52.059c-.079-1.536-.12-3.093-.12-4.63,0-2.448.1-4.921.3-7.35h0c.038-.457.083-.911.127-1.366.022,0,.043,0,.065,0a6.57,6.57,0,0,0,2.761-12.533q-.3-.136-.6-.242A88.4,88.4,0,0,1,107.22,114.23a6.563,6.563,0,0,0,12.967.02,88.459,88.459,0,0,1,78.5,65.928q-.315.083-.625.2a6.571,6.571,0,0,0,2.263,12.737c.209,0,.416-.012.624-.032.286,2.893.439,5.828.439,8.745a87.788,87.788,0,0,1-20.431,56.289,6.663,6.663,0,1,0,.994,1.289,89.369,89.369,0,0,0,21.012-57.578c0-3.032-.162-6.083-.464-9.089.031-.011.064-.019.1-.031a6.569,6.569,0,0,0,3.9-8.431Zm-155,73.486a5.006,5.006,0,1,1-4.431,2.7l.243-.43.215-.289A4.984,4.984,0,0,1,51.493,257.759ZM30.9,184.817a5,5,0,1,1-2.591-2.81A4.958,4.958,0,0,1,30.9,184.817Zm87.337-69.52a4.994,4.994,0,1,1-2.437-6.629A5,5,0,0,1,118.242,115.3Zm58.074,152.45a4.994,4.994,0,1,1,3.632-8.411l-.022.027.219.19a4.99,4.99,0,0,1-3.829,8.194Zm28.55-79.111a4.995,4.995,0,1,1,.154-3.819A4.966,4.966,0,0,1,204.865,188.636Z" transform="translate(-19.645 -106.629)"/></svg>