<svg xmlns="http://www.w3.org/2000/svg" width="24" height="28.539" viewBox="0 0 24 28.539"><defs><style>.a{opacity:0.7;}.b{fill:#0a1627;}</style></defs><g class="a" transform="translate(992.983 -171.016)"><path class="b" d="M-980.974,199.554h-11.237c-.574,0-.643-.071-.7-.639a10.149,10.149,0,0,1,.315-4.058,5.692,5.692,0,0,1,4-3.81,11.084,11.084,0,0,1,3.407-.376c.584,0,.833-.155.907-.733a16.542,16.542,0,0,0,.068-1.85,3.084,3.084,0,0,0-.059-.6c-.051-.275-.056-.562-.368-.729a3.033,3.033,0,0,1-1.5-2.171c-.19-.851-.355-1.707-.559-2.555-.091-.378-.254-.737-.374-1.109a2.863,2.863,0,0,1,.01-1.9.607.607,0,0,0-.093-.586,8.181,8.181,0,0,1-1.362-2.686,2.786,2.786,0,0,1,1.276-2.838c.732-.452,1.466-.9,2.217-1.318a2.938,2.938,0,0,1,.956-.343,19.913,19.913,0,0,1,6.153,0,3.337,3.337,0,0,1,1.053.4c.687.377,1.351.8,2.022,1.2a2.827,2.827,0,0,1,1.017,3.9c-.353.612-.743,1.2-1.1,1.81a.474.474,0,0,0-.022.345,3.729,3.729,0,0,1-.167,2.587,16.315,16.315,0,0,0-.493,2.058c-.1.442-.23.88-.334,1.322a2.735,2.735,0,0,1-1.29,1.8.7.7,0,0,0-.394.628c-.017.744-.08,1.486-.105,2.23a1.767,1.767,0,0,0,.1.557.711.711,0,0,0,.8.586,14.12,14.12,0,0,1,3.338.293,5.589,5.589,0,0,1,4.472,5.27,22.653,22.653,0,0,1-.025,2.726c-.025.549-.106.591-.657.591Q-975.336,199.555-980.974,199.554Zm5.278-20.287a6.851,6.851,0,0,1-3.021,1.059,18.531,18.531,0,0,1-2.414.1,17.755,17.755,0,0,1-2.853-.243,17.286,17.286,0,0,1-2.348-.8,2.509,2.509,0,0,0,.234,1.844,2.929,2.929,0,0,1,.171.534c.265,1.091.5,2.19.8,3.27a1.486,1.486,0,0,0,.565.77,24.151,24.151,0,0,0,2.277,1.343,2.389,2.389,0,0,0,1.973.246,9.8,9.8,0,0,0,2.934-1.627,1.83,1.83,0,0,0,.541-.793c.223-.669.369-1.363.548-2.047s.345-1.363.545-2.037A2.666,2.666,0,0,0-975.7,179.267Zm-5.342-1.583c1.809,0,3.618,0,5.428,0a.454.454,0,0,0,.48-.27c.169-.339.371-.661.563-.988a2.036,2.036,0,0,0-.707-2.895c-.667-.412-1.337-.82-2.025-1.195a2.666,2.666,0,0,0-.921-.3,16.107,16.107,0,0,0-4.493-.122,7.049,7.049,0,0,0-1.771.33,17.835,17.835,0,0,0-2.354,1.376,2,2,0,0,0-.651,2.705c.19.343.407.671.583,1.02a.566.566,0,0,0,.593.344C-984.554,177.675-982.8,177.683-981.038,177.683Zm3.951,13.809a4.828,4.828,0,0,1-.347.506.668.668,0,0,0,.276,1.147c.153.057.32.078.474.132a.4.4,0,0,1,.214.659c-.071.1-.156.2-.237.3q-1.721,2.071-3.442,4.141c-.082.1-.156.205-.267.352h10.655c0-.683.034-1.339-.007-1.991a5.731,5.731,0,0,0-1.138-3.353.967.967,0,0,0-1.273-.348,2.179,2.179,0,0,1-1.4.072c-.723-.173-1.454-.314-2.184-.452-.786-.148-.975-.341-1.045-1.138Zm-4.393,7.256c-.44-.533-.807-.978-1.175-1.422-.912-1.1-1.829-2.2-2.737-3.3-.306-.371-.208-.652.249-.782a4.012,4.012,0,0,0,.4-.117A.663.663,0,0,0-984.5,192a4.883,4.883,0,0,1-.373-.563,1.068,1.068,0,0,0-.136.3.8.8,0,0,1-.706.85c-.415.1-.835.194-1.257.263-.978.16-1.944.582-2.953.108a.643.643,0,0,0-.769.208,4.637,4.637,0,0,0-1.116,1.825,9.6,9.6,0,0,0-.362,3.3c.006.351.111.471.482.469,3.086-.015,6.171-.008,9.257-.008Zm3.386-7.784c-.674-1.11-.459-2.292-.4-3.559a4.081,4.081,0,0,1-4.967.028,5.8,5.8,0,0,1-.353,3.511c.572-.094,1.1-.2,1.635-.263.4-.045.573.108.623.49.115.864.219,1.73.333,2.595.066.5.142,1.005.214,1.508a39.225,39.225,0,0,0,.59-3.91c.064-.679.386-.755.906-.662C-979.054,190.785-978.6,190.871-978.094,190.965Zm-7.763-12.445c1.67,1.578,8.34,1.488,9.685,0Zm2.254,13.259a1.621,1.621,0,0,1-.836,2.148l2.794,3.353a3.82,3.82,0,0,0-.042-.932c-.2-1.525-.4-3.05-.613-4.573-.013-.1-.163-.258-.225-.248C-982.88,191.585-983.227,191.686-983.6,191.779Zm4-.321-.764,5.782.082.034,2.793-3.362a1.592,1.592,0,0,1-.841-2.135Zm-6.208.353c-.247-.346-.532-.259-.8-.239a6.409,6.409,0,0,0-2.624.723A18.427,18.427,0,0,0-985.809,191.81Zm13.264.5c-.006-.062,0-.08-.009-.083a7.734,7.734,0,0,0-3-.675c-.125-.005-.254.105-.381.162.994.276,1.966.483,2.941.668A1.366,1.366,0,0,0-972.546,192.315Z"/><path class="b" d="M-942.875,179.236c.526.135,1.076.256,1.612.423a.56.56,0,0,1,.382.662,3.814,3.814,0,0,1-1.8,2.887.6.6,0,0,1-.545-.034,4.01,4.01,0,0,1-1.734-2.655c-.075-.513,0-.752.492-.921A14.983,14.983,0,0,1-942.875,179.236Zm-.059,3.164a3.141,3.141,0,0,0,1.2-1.769c.058-.223.007-.348-.243-.405a4.2,4.2,0,0,0-1.875-.007c-.293.065-.323.2-.252.456A3.184,3.184,0,0,0-942.934,182.4Z" transform="translate(-38.065 -6.52)"/></g></svg>