<svg xmlns="http://www.w3.org/2000/svg" width="18.655" height="18.66" viewBox="0 0 18.655 18.66"><defs><style>.a{opacity:0.7;}.b{fill:#0a1627;}</style></defs><g class="a" transform="translate(-3.938 -3.938)"><path class="b" d="M13.267,22.6A9.33,9.33,0,0,1,6.792,6.55a.749.749,0,1,1,1.04,1.078,7.83,7.83,0,1,0,6.181-2.155v2.92a.751.751,0,1,1-1.5,0v-3.7a.751.751,0,0,1,.751-.751,9.33,9.33,0,0,1,0,18.66Z" transform="translate(0 0)"/><path class="b" d="M11.916,11.33l4.162,2.991a1.259,1.259,0,0,1-1.464,2.05,1.216,1.216,0,0,1-.293-.293L11.33,11.916a.42.42,0,0,1,.586-.586Z" transform="translate(-2.226 -2.226)"/></g></svg>