<svg xmlns="http://www.w3.org/2000/svg" width="22.806" height="18.621" viewBox="0 0 22.806 18.621"><defs><style>.a{fill:none;stroke:#0a1627;opacity:0.7;}</style></defs><path class="a" d="M17.512,10.222V14.31a1.849,1.849,0,0,1-.042.39L16.22,20.493A1.6,1.6,0,0,1,14.7,21.806H6.567A1.527,1.527,0,0,1,5.3,21.1l-5-7.5a1.8,1.8,0,0,1,.345-2.38,1.482,1.482,0,0,1,2.184.376l1.237,1.853V1.7A1.638,1.638,0,0,1,5.629,0,1.638,1.638,0,0,1,7.193,1.7v8.518h.313v-1.7a1.638,1.638,0,0,1,1.564-1.7,1.638,1.638,0,0,1,1.564,1.7v1.7h.313V9.2a1.638,1.638,0,0,1,1.564-1.7,1.638,1.638,0,0,1,1.564,1.7v1.022h.313a1.569,1.569,0,1,1,3.127,0Z" transform="translate(22.306 0.609) rotate(90)"/></svg>