<svg xmlns="http://www.w3.org/2000/svg" width="25.707" height="25.219" viewBox="0 0 25.707 25.219"><defs><style>.a,.d,.e,.g{fill:none;}.a,.d,.e{stroke:#0a1627;}.a,.e{stroke-linecap:round;stroke-linejoin:round;}.a,.b{opacity:0.7;}.c{fill:#0a1627;}.f{stroke:none;}</style></defs><g transform="translate(-30 -562)"><path class="a" d="M14.254,8.053v.513A5.579,5.579,0,0,1,10.223,13.9a5.655,5.655,0,0,1-6.316-2.31A5.527,5.527,0,0,1,4.35,4.942a5.666,5.666,0,0,1,6.568-1.469" transform="translate(40.746 572.51)"/><g class="b" transform="translate(30 562)"><g transform="translate(17.353 1.911)"><path class="c" d="M1.785,0,3.57,5a5.785,5.785,0,0,1-1.785.339A5.785,5.785,0,0,1,0,5Z" transform="translate(3.57 5.337) rotate(180)"/></g><g transform="translate(9.927 17.199) rotate(90)"><path class="c" d="M1.764,0,3.528,4.939a5.717,5.717,0,0,1-1.764.335A5.717,5.717,0,0,1,0,4.939Z" transform="translate(3.528 5.274) rotate(180)"/></g><path class="c" d="M11.713,11.306,14.6,13.384a.875.875,0,1,1-1.017,1.424.845.845,0,0,1-.2-.2l-2.078-2.891a.292.292,0,0,1,.407-.407Z" transform="translate(-7.462 -7.461)"/><g class="d"><circle class="f" cx="6" cy="6" r="6"/><circle class="g" cx="6" cy="6" r="5.5"/></g><g class="d" transform="translate(13)"><circle class="f" cx="6" cy="6" r="6"/><circle class="g" cx="6" cy="6" r="5.5"/></g><g class="d" transform="translate(12 13) rotate(90)"><circle class="f" cx="6" cy="6" r="6"/><circle class="g" cx="6" cy="6" r="5.5"/></g><path class="e" d="M20.417,6,15.1,11.326l-1.6-1.6" transform="translate(4.583 8.815)"/></g></g></svg>