<svg xmlns="http://www.w3.org/2000/svg" viewBox="0 0 25.06 21.46"><defs><style>.a{opacity:0.7;}.b,.d,.e{fill:none;stroke:#0a1627;}.c{fill:#0a1627;}.d,.e{stroke-linecap:round;}.d{stroke-linejoin:round;}</style></defs><g class="a" transform="translate(236.5 20695.605)"><path class="b" d="M7.661,9.214A2.786,2.786,0,1,1,4.875,12,2.788,2.788,0,0,1,7.661,9.214ZM2.921,18.1a2.79,2.79,0,0,1,2.651-1.924h.357a4.483,4.483,0,0,0,3.465,0H9.75A2.79,2.79,0,0,1,12.4,18.1a.686.686,0,0,1-.679.862H3.6A.687.687,0,0,1,2.921,18.1Z" transform="translate(-235.606 -20697.25)"/><g transform="translate(-226.17 -20699.543)"><path class="c" d="M9.339,14.74A5.4,5.4,0,0,1,5.59,5.45a.434.434,0,1,1,.6.624A4.533,4.533,0,1,0,9.771,4.826V6.517a.435.435,0,1,1-.87,0V4.372a.435.435,0,0,1,.435-.435,5.4,5.4,0,0,1,0,10.8Z" transform="translate(0 0)"/><path class="c" d="M11.681,11.3l2.687,1.931a.813.813,0,0,1-.945,1.323.785.785,0,0,1-.189-.189L11.3,11.68a.271.271,0,0,1,.378-.378Z" transform="translate(-4.505 -4.505)"/></g><path class="d" d="M-223.473-20720.875H-234s-2-.348-2,2.693v11.047c0,1.389,0,2.584,2,2.584h17.49s1.909.436,1.909-1.924v-6.949" transform="translate(0 29.875)"/><path class="e" d="M5.218,0H0" transform="translate(-221.5 -20680.893)"/><line class="e" x2="5" transform="translate(-221.5 -20683.5)"/><line class="e" x1="4.667" transform="translate(-221.5 -20678.285)"/></g></svg>