<svg xmlns="http://www.w3.org/2000/svg" width="88.845" height="33.694" viewBox="0 0 88.845 33.694"><defs><style>.a{fill:#00b0ce;stroke:#00b0ce;stroke-width:0.8px;}</style></defs><g transform="translate(0.544 0.436)"><path class="a" d="M1957.593,401.435c-.01-.58-.98-.9-1.943-1.071V392.3h-.121v8.047a15.052,15.052,0,0,0-1.727-.178.76.76,0,0,0-.187-.553,1.874,1.874,0,0,0-1.366-.413c-.271-.008-.6-.02-.967-.033-1.414-.05-3.35-.119-4.358-.08a16.4,16.4,0,0,1-4.28-.315c-.021-.037-.045-.072-.066-.108l.015-.02-.052-.04a8.726,8.726,0,0,0-4.705-3.649,5.041,5.041,0,0,0-1.668-1.832l0-.013-.043-.009a3.606,3.606,0,0,0-.792-.327c-2.788-.431-11.04-.266-13.942.648-.342.108-.663.193-.974.276a3.849,3.849,0,0,0-2.75,1.65,19.971,19.971,0,0,0-4.788,3.006c-.043,0-.15-.011-.312-.026v-.031h-.34c-1.685-.162-6.249-.635-10.366-1.062-4.7-.488-9.146-.948-9.311-.948a43.018,43.018,0,0,1-5.97-1.137,20.631,20.631,0,0,1-3.392-3.33c-.4-.451-6.681-7.9-6.744-7.973l-.014-.017-2.792.081-.007-.026-.087.024v0l-3.857.112,4.625,14.371a3.03,3.03,0,0,0-.124,2.669l.006.011c.352.483,1.291.637,2.12.773.254.042.494.081.709.128,16.161,3.365,39.01,7.283,48.359,7.966l.049.037c.008-.011.014-.021.021-.032.208.015.411.028.605.04l.454,1.068-3.613.034a.937.937,0,0,0-.641.345,2.2,2.2,0,0,0-.578,1.678,1.2,1.2,0,0,0,.9,1.1,2.122,2.122,0,0,1,.67.407.045.045,0,0,0,.026.013l.469.061c.948.124,1.791.234,2.58.321a2.177,2.177,0,0,0,2.08,1.634l.1,0a1.976,1.976,0,0,0,1.88-1.46c.2-.009.41-.02.62-.036a.045.045,0,0,0,.02-.006c1.265-.724,2.04-1.2,2.056-1.758a.044.044,0,0,0,0-.006,2.536,2.536,0,0,0-1.181-1.561,3.4,3.4,0,0,0-2.234-.8l-1.482.014.019-.008-.406-.956c2.571.137,4.9.207,7.29.207,2.644,0,5.371-.085,8.6-.255l-.685.81a.045.045,0,0,0,0,.063l1.007.925-2.813.027a.778.778,0,0,0-.544.292,1.848,1.848,0,0,0-.486,1.41,1.012,1.012,0,0,0,.762.93,1.773,1.773,0,0,1,.559.34.045.045,0,0,0,.026.013l.392.051a36.431,36.431,0,0,0,4.775.431q.3,0,.6-.01a1.584,1.584,0,0,1-1.269,1.272c-.789.119-1.559-.4-2.114-1.437l-.08.043a2.4,2.4,0,0,0,1.971,1.5,1.558,1.558,0,0,0,.236-.018,1.677,1.677,0,0,0,1.349-1.364c.206-.008.414-.019.627-.035a.045.045,0,0,0,.02-.006c1.062-.607,1.714-1,1.728-1.478a.044.044,0,0,0,0-.006,2.127,2.127,0,0,0-.99-1.31,2.86,2.86,0,0,0-1.881-.671l-1.39.013v-1.921a11.881,11.881,0,0,0,5.458-1.67,3.827,3.827,0,0,0,.915-.859l.088,0,0-.125a15.8,15.8,0,0,0,1.868-4.1,13.64,13.64,0,0,0,1.7-.314v7.351h.121v-7.383C1956.619,402.529,1957.6,402.1,1957.593,401.435Zm-22.275-8.576a3.5,3.5,0,0,1,.748.307,1.19,1.19,0,0,1-1.221,1.106l-.041,0v.027a40.691,40.691,0,0,1-5.668.189,39.622,39.622,0,0,1-6.124-.307c-.237-.1-.447-.654-.532-.934A54.461,54.461,0,0,1,1935.317,392.859Zm-22.421,5.583h.016l.012-.009a19.777,19.777,0,0,1,4.8-3.012l.012-.006.007-.012a3.772,3.772,0,0,1,2.7-1.621c.312-.083.634-.169.978-.277a9.27,9.27,0,0,1,.967-.238c.064.212.284.871.585,1l.036.013-1.785,1.411-3.375-.138c-.013-.055-.025-.089-.027-.094l-.085.031a1.4,1.4,0,0,1,0,.824,30.952,30.952,0,0,1-1.639,2.669,1.339,1.339,0,0,1-.931.589l-2.291-1.131Zm-36.5-14.524c.335.4,6.34,7.516,6.732,7.958a20.614,20.614,0,0,0,3.418,3.35,41.528,41.528,0,0,0,6.012,1.147c.16,0,4.6.46,9.3.948,3.642.378,7.369.764,9.428.97l-24.1-.058v.081c-1.216-.455-4.261-.4-7.185-.288l-6.656-12.113.665-.665-.341-1.251Zm3.62,14.321.079-.044-.044-.081c3.439-.133,7.258-.183,7.576.626a.294.294,0,0,1-.123.2c-.761.606-4.662.394-11.6-.633l-.141-.021c.768-.019,1.683-.059,2.64-.1.495-.022,1.014-.044,1.543-.065Zm-5.736,2.787a2.935,2.935,0,0,1,.1-2.545l.911,3.074A1.822,1.822,0,0,1,1874.276,401.026Zm54.237,15.533a2.073,2.073,0,0,1-2.081-1.53,27.753,27.753,0,0,0,3.012.183q.423,0,.858-.018A1.89,1.89,0,0,1,1928.513,416.559Zm1.175-5.445a3.362,3.362,0,0,1,2.171.782A2.46,2.46,0,0,1,1933,413.39c-.017.512-.772.97-2,1.674a24.324,24.324,0,0,1-4.6-.13c0-.012-.008-.023-.012-.035l-.083.025c-.778-.086-1.608-.194-2.541-.316l-.454-.059a2.225,2.225,0,0,0-.685-.415c-.421-.188-.784-.349-.85-1.029a2.105,2.105,0,0,1,.553-1.607.841.841,0,0,1,.574-.317Zm-3.073-.06-.451-1.061h.005l.005-.09-.05,0-.011-.027-.054.023q-.272-.016-.562-.037a.4.4,0,0,0-.017-.227c-.037-.128-.071-.249.165-.471a3.419,3.419,0,0,1,2.533-.057.175.175,0,0,1,.083.125c.015.144-.165.338-.324.509a1.643,1.643,0,0,0-.23.282l-.01.019.424,1Zm1.183-1.008,0,0v.009Zm19.1,1.84a2.818,2.818,0,0,1,1.818.656,2.047,2.047,0,0,1,.952,1.243c-.014.424-.646.807-1.673,1.394a28.059,28.059,0,0,1-6.065-.382l-.378-.049a1.874,1.874,0,0,0-.575-.347c-.351-.156-.653-.291-.708-.856a1.753,1.753,0,0,1,.461-1.338.691.691,0,0,1,.477-.264l2.912-.028.024.022.021-.022Zm-2.744-.063-1.046-.961.7-.834,1.595-.141v1.924Zm6.753-3.68a11.773,11.773,0,0,1-5.365,1.652v-.011l-1.636.145v0a137.9,137.9,0,0,1-16.064.061c.044-.056.1-.12.164-.185.172-.185.366-.395.347-.58a.264.264,0,0,0-.12-.19,3.477,3.477,0,0,0-2.648.065c-.276.26-.228.427-.19.562a.3.3,0,0,1,.012.2c-9.337-.681-32.193-4.6-48.357-7.965-.216-.047-.458-.087-.713-.129-.312-.051-.639-.105-.943-.178l-.964-3.254-.033.01-4.578-14.227,3.758-.109.333,1.221-.676.676,6.667,12.133c-.507.02-1.01.042-1.5.063-1.211.053-2.355.1-3.218.11v.091c.04,0,.321.043.71.1a78.723,78.723,0,0,0,9.429.97,4.4,4.4,0,0,0,2.237-.356.381.381,0,0,0,.157-.27v-.01l0-.009a.791.791,0,0,0-.5-.4l25.015.06.453.042-.008.015,2.469,1.219.012.006.013,0a1.426,1.426,0,0,0,1.007-.629,29.841,29.841,0,0,0,1.651-2.693,1.479,1.479,0,0,0,.045-.7l3.382.138,0,0,0,0,12.178.5.4.494.008.058h-6.923c-.054.011-.111.018-.168.025-.3.036-.639.078-.6.69v2.682c0,.1.017,1.021.594,1.021.482,0,7.577.03,7.649.03v-.09c-.072,0-7.167-.031-7.649-.031s-.5-.835-.5-.93v-2.685c-.034-.53.222-.561.52-.6.059-.007.119-.014.166-.025h6.927l1.554,10.933-.041-.038a.779.779,0,0,1-.333.135v-.028c-.069,0-6.915.055-8.342-.06-.524-.093-1.067-.349-1.121-1.543-.108-1.61.12-10.21.122-10.3l-.091,0c0,.087-.23,8.691-.122,10.3.057,1.264.669,1.534,1.2,1.628.74.06,2.921.074,4.868.074,1.391,0,2.662-.007,3.207-.011-.276.065-.539.142-.624.312a.306.306,0,0,0,.008.269c.3.668,1.389.758,2.419.758.956,0,1.483-.259,1.568-.769a.357.357,0,0,0-.085-.283,2.545,2.545,0,0,0-1.322-.61L1935.2,396.64l.6-1.329-.083-.037-.015.033-.32-.011a7.387,7.387,0,0,0-2.378.2l.023.087a7.316,7.316,0,0,1,2.351-.193l.283.01-.559,1.23,1.517,11.055h0l-.008.09.024,0,.057.415.089-.012-.053-.389a2.5,2.5,0,0,1,1.237.572.272.272,0,0,1,.068.212c-.077.46-.574.694-1.479.694-.942,0-2.058-.08-2.336-.7a.215.215,0,0,1-.01-.192c.077-.154.394-.226.675-.29a1.362,1.362,0,0,0,.527-.184l.063.446.09-.013-1.646-11.581,0-.012-.408-.51,0-.034h-.03l-.546-.683-.071.057.5.621-11.994-.489,1.754-1.387a48.012,48.012,0,0,0,5.978.272l.694,0a32.4,32.4,0,0,0,5.067-.21.085.085,0,0,0,.016-.013,1.265,1.265,0,0,0,1.272-1.147,5.046,5.046,0,0,1,1.623,1.8l.01.016.018,0,.06.016a4.444,4.444,0,0,1-2.407,1.079l.015.089a4.526,4.526,0,0,0,2.461-1.109l-.052-.056a8.821,8.821,0,0,1,4.6,3.6c-1.037,1.33-2.6,2.615-6.184,2.266l-.968-4.357-.088.02.982,4.42.033,0c.422.042.815.062,1.184.062a5.839,5.839,0,0,0,5.091-2.331c.018.031.036.061.054.092l.008.014.015.006.006,0-.06,6.437v.017l1.219,1.4-.121,3.152.09,0,.123-3.187-1.219-1.4.028-2.958c.638-.041,8.765-.558,9.379-.576l-.167,5.468A3.848,3.848,0,0,1,1950.907,408.143Zm2.886-5.093h0a18.39,18.39,0,0,0-.008-2.716l-.084.034a19.61,19.61,0,0,1,0,2.785l.032,0a16.3,16.3,0,0,1-1.761,3.924l.235-7.7-.091,0-.069,2.273c-.6.016-8.624.528-9.381.576l.031-3.342a18.4,18.4,0,0,0,4.4.294v-.005c1.04-.026,2.845.038,4.183.085l.967.033a1.825,1.825,0,0,1,1.3.383.68.68,0,0,1,.161.533l0,.047.047,0a15.645,15.645,0,0,1,1.776.183v2.291A14.055,14.055,0,0,1,1953.793,403.05Zm1.857-.355v-2.238c.925.166,1.843.461,1.852.98C1957.512,402.038,1956.582,402.442,1955.65,402.7Z" transform="translate(-1869.692 -383.827)"/><path class="a" d="M2241.859,529.621c0-.73-.263-.869-.75-.869l-3.147.023a.62.62,0,0,0-.493.162.73.73,0,0,0-.166.569l.046,4.9c.022.544.043,1.058.788,1.352l2.921.508.1.011c.24.027.422.047.56.047a.431.431,0,0,0,.308-.084c.074-.07.1-.181.091-.384Zm.1,6.551c-.094.089-.342.061-.79.011l-.093-.01-2.91-.505c-.676-.268-.694-.707-.716-1.261l-.046-4.9a.662.662,0,0,1,.139-.5.506.506,0,0,1,.379-.134h.043l3.149-.023c.394,0,.652.054.652.773v0l.254,6.239C2242.024,536.032,2242.005,536.124,2241.955,536.172Z" transform="translate(-2193.108 -511.604)"/><rect class="a" width="0.097" height="3.657" transform="translate(11.05 15.119) rotate(-1.023)"/><path class="a" d="M2267.024,489.317l-5.947-.188a.99.99,0,0,0-.953.571c-.16.275-1.561,2.7-1.44,3.044.143.407,2.547,1.268,3.112,1.306.134.009.419.013.792.013.8,0,2.014-.017,2.98-.03.61-.008,1.136-.015,1.36-.016.522-.036.686-.214.731-.8l.1-3.233a.649.649,0,0,0-.117-.492A.861.861,0,0,0,2267.024,489.317Zm.635.667-.1,3.231c-.041.535-.167.673-.637.705-.222,0-.724.007-1.359.015-1.41.019-3.343.045-3.764.017a7.847,7.847,0,0,1-3.027-1.241,13.132,13.132,0,0,1,1.435-2.968.9.9,0,0,1,.867-.518l5.942.188c.281.013.451.041.547.147A.566.566,0,0,1,2267.66,489.984Z" transform="translate(-2212.092 -476.569)"/></g></svg>