<svg xmlns="http://www.w3.org/2000/svg" width="101.01" height="38.234" viewBox="0 0 101.01 38.234"><defs><style>.a{fill:#35bbd7;stroke:#35bbd7;stroke-width:0.8px;}</style></defs><g transform="translate(0.544 0.429)"><path class="a" d="M1969.758,403.872c-.011-.66-1.116-1.022-2.211-1.22v-9.184h-.138v9.16a17.138,17.138,0,0,0-1.966-.2.864.864,0,0,0-.213-.63,2.132,2.132,0,0,0-1.555-.47c-.309-.009-.685-.023-1.1-.038-1.609-.057-3.813-.135-4.961-.091a18.669,18.669,0,0,1-4.872-.358c-.023-.042-.051-.082-.076-.123l.018-.023-.06-.046a9.932,9.932,0,0,0-5.356-4.154,5.738,5.738,0,0,0-1.9-2.086l0-.015-.049-.01a4.1,4.1,0,0,0-.9-.372c-3.174-.49-12.568-.3-15.871.738-.389.123-.755.22-1.109.314-1.331.354-2.383.634-3.131,1.879a22.726,22.726,0,0,0-5.451,3.422c-.049,0-.17-.012-.355-.029V400.3h-.386c-1.918-.185-7.113-.723-11.8-1.209-5.355-.555-10.412-1.079-10.6-1.079a48.973,48.973,0,0,1-6.8-1.295,23.487,23.487,0,0,1-3.861-3.791c-.455-.514-7.606-8.991-7.678-9.076l-.016-.019-3.178.093-.008-.03-.1.027,0,.005-4.391.128,5.265,16.36a3.451,3.451,0,0,0-.141,3.038l.007.013c.4.55,1.47.725,2.413.88.29.048.563.092.807.146,18.4,3.831,44.409,8.29,55.052,9.068l.056.042c.009-.012.016-.024.024-.036.238.017.468.032.689.046l.517,1.216-4.112.039a1.067,1.067,0,0,0-.729.393,2.5,2.5,0,0,0-.658,1.91,1.367,1.367,0,0,0,1.028,1.256,2.416,2.416,0,0,1,.762.464.052.052,0,0,0,.029.014l.534.07c1.079.141,2.038.267,2.937.365a2.478,2.478,0,0,0,2.368,1.861c.04,0,.08,0,.119,0a2.249,2.249,0,0,0,2.14-1.663c.232-.01.467-.023.706-.041a.049.049,0,0,0,.022-.007c1.44-.824,2.323-1.361,2.341-2a.058.058,0,0,0,0-.007,2.888,2.888,0,0,0-1.344-1.777,3.868,3.868,0,0,0-2.543-.908l-1.686.016.022-.009-.462-1.088c2.927.156,5.575.235,8.3.235,3.01,0,6.114-.1,9.787-.291l-.78.923a.051.051,0,0,0,0,.071l1.146,1.053-3.2.031a.885.885,0,0,0-.619.332,2.1,2.1,0,0,0-.553,1.6,1.152,1.152,0,0,0,.867,1.059,2.02,2.02,0,0,1,.637.387.052.052,0,0,0,.03.014l.446.058a41.469,41.469,0,0,0,5.435.49q.337,0,.681-.012a1.8,1.8,0,0,1-1.445,1.448c-.9.135-1.774-.46-2.406-1.635l-.091.049a2.735,2.735,0,0,0,2.244,1.709,1.769,1.769,0,0,0,.269-.02,1.909,1.909,0,0,0,1.536-1.553c.234-.009.472-.022.714-.04a.051.051,0,0,0,.022-.007c1.209-.691,1.952-1.142,1.967-1.682a.057.057,0,0,0,0-.006,2.421,2.421,0,0,0-1.127-1.492,3.256,3.256,0,0,0-2.141-.764l-1.582.015V413.5a13.526,13.526,0,0,0,6.213-1.9,4.364,4.364,0,0,0,1.041-.978l.1,0,0-.143a17.991,17.991,0,0,0,2.127-4.667,15.536,15.536,0,0,0,1.933-.357v8.368h.138v-8.4C1968.65,405.118,1969.771,404.628,1969.758,403.872ZM1944.4,394.11a3.985,3.985,0,0,1,.851.349,1.354,1.354,0,0,1-1.39,1.259l-.047,0v.03a46.314,46.314,0,0,1-6.452.215,45.106,45.106,0,0,1-6.972-.35c-.269-.115-.509-.744-.605-1.063A62,62,0,0,1,1944.4,394.11Zm-25.524,6.356h.018l.014-.011a22.517,22.517,0,0,1,5.462-3.429l.014-.007.008-.013c.727-1.219,1.764-1.5,3.077-1.845.355-.095.722-.192,1.114-.316a10.565,10.565,0,0,1,1.1-.271c.073.242.324.991.666,1.138l.041.015-2.032,1.606-3.843-.157a1.035,1.035,0,0,0-.03-.107l-.1.035a1.593,1.593,0,0,1,0,.938,35.251,35.251,0,0,1-1.866,3.039,1.525,1.525,0,0,1-1.059.671l-2.608-1.288Zm-41.556-16.534c.382.452,7.218,8.556,7.664,9.059a23.452,23.452,0,0,0,3.891,3.814,47.273,47.273,0,0,0,6.844,1.306c.182,0,5.237.524,10.589,1.079,4.146.43,8.389.87,10.733,1.1l-27.435-.066v.092c-1.384-.518-4.85-.458-8.179-.328l-7.577-13.789.757-.757-.388-1.424Zm4.121,16.3.091-.05-.051-.092c3.915-.152,8.262-.209,8.625.713a.337.337,0,0,1-.14.224c-.866.69-5.307.448-13.2-.721l-.16-.024c.875-.021,1.916-.067,3.005-.114.563-.025,1.154-.05,1.756-.074Zm-6.529,3.172a3.341,3.341,0,0,1,.116-2.9l1.037,3.5A2.073,2.073,0,0,1,1874.911,403.407Zm61.743,17.682a2.36,2.36,0,0,1-2.368-1.742,31.593,31.593,0,0,0,3.429.208q.482,0,.977-.021A2.152,2.152,0,0,1,1936.653,421.089Zm1.338-6.2a3.828,3.828,0,0,1,2.471.89,2.8,2.8,0,0,1,1.3,1.7c-.02.582-.879,1.1-2.279,1.906a27.694,27.694,0,0,1-5.237-.148c0-.014-.009-.026-.013-.04l-.094.028c-.886-.1-1.831-.221-2.892-.36l-.517-.068a2.53,2.53,0,0,0-.78-.473c-.479-.214-.893-.4-.967-1.172a2.4,2.4,0,0,1,.63-1.829.957.957,0,0,1,.653-.361Zm-3.5-.068-.514-1.208h.006l.006-.1-.057,0-.013-.031-.062.026q-.31-.019-.639-.042a.461.461,0,0,0-.019-.258c-.042-.146-.081-.283.188-.536.5-.474,2.511-.332,2.884-.065a.2.2,0,0,1,.095.143c.017.164-.188.385-.369.58a1.87,1.87,0,0,0-.261.322l-.012.022.483,1.138Zm1.346-1.148,0,0v.01Zm21.745,2.1a3.208,3.208,0,0,1,2.069.746,2.332,2.332,0,0,1,1.085,1.415c-.017.483-.735.918-1.905,1.587a31.943,31.943,0,0,1-6.9-.435l-.43-.056a2.134,2.134,0,0,0-.655-.4c-.4-.178-.744-.331-.806-.974a2,2,0,0,1,.525-1.524.786.786,0,0,1,.543-.3l3.315-.032.027.025.023-.025Zm-3.124-.072-1.191-1.094.8-.949,1.816-.161v2.19Zm7.687-4.189a13.4,13.4,0,0,1-6.108,1.881v-.013l-1.863.165v0a156.989,156.989,0,0,1-18.288.07c.05-.064.117-.136.186-.211.2-.211.417-.449.4-.66a.3.3,0,0,0-.137-.216c-.4-.285-2.469-.439-3.014.074-.315.3-.26.486-.216.639a.335.335,0,0,1,.014.222c-10.63-.775-36.649-5.235-55.05-9.067-.246-.054-.521-.1-.812-.147-.355-.058-.728-.12-1.074-.2l-1.1-3.7-.038.011-5.212-16.2,4.278-.125.379,1.39-.77.77,7.59,13.812c-.577.023-1.15.048-1.705.072-1.378.06-2.681.117-3.663.125v.1c.045,0,.365.048.808.114a89.62,89.62,0,0,0,10.734,1.1,5,5,0,0,0,2.547-.406.433.433,0,0,0,.179-.307v-.011l0-.01a.9.9,0,0,0-.569-.451l28.477.068.516.048-.009.017,2.81,1.388.014.007.015,0a1.623,1.623,0,0,0,1.147-.716,34.109,34.109,0,0,0,1.88-3.066,1.687,1.687,0,0,0,.051-.794l3.85.157,0,0,0,0,13.864.565.45.563.01.066h-7.881c-.062.012-.127.02-.192.028-.341.041-.728.088-.682.786V402.5c0,.119.019,1.162.676,1.162.548,0,8.626.034,8.708.035v-.1c-.081,0-8.159-.035-8.708-.035s-.573-.95-.573-1.059v-3.056c-.039-.6.253-.639.592-.68.068-.008.135-.017.189-.028h7.886l1.768,12.447-.046-.044a.888.888,0,0,1-.379.154v-.032c-.078,0-7.872.062-9.5-.069-.6-.106-1.215-.4-1.276-1.757-.123-1.833.136-11.623.139-11.722l-.1,0c0,.1-.262,9.894-.139,11.73.065,1.439.761,1.746,1.366,1.853.843.068,3.325.084,5.542.084,1.583,0,3.031-.008,3.65-.013-.314.074-.613.162-.71.355a.347.347,0,0,0,.009.306c.338.761,1.582.863,2.753.863,1.088,0,1.689-.295,1.785-.876a.405.405,0,0,0-.1-.322,2.9,2.9,0,0,0-1.5-.695l-1.727-12.584.688-1.513-.094-.043-.017.038-.365-.012a8.409,8.409,0,0,0-2.707.223l.026.1a8.328,8.328,0,0,1,2.676-.22l.323.011-.637,1.4,1.727,12.585h0l-.009.1.028,0,.065.473.1-.014-.06-.443a2.848,2.848,0,0,1,1.409.651.31.31,0,0,1,.077.242c-.088.524-.654.79-1.684.79-1.072,0-2.343-.091-2.659-.8a.247.247,0,0,1-.011-.218c.088-.176.449-.257.768-.33a1.552,1.552,0,0,0,.6-.21l.072.508.1-.015-1.873-13.184,0-.014-.465-.581,0-.039h-.034l-.622-.777-.08.064.566.707-13.654-.557,2-1.578a54.654,54.654,0,0,0,6.805.309l.79,0a36.886,36.886,0,0,0,5.769-.239.1.1,0,0,0,.019-.015,1.44,1.44,0,0,0,1.448-1.306,5.743,5.743,0,0,1,1.847,2.053l.011.018.021,0,.068.018a5.06,5.06,0,0,1-2.74,1.229l.017.1a5.153,5.153,0,0,0,2.8-1.262l-.059-.063a10.041,10.041,0,0,1,5.233,4.094c-1.181,1.514-2.957,2.977-7.04,2.58l-1.1-4.959-.1.022,1.118,5.032.037,0c.48.048.928.07,1.348.07a6.647,6.647,0,0,0,5.8-2.653c.02.035.042.07.061.1l.009.016.018.007.007,0-.069,7.328v.02l1.387,1.6-.138,3.588.1,0,.14-3.628-1.388-1.6.032-3.367c.726-.046,9.978-.635,10.677-.656l-.19,6.224A4.38,4.38,0,0,1,1962.147,411.508Zm3.285-5.8h0a20.91,20.91,0,0,0-.009-3.092l-.1.038a22.347,22.347,0,0,1,0,3.17l.036,0a18.554,18.554,0,0,1-2.005,4.467l.268-8.767-.1,0-.079,2.587c-.677.019-9.817.6-10.679.656l.036-3.8a20.944,20.944,0,0,0,5.011.335v-.006c1.184-.029,3.239.043,4.762.1.416.015.792.028,1.1.038a2.077,2.077,0,0,1,1.482.436.773.773,0,0,1,.184.607l0,.053.054,0a17.811,17.811,0,0,1,2.022.208v2.608A16,16,0,0,1,1965.432,405.711Zm2.114-.4v-2.548c1.053.189,2.1.525,2.108,1.116C1969.667,404.559,1968.607,405.018,1967.546,405.306Z" transform="translate(-1869.692 -383.827)"/><path class="a" d="M2241.859,529.621c0-.73-.263-.869-.75-.869l-3.147.023a.62.62,0,0,0-.493.162.73.73,0,0,0-.166.569l.046,4.9c.022.544.043,1.058.788,1.352l2.921.508.1.011c.24.027.422.047.56.047a.431.431,0,0,0,.308-.084c.074-.07.1-.181.091-.384Zm.1,6.551c-.094.089-.342.061-.79.011l-.093-.01-2.91-.505c-.676-.268-.694-.707-.716-1.261l-.046-4.9a.662.662,0,0,1,.139-.5.506.506,0,0,1,.379-.134h.043l3.149-.023c.394,0,.652.054.652.773v0l.254,6.239C2242.024,536.032,2242.005,536.124,2241.955,536.172Z" transform="translate(-2186.637 -508.52)"/><rect class="a" width="0.097" height="3.657" transform="translate(11.05 17.474) rotate(-1.023)"/><path class="a" d="M2267.024,489.317l-5.947-.188a.99.99,0,0,0-.953.571c-.16.275-1.561,2.7-1.44,3.044.143.407,2.547,1.268,3.112,1.306.134.009.419.013.792.013.8,0,2.014-.017,2.98-.03.61-.008,1.136-.015,1.36-.016.522-.036.686-.214.731-.8l.1-3.233a.649.649,0,0,0-.117-.492A.861.861,0,0,0,2267.024,489.317Zm.635.667-.1,3.231c-.041.535-.167.673-.637.705-.222,0-.724.007-1.359.015-1.41.019-3.343.045-3.764.017a7.847,7.847,0,0,1-3.027-1.241,13.132,13.132,0,0,1,1.435-2.968.9.9,0,0,1,.867-.518l5.942.188c.281.013.451.041.547.147A.566.566,0,0,1,2267.66,489.984Z" transform="translate(-2204.902 -474.524)"/></g></svg>