<svg xmlns="http://www.w3.org/2000/svg" width="93.135" height="34.815" viewBox="0 0 93.135 34.815"><defs><style>.a{fill:#35bbd7;stroke:#35bbd7;stroke-width:0.8px;}</style></defs><g transform="translate(0.406 0.497)"><path class="a" d="M2015.761,1309.142c0-.418-.758-.825-1.686-1.165l.231-9.791-.141,0-.23,9.744a26.8,26.8,0,0,0-3.127-.843l-.011.053a.614.614,0,0,0-.15-.365,1.846,1.846,0,0,0-1.333-.4l-.434-.069a37.958,37.958,0,0,0-7.548-.63l-2.876-.069a1.462,1.462,0,0,0-.119-.158l-.08.07c.023.026.045.055.068.085l-.37-.009-.658-.273c-.022-.01-.138-.093-.284-.2a27.713,27.713,0,0,0-7.854-4.147,10.52,10.52,0,0,0-2.35-.616c-.042,0-5.547.058-7.993.388s-12.116,1.581-12.214,1.593l-12.214,1.628-7.634,1.112.014-1.152h-.106l-.014,1.169-4.923.717-6.848.918-4.057-14.043,3.255-.246c.829,1.091,4.144,5.4,6.716,8.067,2.96,3.063,4.971,3.247,5.06,3.254l9.607-.179,15.524-1.86-.013-.1-15.519,1.859-9.6.179c-.021,0-2.06-.192-4.987-3.222-2.894-3-6.733-8.089-6.9-8.307-.038-.1-.353-.621-2.858-.743a44.832,44.832,0,0,1-4.562-.442l-.082-.014,4.611,16.346a.781.781,0,0,0-.555.764,6.7,6.7,0,0,0,.069.916l-.852.018-2.1.235-.286.019a30.816,30.816,0,0,0-3.538.376.859.859,0,0,0-.3.12.2.2,0,0,0-.077.219.2.2,0,0,0,.188.15l6.376.262,1.031-.128h0a1.707,1.707,0,0,0,.3.34,10.46,10.46,0,0,0,3.266,1.048l28.042,3.857c.03,0,3,.4,5.23.423s9.531.572,9.6.578l0-.066-.013,1.1-.92-.011-.019,1.583c-.408.1-3.623.954-3.727,1.882a.421.421,0,0,0,.113.312c.576.7,3.241,1.356,4.035,1.425.21.018.469.034.773.048a2.277,2.277,0,0,0,2.238,2.1h.027a2.279,2.279,0,0,0,2.26-2.04c1.286,0,2.28-.018,2.293-.019h.013l.012-.007a1.244,1.244,0,0,0,.6-.924c.04-.567-.368-1.186-1.214-1.839a5.706,5.706,0,0,0-2.533-.966l.018-1.5-.489-.006.013-1.125c.294,0,1.814-.027,3.683-.048-.3.024-.606.046-.922.064l.006.106c.777-.046,1.505-.109,2.182-.183,2.064-.02,4.3-.033,5.708-.016,2.643.029,8.271-.368,10.194-.511l-.011.9-1.486.363-.506,1.632-4.338-.068,1,2.349.017.009a12.727,12.727,0,0,0,3.42.988c.333.029.787.052,1.355.07a2.277,2.277,0,0,0,2.237,2.085h.027a2.279,2.279,0,0,0,2.252-1.976,1.31,1.31,0,0,0,.679.194h.015l.013-.008a1.448,1.448,0,0,0,.659-1.093c.021-.629-.449-1.291-1.4-1.966a5.031,5.031,0,0,0-2.215-1.068,3.627,3.627,0,0,1-.347-1.775l.006-.073-.637.156.01-.786a29.267,29.267,0,0,0,5.383-1.587c.125-.071.244-.136.357-.2a4.173,4.173,0,0,0,2.351-2.705l0-.037.007.071a17.517,17.517,0,0,0,3.2-.653l-.239,10.112.141,0,.24-10.163C2014.973,1310.266,2015.764,1309.793,2015.761,1309.142Zm-18.558-3.761-1.83,1.164a1.955,1.955,0,0,1-1.243.359c-.677-.034-1.339-.021-1.486-.017l-3.353-5.221-.039-.555a27.83,27.83,0,0,1,7.7,4.091C1997.082,1305.3,1997.158,1305.351,1997.2,1305.381Zm-63.333-13.221.009.018.119.157-3.161.239.31-1.087C1933.657,1291.614,1933.869,1292.156,1933.871,1292.16Zm-2.831-.678-.314,1.1-3.6.273-.508-1.8C1927,1291.114,1928.748,1291.367,1931.039,1291.481Zm-3.887,1.478,3.559-.269,4.059,14.049-3.416.458a1.158,1.158,0,0,0-.176.037Zm2.849,17.281-6.367-.263a.1.1,0,0,1-.091-.073.09.09,0,0,1,.035-.1.754.754,0,0,1,.262-.1,30.746,30.746,0,0,1,3.522-.373l.291-.02,2.094-.234,6.269-.13h.008a.362.362,0,0,1,.238.09l.127.111a.134.134,0,0,1,.046.1.119.119,0,0,1-.044.092.867.867,0,0,1-.429.161Zm49.992,14.493h-.025a2.171,2.171,0,0,1-2.133-1.989q.527.022,1.225.036a.96.96,0,0,0,.922.746h.011a.959.959,0,0,0,.928-.726h1.225A2.173,2.173,0,0,1,1979.994,1324.734Zm-.823-1.952q.732.013,1.642.017a.85.85,0,0,1-1.642-.017Zm5.9-.94a1.149,1.149,0,0,1-.535.834c-.172,0-1.852.025-3.632.018h0c-1.871-.007-3.2-.043-3.934-.108-.758-.066-3.413-.717-3.962-1.386a.32.32,0,0,1-.09-.233c.1-.9,3.651-1.793,3.682-1.8a18.919,18.919,0,0,1,2.619-.181,8.122,8.122,0,0,1,4.68,1.111C1984.709,1320.726,1985.1,1321.314,1985.066,1321.843Zm-3.73-4.191-.016,1.378a17.711,17.711,0,0,0-4.679.023l.017-1.456,2.428.029,1.867.022h0Zm-3.756-.15.021-1.814,3.269.039-.021,1.814-1.718-.02Zm3.389-1.191.008-.69-3.481-.041-.009.779c-.1-.008-3.961-.3-6.914-.463l-.988-.234-1.215-4.54c.43-.043,3.407-.242,14.763.873h.212a84.094,84.094,0,0,0,8.475-.733h.038a2.733,2.733,0,0,0,1.083-.208l-3.263,3.446,2.758.032-.878.645a31.106,31.106,0,0,1-5.648,1.071C1983.507,1316.273,1981.336,1316.306,1980.969,1316.311Zm12.551-6.124a.735.735,0,0,1-.141.408l-.17.179a2.243,2.243,0,0,1-1.36.385h-.035a81.57,81.57,0,0,1-8.674.731c-7.859-.772-11.71-.914-13.482-.914-.415,0-.716.008-.928.017,1.872-.439,9.368-1.9,12.457-2.487,3.96-.7,11.1.5,12.048,1.3.055.047.084.089.083.123v.02Zm-1.893,6.047c-1.2-.014-2.986-.007-4.762.008a29.113,29.113,0,0,0,4.735-.964l1.155-.845-2.832-.034,3.36-3.547a.875.875,0,0,0,.344-.684v-.02l-.2-.235a.3.3,0,0,0-.12-.183c-.957-.812-8.152-2.033-12.135-1.328-.032.006-3.266.626-6.457,1.255-6.5,1.282-6.5,1.342-6.49,1.418a.054.054,0,0,0,.041.048l1.23,4.6.008.031.477.113c-.859-.046-1.6-.077-2.1-.083-2.224-.026-5.188-.419-5.218-.422l-28.04-3.857a10.659,10.659,0,0,1-3.213-1.024,1.586,1.586,0,0,1-.249-.275l4.817-.6h0a.97.97,0,0,0,.482-.183.226.226,0,0,0,.083-.172.24.24,0,0,0-.082-.185l-.127-.111a.482.482,0,0,0-.318-.116l-5.315.11a6.539,6.539,0,0,1-.069-.915c-.008-.648.705-.726.737-.729l10.372-1.391,12.663-1.845,12.214-1.627c.1-.013,9.779-1.265,12.214-1.593,2.462-.332,7.892-.387,7.977-.387h0a10.651,10.651,0,0,1,2.317.61l.02.006.044.625,3.383,5.269.016.025h.03c.007,0,.748-.022,1.507.016l.107,0a2.043,2.043,0,0,0,1.2-.381l1.879-1.2.609.252.472.012c1.156,1.845,1.651,9.414,1.7,10.146C1997.575,1316.02,1993.686,1316.257,1991.626,1316.234Zm11.91,7.816h-.025a2.171,2.171,0,0,1-2.132-1.976q.545.016,1.224.025a.96.96,0,0,0,.921.744h.012a.959.959,0,0,0,.931-.736h.051c.455,0,.885-.007,1.17.019A2.172,2.172,0,0,1,2003.537,1324.051Zm-.823-1.95c.357,0,.739.007,1.148.009.167,0,.333,0,.5,0a.853.853,0,0,1-.821.629h-.01A.853.853,0,0,1,2002.714,1322.1Zm4.335-.832a1.352,1.352,0,0,1-.6,1,1.024,1.024,0,0,1-.652-.222l-.013-.017-.021,0a7.133,7.133,0,0,0-.77-.029l-.478,0c-.214,0-.436,0-.656,0h0c-1.873-.007-3.2-.043-3.934-.108a12.606,12.606,0,0,1-3.364-.969l-.923-2.163,4.208.064a4.494,4.494,0,0,0,3.673-.488,4.935,4.935,0,0,1,2.176,1.052C2006.613,1320.046,2007.068,1320.677,2007.049,1321.269Zm-3.609-3a4.354,4.354,0,0,1-3.517.471l.483-1.559,2.679-.654A3.714,3.714,0,0,0,2003.44,1318.269Zm-1.316-1.616v0l-.208,0,.01-.827.541-.041h0l-.009.791Zm6.14-2.772c-.114.063-.232.128-.358.2a31.274,31.274,0,0,1-5.442,1.6l-.643-.008v.057c-.4.03-.96.07-1.624.116-.028-.465-.2-3.149-.565-5.7l11,.13-.07.971A4.086,4.086,0,0,1,2008.264,1313.881Zm2.407-2.684.069-.929h0v-.069a19.216,19.216,0,0,0,.033-2.7l-.1.038a18.3,18.3,0,0,1-.038,2.624l-11.025-.13a14.608,14.608,0,0,0-1.1-4.327l2.813.07a37.9,37.9,0,0,1,7.53.629l.441.07a1.8,1.8,0,0,1,1.264.369.536.536,0,0,1,.123.427l.105.01a.779.779,0,0,0,0-.089,25.831,25.831,0,0,1,3.136.849l-.059,2.5A17.918,17.918,0,0,1,2010.671,1311.2Zm3.346-.711.057-2.4c.891.328,1.586.7,1.582,1.052C2015.658,1309.729,2014.923,1310.167,2014.017,1310.486Z" transform="translate(-1923.433 -1290.923)"/><path class="a" d="M2336.652,1372.6a1.3,1.3,0,0,0-.605-.446,1.583,1.583,0,0,0-.5-.116l-5.918.484a.908.908,0,0,0-.838.9l-.027,2.3a1.033,1.033,0,0,0,1.019,1.043l7.764.092h.018a1.1,1.1,0,0,0,1-.539,1.255,1.255,0,0,0-.09-1.284Zm1.819,3.664a1,1,0,0,1-.92.485l-7.764-.092a.926.926,0,0,1-.914-.936l.027-2.3a.8.8,0,0,1,.74-.794l5.918-.484a1.44,1.44,0,0,1,.452.11,1.2,1.2,0,0,1,.557.409l1.818,2.428A1.148,1.148,0,0,1,2338.471,1376.261Z" transform="translate(-2271.541 -1360.583)"/><path class="a" d="M2276.136,1375.88a1.813,1.813,0,0,0-1.319-.223c-.028,0-2.825.3-4.175.465-1.4.166-1.364.936-1.362.965l-.025,2.114a1.154,1.154,0,0,0,.292.862.949.949,0,0,0,.637.269l4.938.058h.025a1.145,1.145,0,0,0,1.265-1.026l.032-2.726A.918.918,0,0,0,2276.136,1375.88Zm.171,3.48a1.029,1.029,0,0,1-1.159.923h-.024l-4.94-.058h0a.866.866,0,0,1-.562-.239,1.053,1.053,0,0,1-.26-.785l.025-2.118c0-.029-.025-.7,1.268-.857,1.349-.16,4.146-.461,4.179-.465a1.743,1.743,0,0,1,1.236.2.817.817,0,0,1,.271.675Z" transform="translate(-2220.43 -1363.662)"/><path class="a" d="M2223.944,1384.566c-.026.007-2.615.684-3.552.9a.775.775,0,0,0-.51.335.875.875,0,0,0-.1.6l.047.513a.577.577,0,0,0,.525.522c.927.08,3.155.266,3.813.274h.019a.827.827,0,0,0,.911-.742l.02-1.7a.664.664,0,0,0-.225-.549A1.3,1.3,0,0,0,2223.944,1384.566Zm1.053,2.406a.712.712,0,0,1-.806.64h-.017c-.654-.008-2.879-.194-3.805-.274a.47.47,0,0,1-.429-.426l-.048-.521a.783.783,0,0,1,.081-.533.674.674,0,0,1,.443-.287c.939-.218,3.529-.9,3.552-.9a1.66,1.66,0,0,1,.287-.024.918.918,0,0,1,.576.163.565.565,0,0,1,.186.466Z" transform="translate(-2177.932 -1371.322)"/></g></svg>