<svg xmlns="http://www.w3.org/2000/svg" width="90.087" height="37.017" viewBox="0 0 90.087 37.017"><defs><style>.a{fill:#35bbd7;stroke:#35bbd7;stroke-width:0.8px;}</style></defs><g transform="matrix(0.999, -0.035, 0.035, 0.999, 0.565, 3.496)"><path class="a" d="M0,0V.007H0Z" transform="translate(6.692 1.353)"/><path class="a" d="M0,0V.018H0V0Z" transform="translate(63.057 17.608)"/><path class="a" d="M.127,0H0V.03H.14Z" transform="translate(79.031 24.544)"/><path class="a" d="M.048,1.138,0,1.123l.048.016A.156.156,0,0,0,.042,1.2c.039-.05.079-.1.115-.151A3.1,3.1,0,0,0,.636.023.074.074,0,0,0,.6.036L.567,0,.6.037A.165.165,0,0,0,.575.1L.525.093.573.107a2.553,2.553,0,0,1-.18.441,3,3,0,0,1-.312.536l0,0A.153.153,0,0,0,.048,1.138Z" transform="translate(82.953 19.558)"/><path class="a" d="M0,0,.012.024,0,0Z" transform="translate(80.158 23.341)"/><path class="a" d="M.026,0h0L0,.033Z" transform="translate(79.955 28.859)"/><path class="a" d="M0,.05v0Z" transform="translate(84.356 5.972)"/><rect class="a" width="0.024" height="1.555" transform="translate(83.746 16.791) rotate(-0.167)"/><path class="a" d="M0,.03H.074V0H0Z" transform="translate(78.304 24.546)"/><path class="a" d="M0,.031H.443V0H0Z" transform="translate(78.488 24.544)"/><path class="a" d="M.031.113.1,0,0,.049Z" transform="translate(80.003 28.497)"/><path class="a" d="M.021.026.008,0A.015.015,0,0,0,0,.02.015.015,0,0,0,.021.026Z" transform="translate(79.989 28.365)"/><path class="a" d="M.02.008A.017.017,0,0,0,0,0L.014.027A.015.015,0,0,0,.02.008Z" transform="translate(79.997 28.364)"/><path class="a" d="M.111,2.021l.04-.031-.037.035a2.761,2.761,0,0,0,.638.487,7.455,7.455,0,0,0,1.713.662l.014-.049-.014.049,4.4,1.208A.534.534,0,0,0,7,4.4a.528.528,0,0,0,.508-.669L6.581.386A.529.529,0,0,0,6.006,0l.006.05L6,0C5.7.05,5.381.089,5.076.127c-.491.061-1,.124-1.493.216a26.133,26.133,0,0,0-2.722.708L.327,1.21l.014.048-.02-.046-.031.015a.528.528,0,0,0-.18.795Zm.012-.457a.424.424,0,0,1,.213-.247l.023-.011.53-.158A26.032,26.032,0,0,1,3.6.442C4.092.352,4.6.288,5.088.227,5.393.189,5.709.15,6.018.1h0a.428.428,0,0,1,.436.231.435.435,0,0,1,.03.077l.932,3.345a.427.427,0,0,1-.524.526l-4.4-1.208h0A7.368,7.368,0,0,1,.8,2.424,2.667,2.667,0,0,1,.19,1.958a.414.414,0,0,1-.043-.068A.422.422,0,0,1,.123,1.564Z" transform="translate(44.995 10.354)"/><path class="a" d="M87.785,17.557h0a.133.133,0,0,0-.026-.072.775.775,0,0,0-.117-.141h0a1.706,1.706,0,0,0-.333-.234A9.235,9.235,0,0,0,85.73,16.4c-.241-.084-.468-.154-.688-.214-.036-.836-.08-1.68-.121-2.5-.053-1.034-.107-2.1-.15-3.17q-.016-.408-.031-.817c-.042-1.152-.087-2.343-.189-3.444l-.05,0,.05,0a.642.642,0,0,0-.04-.192c-.047-.117-.11-.142-.155-.142h0c-.05,0-.089.038-.114.111l.048.016-.048-.016a.53.53,0,0,0-.022.1h0a18.247,18.247,0,0,0-.146,2.191c-.008.306-.017.623-.032.933-.022.468-.058.936-.093,1.389-.053.689-.108,1.4-.112,2.1,0,.563.028,1.137.057,1.692.027.5.054,1.02.057,1.53-.043-.005-.085-.013-.128-.017l-.005.05h-.051l0,.686h-.024l0-.77h-.05l.007-.05-9.931-1.364-.424-.077,0,.018-.733-.1a17.024,17.024,0,0,1-1.914-1.307c-.394-.3-.8-.6-1.219-.881h0A17.945,17.945,0,0,0,64.6,9.97a32.177,32.177,0,0,0-7.912-1.256,21.992,21.992,0,0,0-3.8.127c-.81.108-1.622.284-2.309.442-2.38.547-4.739,1.228-6.733,1.823l-.548.163c-1.376.412-2.8.837-4.216,1.172-.635.15-1.286.286-1.915.417L36.5,13l-.215.046a17.848,17.848,0,0,1-2.63.424l-10.181.6-.672-.1c-.586-.086-1.191-.176-1.783-.281-.364-.065-.7-.131-1.025-.2a7.808,7.808,0,0,1-1.284-.374,6.755,6.755,0,0,1-1.267-.713,3.131,3.131,0,0,1-.688-.593L8.425,1.375l-.071-.089h0A2.705,2.705,0,0,0,7.523.619,3.74,3.74,0,0,0,6.491.258L6.481.3l0-.019L6.428.3l.01-.05Q6.309.223,6.176.2l-.007.05L6.176.2A9.947,9.947,0,0,0,5.1.139L4.872.134.086,0l0,.05H.034V.284L.015.3l.02.02V.34H0L0,.9H.036V.914l-.02.02L.042.959,3.581,15H3.226v.05h-.05A6.771,6.771,0,0,0,3.3,16.436l-.085,0,0,.05,0-.05a22.01,22.01,0,0,0-2.788.244l.008.05-.008.05a21.984,21.984,0,0,0,2.789.234l.251.006c.03.081.062.161.1.237h0a2.723,2.723,0,0,0,.69.956,4.269,4.269,0,0,0,1.947.737l.185.038c.266.056.527.115.785.173a19.187,19.187,0,0,0,1.915.366l.006-.05-.006.05,40.065,4.845.006-.05-.005.05c1.781.191,5.146.507,7.174.6l.188,2.511c-.347.021-.686.053-1.005.085-1.028.1-2.017.231-3.11.375a14.261,14.261,0,0,0-2.7.535h0a.356.356,0,0,0-.221.242.386.386,0,0,0,.052.3.774.774,0,0,0,.28.237l.026-.043-.026.043a12.72,12.72,0,0,0,2.155,1.1,11.611,11.611,0,0,0,2.8.591l.006-.05.006.05.038,0a2.417,2.417,0,0,0,2.349,1.819,2.417,2.417,0,0,0,2.354-1.876l.17.016,0-.05.026.043c.075-.044.151-.087.227-.13a3.779,3.779,0,0,0,.912-.645,1.425,1.425,0,0,0,.443-.87h-.1a1.273,1.273,0,0,1-.414.8,3.645,3.645,0,0,1-.889.627l-.214.123a24.68,24.68,0,0,0-2.52-.142c-.8.01-1.607.1-2.389.189A11.5,11.5,0,0,1,52,30.264a12.643,12.643,0,0,1-2.138-1.093h0a.7.7,0,0,1-.246-.2.288.288,0,0,1-.04-.218.254.254,0,0,1,.155-.171l-.016-.048.016.048a14.19,14.19,0,0,1,2.681-.531c1.092-.144,2.08-.272,3.107-.375a13.109,13.109,0,0,1,2.6-.071,5.56,5.56,0,0,1,1.983.587c.733.365,1.091.713,1.1,1.065h.1c-.006-.524-.66-.91-1.151-1.154a5.661,5.661,0,0,0-2.018-.6c-.229-.024-.462-.035-.7-.039l.115-2.439.192.006c1.249.039,2.486.053,3.793.053,1,0,2.046-.009,3.167-.022.885-.01,2.362-.047,3.186-.075l0-.05,0,.05q.34-.015.679-.035c.922-.054,1.857-.138,2.761-.219.667-.06,1.357-.122,2.037-.171l4.839-.013,0,.03-3.137.009v.052l-.02.046.037.016a7.75,7.75,0,0,1,.913.44,5.141,5.141,0,0,1,1.149.967h0l.874.954a2.6,2.6,0,0,0,.9.712h0a1.443,1.443,0,0,0,.218.066l.283.577.045-.022.022.045L80.367,28l-.022-.045.045-.022-.132-.269c.062-.028.122-.057.18-.086l.336-.166-.511.826-.069-.14-.091.044.095.193-.111.054a.083.083,0,0,0-.006-.054.086.086,0,0,0-.115-.038h0a.086.086,0,0,0-.038.115.084.084,0,0,0,.038.037l-.111.054-.095-.193-.091.044.117.239.045-.022.022.045.059-.029.05.1c-.081-.025-.163-.05-.247-.072h0a10.751,10.751,0,0,0-3.315-.179c-.8.042-1.589.091-2.356.208a14.823,14.823,0,0,0-2.464.611l.016.048-.046.021.284.608.046-.021-.029.041a10.976,10.976,0,0,0,2.325,1.231,9.528,9.528,0,0,0,2.179.63l.007-.05.007.05.547-.082A1.907,1.907,0,0,0,80.6,31.7c.317.042.634.089.946.136h0l.006-.052.027.045a1.121,1.121,0,0,0,.382-.352,1.143,1.143,0,0,0,.146-.714,1.917,1.917,0,0,0-.478-1.049l-.038.033.038-.033c-.038-.045-.079-.088-.12-.13l.517-1.289a.527.527,0,0,0-.019-.434.514.514,0,0,0-.082-.119h0l-.595-.651-.037.034-.034-.037-.041.037a.618.618,0,0,0-.144-.315l-1.554-1.695-.253-.572h.308a.21.21,0,0,0,.2-.14l-.048-.017.049.014.211-.757h0a.331.331,0,0,1,.076-.128.459.459,0,0,1,.12-.1l.012-.006h0A7.193,7.193,0,0,0,81.944,22l.2-.2.124-.121a7.33,7.33,0,0,0,.923-1.021,2.842,2.842,0,0,0,.56-1.581l0-.633h.024l0,.686h.051l.005.05c.042,0,.085-.012.127-.018,0,.509-.024,1.027-.048,1.529-.026.556-.053,1.131-.048,1.694.007.7.066,1.416.124,2.1.038.453.076.921.1,1.388.016.31.027.627.037.933A18.264,18.264,0,0,0,84.284,29h0a.54.54,0,0,0,.023.1c.025.074.064.111.115.111h0c.045,0,.108-.025.155-.143a.649.649,0,0,0,.039-.193c.1-1.1.133-2.3.169-3.449q.012-.408.026-.814c.036-1.064.084-2.129.131-3.159.037-.821.075-1.67.107-2.51.22-.061.447-.132.687-.218a9.269,9.269,0,0,0,1.575-.721,1.726,1.726,0,0,0,.332-.235.775.775,0,0,0,.117-.141l-.042-.027.043.027a.133.133,0,0,0,.025-.072h0ZM57.162,30.76c.314,0,.63,0,.945.02a1.044,1.044,0,0,1-1.88.031l0,0C56.538,30.783,56.851,30.764,57.162,30.76Zm-1.044.054c.007.014.012.028.019.042a1.144,1.144,0,0,0,2.077-.07c.4.023.8.056,1.2.092a2.318,2.318,0,0,1-4.5.055C55.313,30.89,55.715,30.847,56.118,30.814Zm27.525-14.85.008,2.745-2.846.008L80.8,15.884l.542.1.009-.05-.009.05a5.141,5.141,0,0,1,.579.132,4.169,4.169,0,0,1,.946.408,2.077,2.077,0,0,1,.61.542,9.1,9.1,0,0,0,.068,1.546l.1-.013a8.934,8.934,0,0,1-.066-1.56l0,0,0,0v0h0a2.182,2.182,0,0,0-.656-.59,4.266,4.266,0,0,0-.969-.418,5.2,5.2,0,0,0-.59-.134h0l-5.284-.959Zm-19.074-5.9a17.852,17.852,0,0,1,4.852,2.176l.028-.042-.028.042c.415.276.821.582,1.214.877a17.428,17.428,0,0,0,1.893,1.3,1.442,1.442,0,0,1-.157.285,2.683,2.683,0,0,1-.835.681,10.073,10.073,0,0,1-1.616.814,10.529,10.529,0,0,1-2.6.577,21.274,21.274,0,0,1-3.025.118l0,.05v-.05h0a.586.586,0,0,1-.583-.644L64.332,10C64.41,10.023,64.491,10.043,64.569,10.066Zm-.335-.094-.627,6.264a.687.687,0,0,0,.683.755h0q.345.01.687.01a20.969,20.969,0,0,0,2.353-.129,10.624,10.624,0,0,0,2.625-.583,10.165,10.165,0,0,0,1.632-.822,2.766,2.766,0,0,0,.865-.708,1.552,1.552,0,0,0,.17-.31l.211.029.009,3.069h-.587l-1.5,0h-.9l-1.5,0h-.9l-1.5,0h-.9l-1.5,0h-.447l.767-7.7C64,9.906,64.116,9.939,64.233,9.973ZM56.681,8.815a33.07,33.07,0,0,1,6.646.917l-.632,6.321a.586.586,0,0,1-.646.524h0l-5.692-.62a1.511,1.511,0,0,1-1.039-.783,1.227,1.227,0,0,1-.086-.222L53.538,8.87A23.8,23.8,0,0,1,56.681,8.815Zm-3.787.126c.177-.024.358-.043.542-.061l1.7,6.1a1.333,1.333,0,0,0,.093.24,1.6,1.6,0,0,0,1.118.838l5.692.62.005-.05-.005.05a.686.686,0,0,0,.757-.614l.631-6.307c.119.03.237.06.355.091l-.768,7.709-8.865-.463L51.923,9.1C52.241,9.039,52.568,8.984,52.894,8.941ZM63.332,18.5h0a.091.091,0,0,1-.019.047.326.326,0,0,1-.13.095l.022.045-.022-.045a2.458,2.458,0,0,1-.532.172,15.7,15.7,0,0,1-3.312.351c-1,.02-2.062-.007-3.245-.08-.955-.059-1.925-.146-2.864-.229l-.2-.017c-.68-.061-1.436-.127-2.193-.16.941-.195,1.9-.338,2.828-.473l-.007-.05.007.05c1.155-.169,2.349-.343,3.534-.424a25.741,25.741,0,0,1,2.883-.028,11.016,11.016,0,0,1,2.251.286c.2.051.407.115.636.195a.759.759,0,0,1,.291.152l.035-.037-.035.037A.176.176,0,0,1,63.332,18.5ZM69.4,22.856l-.037-.035a1.586,1.586,0,0,1-.868.394,29.709,29.709,0,0,1-5.738.582c.508-.054,1.011-.116,1.5-.19a6.777,6.777,0,0,0,1.778-.457.875.875,0,0,0,.368-.26.277.277,0,0,0,.062-.157h0a.2.2,0,0,0-.042-.12L65.6,21.471c.368.05.733.1,1.085.162a6.576,6.576,0,0,1,2.541.82.519.519,0,0,1,.189.174.128.128,0,0,1,.017.053.229.229,0,0,1-.078.141Zm-3.056-.184a.106.106,0,0,1,.023.061.181.181,0,0,1-.042.1.778.778,0,0,1-.328.228,6.684,6.684,0,0,1-1.753.449,35.564,35.564,0,0,1-3.719.36q-.339.015-.683.024l-.014-4.634a14.739,14.739,0,0,0,2.849-.34,2.57,2.57,0,0,0,.553-.18h0a.421.421,0,0,0,.168-.127l-.041-.029.041.029a.22.22,0,0,0,.015-.029Zm-15.9-3.9c.885.023,1.788.1,2.586.174h0l.2.017.4.035-2.195,4.471c-.655-.063-1.326-.126-1.988-.18-1.254-.1-2.606-.181-4.126-.243Zm-5.282,4.269A29.472,29.472,0,0,1,39.71,22.2c2.35-.306,4.817-.553,7.342-.735Zm8.55-4L53.622,19c.814.072,1.645.143,2.466.194.937.058,1.8.087,2.614.087q.324,0,.639-.006c.131,0,.258-.006.383-.01l.014,4.634c-.839.021-1.7.017-2.621-.012-1.054-.034-2.173-.1-3.42-.206-.671-.056-1.352-.122-2.012-.185l-.155-.015Zm9.3-1.383,0,.488h0c-.232-.08-.443-.145-.644-.2a11.115,11.115,0,0,0-2.272-.289,25.91,25.91,0,0,0-2.894.028c-1.016.069-2.037.207-3.035.351l0-.843m8.9.432v-.018h0v.018Zm-9.08-.771c-1.476-.519-3.01-.985-4.562-1.384a56.646,56.646,0,0,0-9.2-1.579c-1.143-.1-2.307-.163-3.433-.226-.829-.046-1.68-.094-2.525-.155.691-.083,1.376-.228,2.044-.37l.215-.046.661-.139c.63-.131,1.281-.267,1.917-.417,1.42-.335,2.845-.761,4.222-1.173l.547-.164c1.992-.594,4.349-1.274,6.726-1.821.378-.087.8-.179,1.228-.263M28.531,13.87l5.125-.3c1.04.085,2.1.143,3.124.2,1.125.062,2.288.126,3.429.226a56.549,56.549,0,0,1,9.18,1.576c1.572.405,3.126.878,4.62,1.4l.033.117-25.5-.248h-.1L9.52,16.657a.278.278,0,0,0-.111-.12.708.708,0,0,0-.144-.071,2.488,2.488,0,0,0-.646-.114l-.258-.02-.31-1.246ZM6.759,1.461h.314L17.42,14.428l-9.393.557L4.6,1.467Zm-.067-.108,0,.007h0Zm1.669.1,8.314,10.411a3.222,3.222,0,0,0,.71.613,6.848,6.848,0,0,0,1.286.723,7.89,7.89,0,0,0,1.3.379c.327.072.664.139,1.029.2.593.106,1.2.195,1.786.281l.2.029-5.44.323L7.2,1.46ZM7.476.708a2.6,2.6,0,0,1,.8.642l.039-.032-.039.032.005.007L6.8,1.36,6.55.376A3.592,3.592,0,0,1,7.476.708ZM.137.927.135.3V.1L4.869.234,5.094.24A9.853,9.853,0,0,1,6.162.3h0c.076.011.151.024.225.038l.24.954-2.5.007L.235,1.313Zm.123.487L4.126,1.4h.409v.015l-.049.012L7.924,14.988,3.685,15ZM3.277,15.1l4.672-.013.307,1.235c-.154-.01-.316-.019-.481-.024-.5-.013-1.015.014-1.512.04l-.448.023c-.5.023-1.009.035-1.5.046q-.456.01-.912.024A6.545,6.545,0,0,1,3.277,15.1ZM3.22,16.915a23.4,23.4,0,0,1-2.439-.183,23.437,23.437,0,0,1,2.439-.193c.366-.013.732-.021,1.1-.03.492-.011,1-.023,1.5-.046l.448-.023c.495-.026,1.006-.053,1.5-.04.3.008.591.03.839.051a2.4,2.4,0,0,1,.619.108.6.6,0,0,1,.124.061c.062.041.075.069.075.086h0c0,.03-.028.067-.076.1a.508.508,0,0,1-.122.06,2.473,2.473,0,0,1-.619.111c-.333.03-.592.047-.838.054-.5.015-1.011-.01-1.506-.034l-.447-.021c-.5-.021-1.007-.03-1.5-.04C3.956,16.933,3.588,16.926,3.22,16.915Zm7.406,1.624a.082.082,0,0,1-.036.11.083.083,0,0,1-.047.008h0l-1.627-.2L6.942,17.55h0a.268.268,0,0,1-.145-.318l-.048-.014.048.014.031-.105c.153.006.307.008.46.01a.312.312,0,0,0,.248.124h0l1.457,0h0a.268.268,0,0,1,.17.061h0l1.44,1.195.032-.039-.032.039A.078.078,0,0,1,10.626,18.539Zm-3.433.526c-.259-.059-.52-.118-.786-.173l-.186-.038a4.2,4.2,0,0,1-1.9-.716,2.62,2.62,0,0,1-.663-.921l-.046.021.046-.021c-.028-.061-.053-.127-.078-.193l.743.017c.49.009,1,.019,1.5.04l.446.021.461.021L6.7,17.2h0a.367.367,0,0,0,.024.269.371.371,0,0,0,.175.169l.021-.046-.021.046,1.9.874.224.9C8.408,19.338,7.817,19.206,7.194,19.065Zm1.94.368-.217-.874,1.614.2h0l17.92,2.153,0,.859Zm19.317,1.376L10.7,18.676a.18.18,0,0,0,.024-.043.183.183,0,0,0-.058-.2h0L9.229,17.239l-.032.039.032-.039a.369.369,0,0,0-.234-.084h0l-1.457,0h0a.214.214,0,0,1-.087-.02h.012q.159,0,.316,0c.249-.007.509-.024.844-.055a2.547,2.547,0,0,0,.644-.116.6.6,0,0,0,.146-.072.277.277,0,0,0,.111-.134l18.917.184h.1l25.519.248,0,.86-.407.059h0c-1.067.156-2.17.317-3.244.559l.011.049-.032-.039-3.2,2.669c-2.67.189-5.278.452-7.751.78L28.551,20.821Zm.1.972,0-.859,10.874,1.307a30.5,30.5,0,0,0,4.64.825l0,.6Zm28.779,5.68c-.24,0-.48.006-.718.019l-.232-3.11,1.1,0Zm.412-2.533-.191-.006.028-.6-.05,0v-.05l-1.2,0v.05l-.05,0,.041.549c-2.027-.095-5.38-.41-7.156-.6h0l-5-.6,0-.606c.337.031.673.058,1.005.076l0-.05,0,.05c1.573.062,2.964.143,4.253.248.75.061,1.512.134,2.249.2.66.063,1.341.128,2.013.185,1.249.105,2.37.173,3.426.207.533.017,1.047.025,1.549.025.637,0,1.255-.014,1.864-.041.253-.011.5-.027.755-.044v0c.577-.009,1.16-.018,1.745-.035l0,1.085C61.15,24.989,59.457,24.981,57.745,24.928Zm13.574-.3c-.9.081-1.838.165-2.758.219q-.339.02-.678.035h0c-.823.028-2.3.065-3.183.075v0c-.54.006-1.062.012-1.57.015l0-1.087a28.655,28.655,0,0,0,5.387-.575,1.666,1.666,0,0,0,.919-.423h0a.312.312,0,0,0,.106-.212h0a.216.216,0,0,0-.029-.1.607.607,0,0,0-.224-.211,6.654,6.654,0,0,0-2.579-.835c-.384-.063-.782-.123-1.183-.176l-2.135-2.98h0a.4.4,0,0,0-.053-.061h0a.7.7,0,0,0-.224-.135l0-.506,2.315-.006h.235l7.184-.02.02,6.848C72.345,24.539,71.825,24.585,71.319,24.631Zm1.615-10.138.815.112L80.7,15.866l.008,2.852-7.757.021Zm1.4,9.963c1.346-.169,2.656-.438,3.811-.687l.13-.028.285-.061a2.45,2.45,0,0,1,.082.445c.006.082,0,.167,0,.25,0,.023,0,.046,0,.069Zm4.6.088v.03H78.49v-.03Zm-.552.032h-.073v-.03h.073Zm1.9,3.36-.788.389-.228-.466a1.439,1.439,0,0,0,.192.015c.041,0,.082,0,.122-.005a1.959,1.959,0,0,0,.589-.16ZM80.1,28.5l-.069.113L80,28.547Zm-.087-.126a.015.015,0,0,1-.006.02L80,28.365A.017.017,0,0,1,80.017,28.371ZM80,28.365l.013.026A.015.015,0,1,1,80,28.365Zm-.431,4.463a1.8,1.8,0,0,1-2.546-1.1c.2-.028.4-.055.6-.078a1.213,1.213,0,0,0,2.279-.027q.3.028.6.066A1.8,1.8,0,0,1,79.566,32.828Zm-.812-.8a.808.808,0,0,0,.722-.443q.159.01.318.023a1.12,1.12,0,0,1-.54.6,1.115,1.115,0,0,1-1.5-.495c-.013-.026-.023-.053-.034-.08q.158-.017.315-.031A.817.817,0,0,0,78.754,32.029Zm-.6-.435c.2-.015.4-.025.6-.028s.406,0,.61.014a.708.708,0,0,1-1.212.014ZM81.3,27.3a.083.083,0,0,1,.03.033.082.082,0,0,1,0,.067l.047.019-.047-.019-.711,1.766-.072-.046c-.137-.081-.281-.149-.421-.215l-.014-.007-.035.074.035-.075A.671.671,0,0,0,80,28.854l0,0-.083-.057a.119.119,0,0,0-.022.039.091.091,0,0,0,.027.1h0a.091.091,0,0,0,.036.016l.022-.084-.019.085a.52.52,0,0,1,.105.04h0l.014.007c.137.065.28.132.412.211a1.583,1.583,0,0,1,.4.322l.076-.066a1.521,1.521,0,0,0-.266-.239l.719-1.787h0a.182.182,0,0,0,.013-.078l.412.451.037-.034-.037.034a.421.421,0,0,1,.066.1.427.427,0,0,1,.015.351L81.4,29.576c-.014.034-.117.012-.179,0l-.014,0h0l-.027-.006a.69.69,0,0,1-.12-.033l-.019.047.019-.047a.2.2,0,0,1-.054-.031l-.033.038.032-.039a.314.314,0,0,1-.036-.039l-.071.072a.359.359,0,0,0,.042.044h0a.289.289,0,0,0,.081.047h0a.765.765,0,0,0,.137.038l.027.006.011-.049-.011.049.014,0a.727.727,0,0,0,.15.022.18.18,0,0,0,.1-.025c.035.036.069.072.1.11h0a1.817,1.817,0,0,1,.455.992,1.043,1.043,0,0,1-.131.651,1.012,1.012,0,0,1-.334.31,17.242,17.242,0,0,0-2.79-.268,17.418,17.418,0,0,0-2.389.254,9.444,9.444,0,0,1-2.149-.622,10.9,10.9,0,0,1-2.293-1.212l-.254-.544a14.68,14.68,0,0,1,2.393-.589c.763-.117,1.545-.165,2.346-.208a10.688,10.688,0,0,1,3.284.175l.013-.049-.013.049c.079.021.157.044.234.068l0,0,.081.061a.459.459,0,0,0,.03-.047l.012-.02.9-1.453.227-.112ZM79.98,28.859l-.025.033.025-.033Zm-.548-3.7.046-.02-.037.034L81,26.878a.511.511,0,0,1,.118.255l-.725.359a2.384,2.384,0,0,1-.826.276,1.339,1.339,0,0,1-.61-.09l-.019.047.019-.047a2.515,2.515,0,0,1-.862-.687l-.874-.954a5.257,5.257,0,0,0-1.171-.985,6.569,6.569,0,0,0-.742-.367l3.909-.011Zm-.4-.619h.127l.013.03h-.139Zm.955-1.1a.431.431,0,0,0-.1.167l.049.014-.049-.013-.21.754a.109.109,0,0,1-.1.072v0l-.837,0q0-.033,0-.067c0-.084,0-.172,0-.258a2.555,2.555,0,0,0-.084-.459c.327-.069.659-.136.991-.189h0c.117-.018.24-.036.364-.044C80,23.434,79.993,23.44,79.986,23.448Zm.172-.107h0l.012.024Zm2.8-2.762.079.062a3.021,3.021,0,0,0,.312-.536,2.559,2.559,0,0,0,.18-.441l-.049-.014.05.007a.169.169,0,0,1,.026-.063l-.035-.037.035.036a.075.075,0,0,1,.035-.014A3.109,3.109,0,0,1,83.11,20.6c-.037.052-.077.1-.115.151A.159.159,0,0,1,83,20.7l-.048-.016L83,20.7a.153.153,0,0,1,.03-.05l0,0-.083-.058a.247.247,0,0,0-.047.081h0a.224.224,0,0,0,.017.184h0a8.052,8.052,0,0,1-.614.654h-.294v0a.514.514,0,0,0-.092.006l.009.05-.009-.05a.431.431,0,0,0-.122.045,1.073,1.073,0,0,0-.223.168l-.066.062-.129.12.034.037-.036-.036-.054.054.036.036.044.028.045-.045.13-.12.065-.061a.966.966,0,0,1,.2-.153.334.334,0,0,1,.093-.035h0a.406.406,0,0,1,.074,0h.19l-.006.006-.124.121-.2.2c-.226.224-.457.451-.7.663l-.211-.047a.1.1,0,0,1,.017-.036h0a1.571,1.571,0,0,1,.134-.176h0c.079-.092.168-.188.281-.3L81.362,22l-.036-.035c-.115.116-.206.214-.286.308l.038.033-.038-.033a1.652,1.652,0,0,0-.142.187l.042.027-.042-.027a.175.175,0,0,0-.033.087l.05,0-.05,0a.094.094,0,0,0,.029.08h0a.094.094,0,0,0,.04.019l.015-.072,0,0-.017.075.149.033a4.631,4.631,0,0,1-.935.644h0a3.276,3.276,0,0,0-.517.049l.008.05-.008-.05c-.465.074-.93.175-1.38.272l-.13.028a37.819,37.819,0,0,1-4.76.788h0l-.395.03-.017-5.649,10.7-.03v.27a2.042,2.042,0,0,1-.04.395.2.2,0,0,0-.127.045h0a.237.237,0,0,0-.056.115m.321-1.29,0-1.555h.024l0,1.555Zm.606-12.324h0v0Zm-.419,6.727c0-.7.058-1.41.111-2.1.035-.454.071-.923.093-1.392.014-.31.023-.628.032-.934a18.129,18.129,0,0,1,.145-2.179l-.05-.008.05.008a.446.446,0,0,1,.018-.082h0a.116.116,0,0,1,.022-.043c.015,0,.039.025.06.078a.549.549,0,0,1,.033.164c.1,1.1.146,2.288.188,3.439q.015.409.031.817c.042,1.068.1,2.137.15,3.171.041.807.083,1.64.12,2.464-.086-.022-.172-.043-.256-.062-.209-.047-.42-.081-.632-.11,0-.517-.03-1.041-.057-1.548C83.965,13.882,83.935,13.309,83.937,12.75Zm.9,8.7c-.047,1.031-.095,2.1-.131,3.16q-.014.406-.026.814c-.036,1.152-.073,2.343-.168,3.443a.557.557,0,0,1-.032.164c-.021.053-.045.077-.06.078a.111.111,0,0,1-.022-.043.446.446,0,0,1-.018-.081l-.05.008.05-.008a18.21,18.21,0,0,1-.157-2.177c-.01-.307-.021-.624-.037-.935-.025-.469-.063-.937-.1-1.391-.057-.687-.116-1.4-.123-2.1-.006-.56.021-1.133.048-1.688.024-.507.048-1.031.048-1.547.211-.03.422-.066.631-.113q.127-.029.256-.063C84.916,19.8,84.878,20.641,84.841,21.451Zm2.833-3.875a.683.683,0,0,1-.1.123,1.6,1.6,0,0,1-.313.221,9.913,9.913,0,0,1-2.591,1.02,7.322,7.322,0,0,1-.792.135l-.008-3.013a7.359,7.359,0,0,1,.793.131,9.924,9.924,0,0,1,2.6,1.006,1.614,1.614,0,0,1,.314.219l.035-.036-.035.037a.681.681,0,0,1,.1.122.1.1,0,0,1,.01.018.088.088,0,0,1-.01.018Z"/></g></svg>