<svg xmlns="http://www.w3.org/2000/svg" width="93.574" height="30.382" viewBox="0 0 93.574 30.382"><defs><style>.a{fill:#35bbd7;stroke:#35bbd7;stroke-width:0.8px;}</style></defs><g transform="translate(0.503 0.4)"><path class="a" d="M2034.221,1047.6a38.8,38.8,0,0,0-6.22-1.551l-.024-10.852h-.147l.024,10.825c-3.727-.677-7.9-1.144-9.888-.851l-.012,0a.192.192,0,0,0-.023-.076.153.153,0,0,0-.1-.071h0c-.127-.047-3.568-1.9-5.4-2.885,0,0,0-.005,0-.008-.019-.172-.242-.335-.681-.5-1.016-.377-5.238-.467-8.544-.314-3.412.158-13.1,2-13.192,2.022s-5.515.93-11.157,1.887c-.173.009-9.214.49-11.705.629-1.384.077-1.967-.2-2.214-.447a.557.557,0,0,1-.19-.391V1045l-.013-.017c-.085-.109-8.526-10.9-9.249-11.978a4.049,4.049,0,0,0-1.9-1.489c-.235-.02-5.765-.488-6.233-.466a.618.618,0,0,0-.5.172c-.2.241-.2.82-.018,1.938.324,1.984,3.943,14.557,4,14.748l.14.606h-.112l.06,1.284.011.054-2.5.116c-.107.005-.783.079-1.406.172-1.3.195-1.294.3-1.291.372v.021l.124.126a.325.325,0,0,0,.2.1c.2.019.775.068,1.559.068.263,0,.549-.006.851-.02l2.58-.12a11.765,11.765,0,0,0,.494,1.46c.039.427,1.257.51,1.393.518.215.03,21.533,3.02,26.945,3.359a168.99,168.99,0,0,0,21.951,1.71,74.886,74.886,0,0,0,7.558-.346c7.644-.691,11.331-1.122,11.365-1.126a65.787,65.787,0,0,0,7.108-1.016l.012,5.386h.147l-.012-5.416c.472-.1.948-.2,1.42-.316,4.167-1,8.695-2.943,8.907-3.6C2038.731,1050.108,2037.3,1048.83,2034.221,1047.6Zm-21.886-5.26a.263.263,0,0,0,.078-.088c5.334,2.878,5.384,2.882,5.4,2.879a.046.046,0,0,1,.029.023c.01.017.02.061-.011.152-.455.5-1.145,1.163-4.443,1.481l-2.191-3.738Zm-56.934-9.274c.712,1.065,8.881,11.508,9.241,11.969a.689.689,0,0,0,.218.449c.261.265.875.563,2.3.484,2.018-.112,8.333-.449,10.752-.578-5.663.96-11.282,1.918-11.776,2.02-.86.178-7.046.634-10.114.857l-5.049-15.448,2.1.227-.068-1.47.569.047A3.958,3.958,0,0,1,1955.4,1033.066Zm.293,15.224-5.07-15.51.232.025,5.056,15.469Zm-8.748-17c.094-.116.239-.123.423-.131h.037c.524,0,4,.284,5.489.408l.063,1.356-6.121-.662A1.513,1.513,0,0,1,1946.947,1031.29Zm-.1,1.081,3.708.4-.044.014,5.07,15.512-.108.008c-1.7-.162-4.238-.411-4.535-.46-.2-.685-3.67-12.77-3.987-14.706C1946.9,1032.847,1946.87,1032.592,1946.848,1032.371Zm7.85,15.971-3.6.167-.127-.55C1951.421,1048.023,1953.345,1048.212,1954.7,1048.342Zm5.052,1.212h.014a.309.309,0,0,1,.228.517.306.306,0,0,1-.214.1l-10.795.5v-.618Zm-11.275,1.141a17.627,17.627,0,0,1-2.395-.048.213.213,0,0,1-.133-.064l-.077-.078a14.62,14.62,0,0,1,2.576-.427l.427-.02v.618Zm72.281,5.455-.268.031-.134-2.893c1.1-.21,2.2-.442,3.157-.68,2.256-.565,2.924-1.083,3.087-1.417a.318.318,0,0,0,.034-.232l-.173-3.711c-.171-.622-1.187-.472-1.22-.466-.052,0-5.348-.1-9.718.29a24.617,24.617,0,0,0-7,1.6c-.237-.026-.48-.047-.72-.062-2.43-.151-8.753,1.677-9.014,1.753h-.008l-.013.008c-.056.034-3.746,2.3-6.438,3.972-14.793-.619-38.348-2.9-38.584-2.923l-.01.11c.235.023,23.623,2.287,38.428,2.917-1.263.783-2.278,1.415-2.54,1.587l-.11.072.129.027a90.958,90.958,0,0,0,11.443.51,78.7,78.7,0,0,0,9.182-.395c4.334-.615,4.852-1.829,4.913-2.078.792-.118,2.9-.442,5.071-.855l.134,2.885c-1.114.125-4.719.516-10.988,1.083-9.843,1.01-22.7-.421-29.488-1.364-5.412-.339-26.726-3.328-26.945-3.359-.494-.029-1.282-.17-1.294-.424l0-.019a11.765,11.765,0,0,1-.487-1.431l8.612-.4a.419.419,0,0,0-.039-.837l-8.694.4-.013-.062-.054-1.163h.023l.044,0c.469-.008,2.187-.042,3.68-.151l.612-.044.13-.009h0c2.8-.2,9.763-.708,10.686-.9,1.012-.209,23.647-4.028,23.877-4.067.1-.019,9.773-1.862,13.177-2.02,3.635-.169,7.607-.025,8.5.307.53.2.6.35.61.406a.12.12,0,0,1-.051.1l-1.234.765,2.281,3.891.035,0c3.479-.331,4.123-1.047,4.594-1.569l.049-.054a12.027,12.027,0,0,1,1.868-.081l.07,1.516.11-.005-.07-1.508a55.867,55.867,0,0,1,7.875.935l0,.737a2.3,2.3,0,0,0-.95.017.546.546,0,0,0-.419.683c0,.039.007.079.009.12l.133,2.863c.007.16.013.311.125.4a.394.394,0,0,0,.251.069,1.305,1.305,0,0,0,.247-.028h0c.21-.061.413-.126.609-.194l.01,4.334A65.689,65.689,0,0,1,2020.755,1056.15Zm-5.924-2.048-8.82.516.006.11,8.825-.516.208-.03c-.111.289-.791,1.381-4.805,1.951-3.491.5-11.26.465-16.275.24,2.992-2.031,8.475-5.738,8.686-5.819l-.014-.053,0-.055c-.134.006-6.223,4.132-8.853,5.918a39.7,39.7,0,0,1-3.994-.32c1.254-.8,8.647-5.352,9.013-5.577a82.517,82.517,0,0,0,9.564-.444c1.975-.305,1.96-.624,1.955-.729-.013-.292-.725-.489-1.583-.6a24.966,24.966,0,0,1,6.787-1.513c4.363-.387,9.653-.29,9.716-.29.009,0,.961-.142,1.1.374l.172,3.707,0,.02a.211.211,0,0,1-.028.151c-.125.257-.683.775-3.014,1.358C2020.118,1053.342,2014.879,1054.095,2014.832,1054.1Zm-6.487-5.345.04.085s.055-.025.148-.065c1.087.125,1.675.345,1.683.521,0,.076-.12.346-1.862.615a76.807,76.807,0,0,1-9.174.444c1.42-.4,6.5-1.774,8.611-1.644Q2008.084,1048.731,2008.344,1048.757Zm19.52,1.924q-.307.107-.638.2a.541.541,0,0,1-.406-.02c-.072-.057-.077-.177-.083-.317l-.132-2.863c0-.042-.006-.084-.01-.124-.023-.246-.039-.423.345-.569a1.475,1.475,0,0,1,.421-.053,3.29,3.29,0,0,1,.495.043Zm.138-3.676a15.255,15.255,0,0,1,3.074,1.081.457.457,0,0,1,.307.4.488.488,0,0,1-.211.447,11.615,11.615,0,0,1-3.162,1.7Zm10.241,4.254c-.184.573-4.528,2.5-8.828,3.531-.464.112-.931.215-1.395.311l-.01-4.356a11.731,11.731,0,0,0,3.225-1.727.6.6,0,0,0,.257-.545.572.572,0,0,0-.371-.488,14.792,14.792,0,0,0-3.12-1.092l0-.734a38.62,38.62,0,0,1,6.18,1.543C2037.158,1048.89,2038.6,1050.154,2038.244,1051.259Z" transform="translate(-1945.743 -1031.048)"/><path class="a" d="M2340.953,1112.372a1.086,1.086,0,0,0-.81-.532h-.033l-6.185.488c-.646.03-.747.3-.72.87l.109,2.348a1.114,1.114,0,0,0,1.11,1.06h.051c.3,0,7.07-.089,8.065-.461a.387.387,0,0,0,.28-.232c.111-.289-.152-.706-.162-.722Zm1.764,3.5a.285.285,0,0,1-.211.167c-.982.366-7.963.454-8.034.455h0a1,1,0,0,1-1.047-.954l-.109-2.348c-.025-.543.06-.729.617-.755l6.185-.488h.026a.994.994,0,0,1,.716.479l1.706,2.819S2342.809,1115.635,2342.717,1115.873Z" transform="translate(-2276.362 -1099.988)"/><path class="a" d="M2281.464,1118.94a.526.526,0,0,0-.564-.5l-6.441.48a1.156,1.156,0,0,0-.609.219.424.424,0,0,0-.136.606c.259.474,1.438,2.447,1.454,2.471a1.065,1.065,0,0,0,.834.372h.06l5-.232a.419.419,0,0,0,.29-.135,1.187,1.187,0,0,0,.225-.9Zm-.19,3.2a.318.318,0,0,1-.216.1l-5,.232a.974.974,0,0,1-.8-.322c-.012-.02-1.19-1.99-1.448-2.463a.316.316,0,0,1,.105-.465,1.043,1.043,0,0,1,.551-.2l6.441-.48a.416.416,0,0,1,.446.4l.11,2.382A1.066,1.066,0,0,1,2281.274,1122.141Z" transform="translate(-2225.539 -1105.619)"/><path class="a" d="M2235.548,1124.692a.631.631,0,0,0-.591-.32c-.745.047-2.583.163-3.576.219a1,1,0,0,0-.868.385.81.81,0,0,0,.012.7c0,.009.449.907.8,1.552.366.667.773.744.8.747l4.147-.192c.355-.016.578-.112.66-.284a.587.587,0,0,0-.094-.525Zm1.29,2.762c-.062.13-.258.207-.566.221l-4.135.193s-.375-.076-.713-.691c-.353-.642-.8-1.539-.8-1.548a.711.711,0,0,1-.015-.6.9.9,0,0,1,.779-.329c.993-.056,2.832-.172,3.577-.219H2235a.52.52,0,0,1,.455.266l1.3,2.289S2236.923,1127.276,2236.838,1127.454Z" transform="translate(-2188.67 -1110.681)"/><path class="a" d="M2261.265,1124.378h0Z" transform="translate(-2214.978 -1110.687)"/></g></svg>