<svg xmlns="http://www.w3.org/2000/svg" width="55.469" height="43.966" viewBox="0 0 55.469 43.966"><defs><style>.a{fill:#35bbd7;stroke:#35bbd7;stroke-width:0.6px;}</style></defs><g transform="translate(0.3 0.3)"><g transform="translate(11.376 6.354)"><path class="a" d="M-964.259-42.993h3.8c2.045,0,3.258,1.025,3.258,2.706a2.409,2.409,0,0,1-1.854,2.519v.042a2.548,2.548,0,0,1,2.33,2.665c0,1.645-1.237,2.727-3.329,2.727h-4.209Zm4.209,5.08a2.278,2.278,0,0,0,2.473-2.373c0-1.514-1.106-2.373-2.877-2.373h-3.424v4.747Zm0,5.246c1.783,0,2.948-.958,2.948-2.394,0-1.478-1.23-2.519-2.948-2.519h-3.828v4.913Z" transform="translate(964.259 43.16)"/><path class="a" d="M-929.881-35.373h.38c0,1.442,1.409,2.487,3.234,2.487,1.932,0,3.234-1.165,3.234-2.591,0-1.536-1.51-2.57-3.591-2.57h-.19v-.334h.19c1.825,0,3.234-.941,3.234-2.424,0-1.374-1.183-2.4-2.9-2.4-1.7,0-2.925,1.024-2.925,2.487h-.381c0-1.651,1.391-2.821,3.305-2.821s3.281,1.17,3.281,2.738a2.667,2.667,0,0,1-2.259,2.55v.042a2.925,2.925,0,0,1,2.616,2.738c0,1.646-1.486,2.926-3.614,2.926C-928.324-32.551-929.881-33.743-929.881-35.373Z" transform="translate(938.711 43.544)"/><path class="a" d="M-896.447-34.983h.381a2.532,2.532,0,0,0,2.83,2.482A3.071,3.071,0,0,0-890-35.63a3.093,3.093,0,0,0-3.258-3.087,3.409,3.409,0,0,0-2.306.855l-.571-.084.713-5.048h5.4v.334h-5.065l-.618,4.422h.047a3.749,3.749,0,0,1,2.4-.813,3.446,3.446,0,0,1,3.638,3.421,3.44,3.44,0,0,1-3.614,3.463C-895.128-32.167-896.459-33.335-896.447-34.983Z" transform="translate(913.905 43.16)"/><path class="a" d="M-865.453-38.048c0-3.406,1.415-5.5,3.733-5.5s3.733,2.09,3.733,5.5-1.415,5.5-3.733,5.5S-865.453-34.641-865.453-38.048Zm7.086,0c0-3.218-1.278-5.162-3.353-5.162s-3.353,1.944-3.353,5.162,1.278,5.162,3.353,5.162S-858.367-34.83-858.367-38.048Z" transform="translate(890.794 43.544)"/></g><g transform="translate(13.32 20.332)"><path class="a" d="M-936.21,28.245a19.345,19.345,0,0,1-8.1-1.833h0c-3.923-1.793-5.953-5.17-6.033-10.04-.021-1.3.066-2.62.15-3.9.031-.46.061-.919.086-1.379.066-1.182.149-2.382.229-3.543l.067-.975a1.483,1.483,0,0,1,.513-1.156,1.411,1.411,0,0,1,1.2-.15c.185.044.372.086.558.128a12.529,12.529,0,0,1,2.407.714,2.283,2.283,0,0,1,1.463,2.47c-.172,1.3-1.35,1.545-2.054,1.69-.792.164-1.224.385-1.092,1.03.051.251.463.506.794.711.073.045.143.089.208.131a1.282,1.282,0,0,0,.4.121c.237.046.46.09.537.271.317.747.385,1.286.2,1.6a10.529,10.529,0,0,1-1.173,1.563c-.219.258-.446.524-.653.794-.114.149-.382.5-.358.725a6.964,6.964,0,0,0,3.587,5.8,1.769,1.769,0,0,0,1.683.237,1.813,1.813,0,0,0,.71-1.585c.021-.376.019-.763.016-1.136s0-.768.017-1.153a4.64,4.64,0,0,1,4.649-4.431h.029a4.616,4.616,0,0,1,4.63,4.4c.023.365.024.734.025,1.092s0,.732.026,1.094c.06.919.328,1.523.772,1.748s1.12.079,1.926-.437a7.01,7.01,0,0,0,3.219-5.108,20.609,20.609,0,0,0,.221-2.459c0-.137.015-.278.025-.421.049-.641.1-1.246-.5-1.548a.539.539,0,0,1-.291-.414.525.525,0,0,1,.175-.462c.527-.462.452-1.089.364-1.816l-.019-.163a1.251,1.251,0,0,1,.784-1.005c1.134-.287,1.708-.392,2.077-.118s.434.8.488,1.988a54.328,54.328,0,0,1,.019,6.867,9.515,9.515,0,0,1-6.043,8.316A19.781,19.781,0,0,1-936.21,28.245ZM-948.588,5.514a.871.871,0,0,0-.53.153,1.205,1.205,0,0,0-.391.933l-.067.976c-.08,1.159-.163,2.359-.229,3.538-.025.461-.056.921-.086,1.382-.084,1.271-.171,2.584-.15,3.872.078,4.743,2.049,8.03,5.857,9.77h0a18.663,18.663,0,0,0,15.8.1,9.228,9.228,0,0,0,5.863-8.064,54,54,0,0,0-.019-6.828c-.047-1.042-.114-1.571-.366-1.758-.274-.2-.9-.065-1.823.169a1,1,0,0,0-.558.677l.019.161a2.137,2.137,0,0,1-.465,2.08.221.221,0,0,0-.074.2.239.239,0,0,0,.129.183c.772.393.713,1.162.661,1.841-.01.137-.021.274-.024.406a20.974,20.974,0,0,1-.224,2.5,7.3,7.3,0,0,1-3.355,5.318,2.288,2.288,0,0,1-2.226.452c-.553-.28-.868-.952-.938-2-.024-.372-.025-.749-.026-1.114s0-.718-.024-1.074a4.317,4.317,0,0,0-4.329-4.118h-.027a4.341,4.341,0,0,0-4.349,4.146c-.021.375-.019.761-.016,1.134s0,.769-.017,1.155a2.082,2.082,0,0,1-.866,1.832,2.041,2.041,0,0,1-1.976-.238,7.336,7.336,0,0,1-3.741-6.037,1.488,1.488,0,0,1,.419-.94c.212-.276.441-.546.663-.806a10.313,10.313,0,0,0,1.14-1.516,1.847,1.847,0,0,0-.221-1.335.981.981,0,0,0-.316-.092,1.452,1.452,0,0,1-.507-.164c-.064-.041-.132-.084-.2-.128-.4-.248-.853-.53-.931-.908-.219-1.067.825-1.283,1.327-1.387.881-.183,1.683-.429,1.815-1.434a2,2,0,0,0-1.287-2.155,12.32,12.32,0,0,0-2.35-.695c-.188-.042-.375-.084-.562-.128A1.832,1.832,0,0,0-948.588,5.514Z" transform="translate(950.346 -5.211)"/></g><g transform="translate(0 0)"><path class="a" d="M-942.487-62.06h-48.991a2.943,2.943,0,0,0-2.939,2.939v29.9a2.943,2.943,0,0,0,2.939,2.939h10.464c-.033-.1-.06-.2-.091-.3h-10.373a2.64,2.64,0,0,1-2.637-2.637v-29.9a2.64,2.64,0,0,1,2.637-2.637h48.991a2.64,2.64,0,0,1,2.637,2.637v29.9a2.64,2.64,0,0,1-2.637,2.637h-10.256c-.028.1-.062.2-.093.3h10.349a2.942,2.942,0,0,0,2.939-2.939v-29.9A2.942,2.942,0,0,0-942.487-62.06Z" transform="translate(994.417 62.06)"/><path class="a" d="M-985.941-24.21a1.364,1.364,0,0,1-1.362-1.362V-54.4a1.363,1.363,0,0,1,1.362-1.362h47.423a1.363,1.363,0,0,1,1.362,1.362v28.827a1.364,1.364,0,0,1-1.362,1.362h-9.137c-.011.1-.021.2-.034.3h9.171a1.666,1.666,0,0,0,1.664-1.664V-54.4a1.666,1.666,0,0,0-1.664-1.664h-47.423A1.666,1.666,0,0,0-987.6-54.4v28.827a1.666,1.666,0,0,0,1.664,1.664h9.231c-.017-.1-.032-.2-.047-.3Z" transform="translate(989.664 57.875)"/></g><g transform="translate(24.483 31.771)"><path class="a" d="M-910.46,48.962a2.955,2.955,0,0,1-2.951-2.952,2.955,2.955,0,0,1,2.951-2.951,2.955,2.955,0,0,1,2.952,2.951A2.955,2.955,0,0,1-910.46,48.962Zm0-5.6a2.652,2.652,0,0,0-2.649,2.649,2.652,2.652,0,0,0,2.649,2.65,2.653,2.653,0,0,0,2.649-2.65A2.652,2.652,0,0,0-910.46,43.361Z" transform="translate(913.411 -43.059)"/></g></g></svg>