<svg xmlns="http://www.w3.org/2000/svg" width="54.77" height="38.573" viewBox="0 0 54.77 38.573"><defs><style>.a{fill:#35bbd7;stroke:#35bbd7;stroke-width:0.6px;}</style></defs><g transform="translate(0.3 0.3)"><g transform="translate(6.149 18.484)"><path class="a" d="M-968.7,274.2a7.615,7.615,0,0,1-1.536-.146c-2.559-.528-3.69-1.993-3.562-4.609.075-1.543.211-3.107.342-4.619.091-1.049.185-2.133.258-3.2.043-.633.034-1.285.022-2.039,0-.192-.006-.391-.008-.6a.7.7,0,0,1-.365-.733.7.7,0,0,1,.284-.458.692.692,0,0,1,.524-.124l3.289.534a.7.7,0,0,1,.458.284.7.7,0,0,1,.124.524.709.709,0,0,1-.651.589c-.057.284-.114.557-.168.823-.193.931-.359,1.735-.456,2.559-.225,1.914-.4,3.882-.5,5.848a1.572,1.572,0,0,0,.361,1.326,1.6,1.6,0,0,0,1.39.13,7.22,7.22,0,0,0,1.442-.567c.222-.106.443-.212.668-.307.144-.061.287-.126.43-.19a9.23,9.23,0,0,1,1.009-.407c.583-.184,1.182-.354,1.761-.519,1.088-.31,2.213-.63,3.273-1.051a4.61,4.61,0,0,0,2.416-3.1q.143-.431.283-.863c.239-.736.486-1.5.77-2.23.855-2.216,2.7-2.353,4.673-2.3a3.47,3.47,0,0,1,3.374,2.458c.316.805.588,1.641.851,2.449l.211.644a5.039,5.039,0,0,0,3.332,3.4c1.041.355,2.094.732,3.113,1.1,1.238.443,2.517.9,3.785,1.323,1.014.337,1.652.366,2.009.088s.484-.9.407-1.951c-.113-1.558-.249-3.089-.392-4.711q-.087-.985-.175-1.993c-1.8.232-3.01-.726-4.191-1.815a2.124,2.124,0,0,1-.808-1.747,2.068,2.068,0,0,1,1.094-1.524A25.061,25.061,0,0,1-936.782,255c1.255-.569,2.031-.3,2.766.963a9.049,9.049,0,0,1,1.541,5.056,40.22,40.22,0,0,0,.273,5.073c.1,1.066.208,2.167.257,3.253h0a4.772,4.772,0,0,1-1.172,3.681,4.458,4.458,0,0,1-3.432,1.157,32.876,32.876,0,0,1-5.138-.733c-.641-.126-1.3-.257-1.954-.369a22.155,22.155,0,0,1-2.95-.652c-5.128-1.634-10.194-.641-15.364.615-1.391.338-3.231.761-5.128,1.037A11.282,11.282,0,0,1-968.7,274.2Zm-4.155-16.241a.4.4,0,0,0-.237.077.4.4,0,0,0-.164.264.4.4,0,0,0,.268.447l.1.035v.105c0,.243.006.474.009.694.011.761.021,1.419-.023,2.064-.073,1.07-.167,2.156-.258,3.206-.131,1.51-.266,3.071-.341,4.608-.122,2.476.9,3.8,3.324,4.3a8.919,8.919,0,0,0,3.05.019c1.885-.273,3.716-.695,5.1-1.032,5.213-1.267,10.323-2.267,15.525-.609a21.773,21.773,0,0,0,2.911.642c.654.113,1.318.244,1.961.371a32.686,32.686,0,0,0,5.09.728,4.158,4.158,0,0,0,3.209-1.069,4.485,4.485,0,0,0,1.086-3.457h0c-.048-1.078-.154-2.176-.256-3.238a40.472,40.472,0,0,1-.274-5.111,8.775,8.775,0,0,0-1.5-4.9c-.662-1.137-1.264-1.35-2.385-.842a24.833,24.833,0,0,0-2.754,1.454,1.785,1.785,0,0,0-.953,1.3,1.841,1.841,0,0,0,.713,1.5c1.159,1.069,2.344,2,4.1,1.716l.159-.026.014.161c.062.727.126,1.442.188,2.15.144,1.623.279,3.155.393,4.716.086,1.18-.075,1.861-.522,2.208s-1.154.336-2.286-.041c-1.271-.423-2.552-.882-3.791-1.325-1.017-.364-2.069-.741-3.109-1.1a5.321,5.321,0,0,1-3.518-3.587l-.212-.645c-.262-.8-.533-1.635-.845-2.432a3.162,3.162,0,0,0-3.1-2.269c-1.937-.051-3.6.073-4.387,2.111-.281.727-.526,1.484-.764,2.215-.094.289-.187.577-.283.865a4.874,4.874,0,0,1-2.589,3.285,34.588,34.588,0,0,1-3.3,1.06c-.577.164-1.173.334-1.753.517a9.077,9.077,0,0,0-.976.395c-.145.065-.29.13-.436.192-.22.093-.438.2-.656.3a7.438,7.438,0,0,1-1.5.588,1.836,1.836,0,0,1-1.649-.193,1.81,1.81,0,0,1-.467-1.571c.11-1.972.28-3.946.506-5.867.1-.836.266-1.646.46-2.584.063-.3.128-.617.193-.945l.027-.138.14.02a.407.407,0,0,0,.458-.336.4.4,0,0,0-.072-.3.405.405,0,0,0-.264-.164l-3.289-.534A.443.443,0,0,0-972.857,257.96Z" transform="translate(973.811 -254.712)"/></g><g transform="translate(0)"><path class="a" d="M-943.148,192.765h-48.367a2.905,2.905,0,0,0-2.9,2.9v29.521a2.905,2.905,0,0,0,2.9,2.9h2.871c-.033-.1-.06-.2-.09-.3h-2.781a2.606,2.606,0,0,1-2.6-2.6V195.667a2.606,2.606,0,0,1,2.6-2.6h48.367a2.606,2.606,0,0,1,2.6,2.6v29.521a2.606,2.606,0,0,1-2.6,2.6h-2.666c-.028.1-.061.2-.092.3h2.757a2.9,2.9,0,0,0,2.9-2.9V195.667A2.9,2.9,0,0,0-943.148,192.765Z" transform="translate(994.417 -192.765)"/><path class="a" d="M-985.962,230.209a1.346,1.346,0,0,1-1.345-1.345V200.4a1.346,1.346,0,0,1,1.345-1.345h46.819A1.346,1.346,0,0,1-937.8,200.4v28.459a1.346,1.346,0,0,1-1.345,1.345H-941c-.01.1-.021.2-.034.3h1.893a1.645,1.645,0,0,0,1.643-1.643V200.4a1.645,1.645,0,0,0-1.643-1.643h-46.819A1.645,1.645,0,0,0-987.6,200.4v28.459a1.645,1.645,0,0,0,1.643,1.643h1.952c-.017-.1-.031-.2-.047-.3Z" transform="translate(989.638 -196.973)"/></g><g transform="translate(4.862 6.951)"><path class="a" d="M-973.886,217.931a1.872,1.872,0,0,0-1.846-1.512c-1.115,0-2.053.913-2.053,2.572,0,1.675.938,2.572,2.053,2.572a1.864,1.864,0,0,0,1.846-1.512h.353a2.205,2.205,0,0,1-2.2,1.843c-1.41,0-2.392-1.15-2.392-2.9s.982-2.9,2.392-2.9a2.2,2.2,0,0,1,2.2,1.843Z" transform="translate(978.124 -216.08)"/><path class="a" d="M-958.3,216.347h3.146v.32h-2.8v2.343h2.632v.32h-2.632v2.348h2.867V222H-958.3Z" transform="translate(964.218 -216.261)"/><path class="a" d="M-942,216.38a1.263,1.263,0,0,0-1.416,1.167c0,.585.477.919,1.159,1.123l.618.182c.844.254,1.479.659,1.479,1.476,0,.9-.734,1.559-1.882,1.559a1.648,1.648,0,0,1-1.854-1.46h.353c.055.7.657,1.137,1.5,1.137.911,0,1.542-.5,1.542-1.239,0-.593-.427-.908-1.236-1.153l-.659-.2c-.885-.27-1.36-.725-1.36-1.415a1.6,1.6,0,0,1,1.763-1.5,1.62,1.62,0,0,1,1.755,1.5h-.339A1.305,1.305,0,0,0-942,216.38Z" transform="translate(954.112 -216.06)"/><path class="a" d="M-925.845,216.38a1.263,1.263,0,0,0-1.415,1.167c0,.585.477.919,1.159,1.123l.618.182c.844.254,1.479.659,1.479,1.476,0,.9-.734,1.559-1.882,1.559a1.649,1.649,0,0,1-1.854-1.46h.353c.055.7.657,1.137,1.5,1.137.91,0,1.542-.5,1.542-1.239,0-.593-.428-.908-1.236-1.153l-.659-.2c-.886-.27-1.36-.725-1.36-1.415a1.6,1.6,0,0,1,1.763-1.5,1.62,1.62,0,0,1,1.755,1.5h-.339A1.3,1.3,0,0,0-925.845,216.38Z" transform="translate(942.774 -216.06)"/><path class="a" d="M-906.347,222h-.337l-3.6-5.025h-.033V222h-.345v-5.651h.339l3.6,5.03h.033v-5.03h.342Z" transform="translate(930.794 -216.261)"/><path class="a" d="M-892.676,222l2.039-5.651h.4L-888.2,222h-.364l-.646-1.807h-2.456l-.646,1.807Zm3.352-2.127-1.1-3.079h-.028l-1.1,3.079Z" transform="translate(918.173 -216.261)"/><path class="a" d="M-866.16,222h-.345v-5.287h-.033l-1.269.842v-.37l1.258-.836h.389Z" transform="translate(900.724 -216.261)"/><path class="a" d="M-856.63,220.345a1.492,1.492,0,0,1,1.159-1.451v-.025a1.381,1.381,0,0,1-.966-1.324,1.521,1.521,0,0,1,1.617-1.457,1.527,1.527,0,0,1,1.614,1.457,1.384,1.384,0,0,1-.963,1.324v.025a1.5,1.5,0,0,1,1.159,1.451,1.67,1.67,0,0,1-1.81,1.548A1.663,1.663,0,0,1-856.63,220.345Zm3.277-.019a1.371,1.371,0,0,0-1.467-1.277,1.364,1.364,0,0,0-1.468,1.277,1.338,1.338,0,0,0,1.468,1.247A1.344,1.344,0,0,0-853.353,220.326Zm-.193-2.767a1.2,1.2,0,0,0-1.275-1.154,1.192,1.192,0,0,0-1.278,1.154,1.224,1.224,0,0,0,1.278,1.192A1.226,1.226,0,0,0-853.545,217.559Z" transform="translate(892.882 -216.08)"/><path class="a" d="M-840.415,221.554l1.829-2.108c.784-.908,1.049-1.316,1.049-1.865a1.163,1.163,0,0,0-1.231-1.175,1.194,1.194,0,0,0-1.239,1.231h-.334a1.523,1.523,0,0,1,1.581-1.548,1.485,1.485,0,0,1,1.553,1.493c0,.626-.276,1.085-1.178,2.116l-1.534,1.768v.031h2.966v.32h-3.463Z" transform="translate(881.506 -216.08)"/></g><g transform="translate(24.65 24.7)"><path class="a" d="M-909.37,280.412a2.437,2.437,0,0,1-2.435-2.435,2.437,2.437,0,0,1,2.435-2.435,2.437,2.437,0,0,1,2.435,2.435A2.437,2.437,0,0,1-909.37,280.412Zm0-4.571a2.139,2.139,0,0,0-2.136,2.136,2.139,2.139,0,0,0,2.136,2.136,2.139,2.139,0,0,0,2.136-2.136A2.139,2.139,0,0,0-909.37,275.841Z" transform="translate(911.805 -275.543)"/></g></g></svg>