<svg xmlns="http://www.w3.org/2000/svg" width="46.016" height="39.469" viewBox="0 0 46.016 39.469"><defs><style>.a{fill:#35bbd7;stroke:#35bbd7;stroke-width:0.6px;}</style></defs><g transform="translate(0.3 0.308)"><path class="a" d="M-732.094-44.959A.189.189,0,0,0-731.98-45a12.932,12.932,0,0,1,8.277-1.857.193.193,0,0,0,.2-.175.19.19,0,0,0-.175-.2c-5.354-.412-8.408,1.837-8.535,1.933a.19.19,0,0,0-.038.266A.19.19,0,0,0-732.094-44.959Z" transform="translate(741.055 48.871)"/><path class="a" d="M-712.8-37.856-713.152-41a3.963,3.963,0,0,0-1.592-2.743,3.961,3.961,0,0,0-3.1-.688L-728.8-42.275a7.956,7.956,0,0,0-.615-1.789l2.89-.8-9.042-5.181a16.361,16.361,0,0,0-15.7.245c-5.244,3.327-6.582,8.766-6.775,12.775a.186.186,0,0,0-.044.117.185.185,0,0,0,.035.1,21.709,21.709,0,0,0,.336,4.871v6.053l3-1.013.778.951v6.379l-2.283,5.775.354.14,2.3-5.808.013-6.621-.773-.945,8.7-2.934a3.46,3.46,0,0,0,1.033.988,2.7,2.7,0,0,0,1.37.5,1.136,1.136,0,0,0,.38-.062.937.937,0,0,0,.562-.535.19.19,0,0,0-.119-.242.19.19,0,0,0-.242.118.551.551,0,0,1-.328.3c-.231.081-.665.079-1.422-.4a3,3,0,0,1-1.44-2.531l1.947-.01v.523a.19.19,0,0,0,.19.19.19.19,0,0,0,.19-.19v-.525l9.451-.047.25.835a2.836,2.836,0,0,0,2.176,1.976l14.134,2.779a3.585,3.585,0,0,0,.69.067,3.606,3.606,0,0,0,2.138-.7,3.6,3.6,0,0,0,1.44-2.515l.442-4.183A19.473,19.473,0,0,0-712.8-37.856ZM-729.178-42.2l-2.172.427a3.3,3.3,0,0,0-2.529,2.3l-.239.8a11.5,11.5,0,0,0-.348,1.581h-5.948l1.968-4.461,8.65-2.4A7.02,7.02,0,0,1-729.178-42.2Zm.268,9.913-14.78.074h0l-13.68.068a21.727,21.727,0,0,1-.308-4.573h17.011l.073.032.014-.032h11.672Zm-22.163-17.187a15.963,15.963,0,0,1,15.31-.243l8.253,4.729L-738.634-41.9l-.087.024-2.108,4.78H-757.66C-757.457-41.01-756.137-46.262-751.073-49.474Zm5.25,19.182-11.513,3.881v-5.354l11.128-.056A3.445,3.445,0,0,0-745.823-30.292Zm32.665-3.372-.442,4.183a3.222,3.222,0,0,1-1.288,2.249,3.223,3.223,0,0,1-2.529.568l-14.134-2.779a2.458,2.458,0,0,1-1.885-1.711l-.218-.728,4.743-.024v.967a.19.19,0,0,0,.19.19.19.19,0,0,0,.19-.19v-7.71a.19.19,0,0,0-.19-.19.19.19,0,0,0-.19.19v1.55h-5.17a11.11,11.11,0,0,1,.327-1.471l.238-.8a2.918,2.918,0,0,1,2.238-2.032l13.509-2.656a3.534,3.534,0,0,1,2.8.623,3.532,3.532,0,0,1,1.439,2.479l.356,3.141A19.112,19.112,0,0,1-713.158-33.664Z" transform="translate(758.088 51.952)"/><path class="a" d="M-634.752-22.874a.193.193,0,0,0-.207-.172.19.19,0,0,0-.171.207l.433,4.58a19.967,19.967,0,0,1-.085,4.5l-.551,4.148a.191.191,0,0,0,.164.214h.025a.19.19,0,0,0,.189-.166l.551-4.148a20.343,20.343,0,0,0,.086-4.59Z" transform="translate(677.06 32.872)"/><path class="a" d="M-699.343,21.449a.192.192,0,0,0-.226.146c-.016.075-1.662,7.538-6.122,7.6h-.17a21.467,21.467,0,0,1-9.022-2.506.191.191,0,0,0-.259.073.19.19,0,0,0,.073.259,23.99,23.99,0,0,0,4.409,1.79c0,.507-.153,2.614-2.158,6.262a.191.191,0,0,0,.075.259.188.188,0,0,0,.091.023.19.19,0,0,0,.167-.1c1.934-3.519,2.182-5.633,2.2-6.338a16.845,16.845,0,0,0,4.421.657h.174c4.761-.067,6.421-7.582,6.489-7.9A.19.19,0,0,0-699.343,21.449Z" transform="translate(729.756 3.503)"/></g></svg>