<svg xmlns="http://www.w3.org/2000/svg" width="39" height="39" viewBox="0 0 39 39"><defs><style>.a,.d{fill:none;}.a{stroke:#35bbd7;}.b{fill:#35bbd7;}.c{stroke:none;}</style></defs><g transform="translate(9924 18162.164)"><g class="a" transform="translate(-9924 -18162.164)"><circle class="c" cx="19.5" cy="19.5" r="19.5"/><circle class="d" cx="19.5" cy="19.5" r="19"/></g><g transform="translate(-9918 -18152.164)"><path class="b" d="M26.418,86.322h-1.4V72.08a1.608,1.608,0,0,0-1.608-1.608H3.285A1.608,1.608,0,0,0,1.677,72.08V86.322H.4a.4.4,0,0,0-.4.4v.88a2.306,2.306,0,0,0,2.306,2.306h15a.4.4,0,1,0,0-.8h-15A1.51,1.51,0,0,1,.8,87.6v-.481h9.386a1.422,1.422,0,0,0,1.42,1.394h3.611a1.422,1.422,0,0,0,1.42-1.394H26.02V87.6a1.51,1.51,0,0,1-1.51,1.51H19.17a.4.4,0,1,0,0,.8h5.34A2.306,2.306,0,0,0,26.816,87.6v-.88A.4.4,0,0,0,26.418,86.322Zm-11.2,1.394H11.6a.624.624,0,0,1-.623-.6h4.857A.624.624,0,0,1,15.214,87.716Zm9-1.394H2.473V72.08a.812.812,0,0,1,.811-.811H23.406a.812.812,0,0,1,.811.811Z" transform="translate(0 -70.472)"/></g></g></svg>