<svg xmlns="http://www.w3.org/2000/svg" width="38" height="39" viewBox="0 0 38 39"><defs><style>.a,.d{fill:none;}.a{stroke:#fff;}.b{fill:#fff;}.c{stroke:none;}</style></defs><g transform="translate(10060 18253.164)"><g transform="translate(-10286 -18565.164)"><g class="a" transform="translate(226 312)"><ellipse class="c" cx="19" cy="19.5" rx="19" ry="19.5"/><ellipse class="d" cx="19" cy="19.5" rx="18.5" ry="19"/></g><g transform="translate(235 322)"><g transform="translate(9.327 17.699)"><path class="b" d="M246.377,466.381a.379.379,0,1,0,.111.268A.381.381,0,0,0,246.377,466.381Z" transform="translate(-245.729 -466.27)"/></g><path class="b" d="M14.879,0H4.555A1.14,1.14,0,0,0,3.416,1.139V1.29H1.139A1.14,1.14,0,0,0,0,2.429V5.921A1.14,1.14,0,0,0,1.139,7.06H4.631A1.14,1.14,0,0,0,5.77,5.921V2.809h6.377a.38.38,0,1,0,0-.759H5.7a1.141,1.141,0,0,0-1.074-.76H4.176V1.139a.38.38,0,0,1,.38-.38H14.879a.38.38,0,0,1,.38.38V9.717a.38.38,0,0,0,.759,0V1.139A1.14,1.14,0,0,0,14.879,0ZM5.011,5.921a.38.38,0,0,1-.38.38H1.139a.38.38,0,0,1-.38-.38V5.783a.381.381,0,0,0,.06-.049l1.2-1.2.842.842a.38.38,0,0,0,.537,0l1.61-1.61Zm-.38-3.872a.38.38,0,0,1,.38.38V2.69L3.132,4.569,2.29,3.727a.38.38,0,0,0-.537,0L.759,4.72V2.429a.38.38,0,0,1,.38-.38Z"/><g transform="translate(3.416 8.123)"><path class="b" d="M104.885,216.885h-4.1a1.14,1.14,0,0,0-1.139,1.139v4.1a1.14,1.14,0,0,0,1.139,1.139h1.063v.911a.38.38,0,0,1-.38.38H91.145a.38.38,0,0,1-.38-.38v-.911h8.022a.38.38,0,1,0,0-.759H90.765V214.38a.38.38,0,1,0-.759,0v9.793a1.14,1.14,0,0,0,1.139,1.139h10.324a1.14,1.14,0,0,0,1.139-1.139v-.911h2.278a1.14,1.14,0,0,0,1.139-1.139v-4.1A1.14,1.14,0,0,0,104.885,216.885Zm.38,5.238a.38.38,0,0,1-.38.38h-4.1a.38.38,0,0,1-.38-.38v-4.1a.38.38,0,0,1,.38-.38h4.1a.38.38,0,0,1,.38.38Z" transform="translate(-90.006 -214)"/></g><g transform="translate(14.86 12.601)"><path class="b" d="M394.044,332.863l-1.332-.769a.825.825,0,0,0-1.238.715v1.537a.823.823,0,0,0,1.237.715l1.332-.768a.825.825,0,0,0,0-1.43Zm-.379.772-1.332.768a.066.066,0,0,1-.1-.057v-1.537a.062.062,0,0,1,.033-.057.062.062,0,0,1,.066,0l1.332.769a.066.066,0,0,1,0,.114Z" transform="translate(-391.474 -331.983)"/></g></g></g></g></svg>