<svg xmlns="http://www.w3.org/2000/svg" width="26.667" height="26.664" viewBox="0 0 26.667 26.664"><defs><style>.a{fill:#fff;}</style></defs><g transform="translate(-1775 -6112)"><path class="a" d="M47.2,1a1.562,1.562,0,0,0-.457.069L41.562,2.664l-.6-.6a2.135,2.135,0,0,0-1.521-.63H38.43a.43.43,0,0,0-.35.68l2.15,3.011a.43.43,0,0,0,.443.17l2.355-.523-.292,1.753a.43.43,0,0,0,.616.456l1.135-.568a2.15,2.15,0,0,0,1.037-1.125L46,4.109l2.421-.538a.43.43,0,0,0,.337-.42v-.6A1.553,1.553,0,0,0,47.2,1ZM44.724,4.964a1.286,1.286,0,0,1-.621.677l-.382.19.21-1.263,1.042-.232Zm3.167-2.158L40.764,4.389l-1.5-2.1h.171a1.283,1.283,0,0,1,.912.378l.787.789a.432.432,0,0,0,.43.109L47,1.9a.7.7,0,0,1,.9.661Z" transform="translate(1752.912 6111)"/><path class="a" d="M27.473,14.4l-.935-.624a17.15,17.15,0,0,0-9.543-2.889h-.164a17.129,17.129,0,0,0-8.087,2.03l0-2.03h.43a3.01,3.01,0,1,0,0-6.021H7.88V3.58a.43.43,0,0,0-.43-.43h-.43V1H6.161V3.15h-.43a.43.43,0,0,0-.43.43v1.29H4.011a3.01,3.01,0,1,0,0,6.021H4.44V26.8H1v.86H27.664V26.8h-1.29V18.633h.86a.43.43,0,0,0,.43-.43v-3.44a.431.431,0,0,0-.192-.359ZM16.994,11.752A16.292,16.292,0,0,1,26.058,14.5l.744.5v1.06H7.021v-1.06l.744-.5a16.292,16.292,0,0,1,9.064-2.745ZM4.44,8.311H6.16v1.72H4.44Zm0-2.58H6.16v1.72H4.44Zm4.3,1.72H7.021V5.731h1.72Zm-1.72.86h1.72v1.72H7.021ZM9.6,9.988V8.311h1.677A2.157,2.157,0,0,1,9.6,9.988ZM11.278,7.45H9.6V5.774a2.157,2.157,0,0,1,1.677,1.677ZM6.16,4.011h.86v.86H6.161ZM3.58,5.774V7.451H1.9A2.157,2.157,0,0,1,3.58,5.774ZM1.9,8.311H3.58V9.988A2.157,2.157,0,0,1,1.9,8.311Zm3.4,2.58H7.88v2.524c-.2.121-.4.236-.593.365l-.935.624a.431.431,0,0,0-.192.358V18.2a.43.43,0,0,0,.43.43h.86V26.8H5.3ZM8.311,22.5h1.72v4.3H8.311Zm2.58,0h1.72v.86h-.86a.43.43,0,0,0-.43.43V26.8h-.43Zm7.741.86V22.5h1.72v.86Zm-.86,0h-1.72V22.5h1.72Zm-2.58,0h-1.72V22.5h1.72Zm-3.011.861H13.9V26.8h-1.72Zm2.58,0h1.72V26.8h-1.72Zm2.58,0h1.72V26.8h-1.72Zm2.58,0h1.72V26.8h-1.72Zm2.152-.86h-.862V22.5h1.72v4.3H22.5V23.794a.43.43,0,0,0-.428-.43Zm-.86-1.72v-3.01h1.72v3.011Zm-.86,0H18.633v-3.01h1.72Zm-2.58,0H16.053v-3.01h1.72Zm-2.58,0H13.472v-3.01h1.72Zm-2.58,0H10.892v-3.01h1.72Zm-2.58,0H8.311v-3.01h1.72ZM23.8,26.8V22.5h1.719v4.3Zm1.719-5.161H23.794v-3.01h1.722Zm1.29-3.871H7.021v-.86H26.8Z" transform="translate(1774 6111)"/><path class="a" d="M0,0H4.49V.86H0Z" transform="translate(1790.36 6118.471) rotate(-16.677)"/><path class="a" d="M0,0H4.49V.86H0Z" transform="translate(1787.349 6117.61) rotate(-16.677)"/></g></svg>