<svg xmlns="http://www.w3.org/2000/svg" width="28.949" height="28.949" viewBox="0 0 28.949 28.949"><defs><style>.a{fill:#fff;}</style></defs><path class="a" d="M18.67,14.577l.708-.708a1.09,1.09,0,0,0,.085-1.532.966.966,0,0,0-.748-.275,1.181,1.181,0,0,0-.611.215l-.115-.467.766-.766a1.089,1.089,0,0,0,.085-1.532A1.07,1.07,0,0,0,17.418,9.5l-.7-2.841c.362-.35.709-.69,1.036-1.018a13.411,13.411,0,0,0,2.194-2.778c.8-1.433.537-2.161.178-2.52s-1.086-.618-2.52.178a13.4,13.4,0,0,0-2.778,2.194c-.327.327-.668.674-1.018,1.036l-2.841-.7a1.071,1.071,0,0,0-.013-1.421,1.089,1.089,0,0,0-1.532.085l-.767.766-.467-.115a1.182,1.182,0,0,0,.215-.611.966.966,0,0,0-.275-.748A1.089,1.089,0,0,0,6.6,1.093L5.893,1.8,2.531.971a.373.373,0,0,0-.348.106l-.929.929a.344.344,0,0,0,.011.521L9.542,8.363c-2.066,2.3-4.061,4.6-5.47,6.241l-2.483-.835a.369.369,0,0,0-.373.1l-1.1,1.1a.347.347,0,0,0-.027.489l4.926,4.926a.35.35,0,0,0,.489-.027l1.1-1.1a.369.369,0,0,0,.1-.373L5.867,16.4c1.642-1.409,3.941-3.4,6.241-5.47l.633.9a.343.343,0,0,0,.515.017.359.359,0,0,0,.066-.456l-.67-.95c1.2-1.087,2.393-2.182,3.474-3.212l2.652,10.753-.474.474-4.138-5.868a.333.333,0,0,0-.479-.048.361.361,0,0,0-.1.487l4.358,6.18a.343.343,0,0,0,.521.011l.929-.929a.373.373,0,0,0,.106-.348ZM9.888,2.178a.4.4,0,0,1,.554-.031.394.394,0,0,1-.031.554l-.171.171L9.4,2.665ZM7.063,1.555a.394.394,0,0,1,.554-.031.394.394,0,0,1-.031.554l-.113.112-.84-.207Zm-5.046.612.474-.474L13.244,4.345c-1.03,1.081-2.125,2.271-3.212,3.474ZM1.51,14.5l2.06.693c-.563.658-.994,1.167-1.249,1.468L.835,15.172Zm1.275,2.625C4.07,15.6,10.862,7.607,15.291,3.179a12.766,12.766,0,0,1,2.6-2.059C18.47.8,19.24.49,19.61.86s.063,1.14-.259,1.72a12.772,12.772,0,0,1-2.059,2.6C12.864,9.608,4.87,16.4,3.35,17.686Zm3.19,1.84-.675.675L3.814,18.15c.3-.255.81-.686,1.468-1.249Zm12.419-6.076a.372.372,0,1,1,.523.523l-.429.429L18.28,13ZM17.77,10.06a.372.372,0,1,1,.523.523l-.487.487-.207-.84Z" transform="translate(0 14.475) rotate(-45)"/></svg>