<svg xmlns="http://www.w3.org/2000/svg" width="18.596" height="26.429" viewBox="0 0 18.596 26.429"><defs><style>.a{fill:#fff;}</style></defs><g transform="translate(0 0)"><path class="a" d="M98,7.634a.4.4,0,0,0,.4-.391V.455A.461.461,0,0,0,97.938,0H81.906a2.077,2.077,0,0,0-2.1,2.052V24.377a2.077,2.077,0,0,0,2.1,2.052H98a.391.391,0,1,0,0-.782h-.654V23.108H98a.4.4,0,0,0,.4-.391V9.405a.4.4,0,0,0-.8,0v12.92h-15.7a2.116,2.116,0,0,0-1.3.442V2.052a1.286,1.286,0,0,1,1.3-1.27h9.119V4.7a.4.4,0,0,0,.4.391h2.893a.4.4,0,0,0,.4-.391V.782H97.6V7.243A.4.4,0,0,0,98,7.634Zm-16.1,15.474H96.549v.879H93.357a.391.391,0,1,0,0,.782h3.192v.879H81.906a1.27,1.27,0,1,1,0-2.539Zm12.012-18.8H91.824V.782h2.094Z" transform="translate(-79.808)"/><g transform="translate(5.443 6.542)"><path class="a" d="M188.442,129.963h-5.4a.437.437,0,0,0,0,.869h5.318v3.6h-7.1v-3.6h.48a.437.437,0,0,0,0-.869h-.558a.746.746,0,0,0-.7.783v3.778a.746.746,0,0,0,.7.783h7.259a.746.746,0,0,0,.7-.783v-3.778A.746.746,0,0,0,188.442,129.963Z" transform="translate(-180.483 -129.963)"/></g></g></svg>