<svg xmlns="http://www.w3.org/2000/svg" width="21.213" height="21.666" viewBox="0 0 21.213 21.666"><defs><style>.a{fill:#fff;}</style></defs><g transform="translate(0)"><path class="a" d="M33.535,52.876H15.353a1.613,1.613,0,0,1-1.515-1.693V39h.606V51.183a.967.967,0,0,0,.909,1.016H33.535a.967.967,0,0,0,.909-1.016v-14.9a.967.967,0,0,0-.909-1.016H15.353a.967.967,0,0,0-.909,1.016v1.354h-.606V36.288A1.613,1.613,0,0,1,15.353,34.6H33.535a1.613,1.613,0,0,1,1.515,1.693v14.9A1.613,1.613,0,0,1,33.535,52.876Z" transform="translate(-13.838 -34.595)"/><path class="a" d="M154.691,437.923H145.6a.322.322,0,0,1-.3-.339c0-1.693,1.6-1.693,2.121-1.693h5.455c.525,0,2.121,0,2.121,1.693A.322.322,0,0,1,154.691,437.923Zm-8.751-.677h8.412c-.106-.417-.472-.677-1.479-.677h-5.455c-1.007,0-1.373.26-1.479.677Z" transform="translate(-139.539 -416.257)"/><path class="a" d="M198.882,397.086h-4.849a.322.322,0,0,1-.3-.339v-2.031a.322.322,0,0,1,.3-.339h4.849a.322.322,0,0,1,.3.339v2.031A.322.322,0,0,1,198.882,397.086Zm-4.545-.677h4.242v-1.354h-4.242Z" transform="translate(-185.851 -376.775)"/><path class="a" d="M20.757,339.027H41.363v.677H20.757Z" transform="translate(-20.454 -324.132)"/><path class="a" d="M228.324,366.7h2.424v.677h-2.424Z" transform="translate(-218.93 -350.454)"/></g></svg>