<svg xmlns="http://www.w3.org/2000/svg" width="19.263" height="21.623" viewBox="0 0 19.263 21.623"><defs><style>.a{fill:#fff;}</style></defs><g transform="translate(0)"><path class="a" d="M140.619,29.578a.3.3,0,0,0,.439,0l2.868-2.973a6.508,6.508,0,0,0,1.752-4.49V18.5a.363.363,0,0,0-.2-.332l-4.516-2.162a.281.281,0,0,0-.252,0L136.2,18.172a.363.363,0,0,0-.2.332v3.611a6.508,6.508,0,0,0,1.752,4.49Zm-3.974-10.836,4.194-2.007,4.194,2.007v3.373a5.734,5.734,0,0,1-1.545,3.96l-2.648,2.75-2.648-2.75a5.734,5.734,0,0,1-1.545-3.96Z" transform="translate(-131.161 -15.98)"/><path class="a" d="M35.22,310.433l-.645-1.247a1.528,1.528,0,0,0-2.2-.663l-4.758,3.07v-.259a1.715,1.715,0,0,0-1.613-1.8H20.194a.345.345,0,0,0-.1.018l-1.884.7H16.323a.343.343,0,0,0-.323.36v5.766a.343.343,0,0,0,.323.36H26.645a.294.294,0,0,0,.171-.054l8.294-5.766A.385.385,0,0,0,35.22,310.433Zm-17.284,5.586h-1.29v-5.045h1.29Zm8.616,0H18.581v-5.146l1.665-.62H26a1.032,1.032,0,0,1,.968,1.081v1.081H21.806v.721H27.29a.343.343,0,0,0,.323-.36v-.35l5.081-3.276a.876.876,0,0,1,.735-.108.968.968,0,0,1,.584.5l.49.944Z" transform="translate(-16 -295.117)"/><path class="a" d="M211.862,133.482a.306.306,0,0,0,.228-.106l2.258-2.523-.456-.51-2.03,2.268-1.062-1.187-.456.51,1.29,1.441A.306.306,0,0,0,211.862,133.482Z" transform="translate(-202.507 -125.192)"/></g></svg>