<svg xmlns="http://www.w3.org/2000/svg" width="721.188" height="721.188" viewBox="0 0 721.188 721.188"><defs><style>.a{opacity:0.1;}.b{opacity:0.09;}.c{fill:#0b131e;}.d{opacity:0.16;}.e{opacity:0.3;}</style></defs><g class="a" transform="translate(-246.593 -36.593)"><g class="b" transform="translate(279.437 79.452)"><rect class="c" width="9.674" height="77.662" transform="translate(312.897)"/><rect class="c" width="9.674" height="77.662" transform="translate(312.897 557.807)"/><rect class="c" width="9.674" height="77.662" transform="matrix(0.996, -0.087, 0.087, 0.996, 285.223, 1.631)"/><rect class="c" width="9.674" height="77.662" transform="translate(333.839 557.315) rotate(-5)"/><rect class="c" width="9.674" height="77.662" transform="translate(257.797 5.667) rotate(-10)"/><rect class="c" width="9.674" height="77.662" transform="translate(354.659 555) rotate(-10)"/><rect class="c" width="9.674" height="77.662" transform="matrix(0.966, -0.259, 0.259, 0.966, 230.826, 12.079)"/><rect class="c" width="9.674" height="77.662" transform="translate(375.197 550.879) rotate(-15)"/><rect class="c" width="9.674" height="77.662" transform="translate(204.517 20.816) rotate(-20)"/><rect class="c" width="9.674" height="77.662" transform="matrix(0.94, -0.342, 0.342, 0.94, 395.299, 544.984)"/><rect class="c" width="9.674" height="77.662" transform="translate(179.07 31.813) rotate(-25)"/><rect class="c" width="9.674" height="77.662" transform="translate(414.81 537.359) rotate(-25)"/><rect class="c" width="9.674" height="77.662" transform="translate(154.678 44.987) rotate(-30)"/><rect class="c" width="9.674" height="77.662" transform="translate(433.582 528.062) rotate(-30)"/><rect class="c" width="9.674" height="77.662" transform="translate(131.527 60.236) rotate(-35)"/><rect class="c" width="9.674" height="77.662" transform="translate(451.472 517.165) rotate(-35)"/><rect class="c" width="9.674" height="77.662" transform="matrix(0.766, -0.643, 0.643, 0.766, 109.793, 77.445)"/><rect class="c" width="9.674" height="77.662" transform="matrix(0.766, -0.643, 0.643, 0.766, 468.345, 504.75)"/><rect class="c" width="9.674" height="77.662" transform="translate(89.642 96.483) rotate(-45)"/><rect class="c" width="9.674" height="77.662" transform="translate(484.071 490.912) rotate(-45)"/><rect class="c" width="9.674" height="77.662" transform="matrix(0.643, -0.766, 0.766, 0.643, 71.227, 117.204)"/><rect class="c" width="9.674" height="77.662" transform="matrix(0.643, -0.766, 0.766, 0.643, 498.532, 475.756)"/><rect class="c" width="9.674" height="77.662" transform="translate(54.687 139.452) rotate(-55)"/><rect class="c" width="9.674" height="77.662" transform="matrix(0.574, -0.819, 0.819, 0.574, 511.616, 459.397)"/><rect class="c" width="9.674" height="77.662" transform="matrix(0.5, -0.866, 0.866, 0.5, 40.15, 163.056)"/><rect class="c" width="9.674" height="77.662" transform="matrix(0.5, -0.866, 0.866, 0.5, 523.225, 441.96)"/><rect class="c" width="9.674" height="77.662" transform="translate(27.725 187.838) rotate(-65)"/><rect class="c" width="9.674" height="77.662" transform="translate(533.27 423.578) rotate(-65)"/><rect class="c" width="9.674" height="77.662" transform="translate(17.507 213.608) rotate(-70)"/><rect class="c" width="9.674" height="77.662" transform="matrix(0.342, -0.94, 0.94, 0.342, 541.675, 404.39)"/><rect class="c" width="9.674" height="77.662" transform="translate(9.575 240.171) rotate(-75)"/><rect class="c" width="9.674" height="77.662" transform="translate(548.375 384.542) rotate(-75)"/><rect class="c" width="9.674" height="77.662" transform="translate(3.987 267.324) rotate(-80)"/><rect class="c" width="9.674" height="77.662" transform="translate(553.32 364.187) rotate(-80)"/><rect class="c" width="9.674" height="77.662" transform="translate(0.787 294.861) rotate(-85)"/><rect class="c" width="9.674" height="77.662" transform="translate(556.472 343.477) rotate(-85)"/><rect class="c" width="9.674" height="77.662" transform="translate(0 322.572) rotate(-90)"/><rect class="c" width="9.674" height="77.662" transform="translate(557.807 322.572) rotate(-90)"/><rect class="c" width="9.674" height="77.662" transform="translate(1.631 350.246) rotate(-95)"/><rect class="c" width="9.674" height="77.662" transform="translate(557.315 301.63) rotate(-95)"/><rect class="c" width="9.674" height="77.662" transform="translate(5.667 377.672) rotate(-100)"/><rect class="c" width="9.674" height="77.662" transform="translate(12.078 404.643) rotate(-105)"/><rect class="c" width="9.674" height="77.662" transform="translate(20.816 430.952) rotate(-110)"/><rect class="c" width="9.674" height="77.662" transform="translate(31.814 456.399) rotate(-115)"/><rect class="c" width="9.674" height="77.662" transform="matrix(-0.5, -0.866, 0.866, -0.5, 44.987, 480.791)"/><rect class="c" width="9.674" height="77.662" transform="translate(60.236 503.942) rotate(-125)"/><rect class="c" width="9.674" height="77.662" transform="matrix(-0.643, -0.766, 0.766, -0.643, 77.445, 525.676)"/><rect class="c" width="9.674" height="77.662" transform="translate(96.483 545.827) rotate(-135)"/><rect class="c" width="9.674" height="77.662" transform="matrix(-0.766, -0.643, 0.643, -0.766, 117.204, 564.242)"/><rect class="c" width="9.674" height="77.662" transform="translate(139.452 580.782) rotate(-145)"/><rect class="c" width="9.674" height="77.662" transform="translate(163.056 595.319) rotate(-150)"/><rect class="c" width="9.674" height="77.662" transform="translate(187.838 607.744) rotate(-155)"/><rect class="c" width="9.674" height="77.662" transform="translate(213.608 617.962) rotate(-160)"/><rect class="c" width="9.674" height="77.662" transform="matrix(-0.966, -0.259, 0.259, -0.966, 240.171, 625.894)"/><rect class="c" width="9.674" height="77.662" transform="translate(384.542 87.094) rotate(-165)"/><rect class="c" width="9.674" height="77.662" transform="translate(267.324 631.482) rotate(-170)"/><rect class="c" width="9.674" height="77.662" transform="translate(364.186 82.149) rotate(-170)"/><rect class="c" width="9.674" height="77.662" transform="matrix(-0.996, -0.087, 0.087, -0.996, 294.861, 634.681)"/><rect class="c" width="9.674" height="77.662" transform="translate(343.477 78.997) rotate(-175)"/></g><g class="d" transform="translate(388.26 188.275)"><rect class="c" width="6.36" height="51.059" transform="translate(0.953 228.931) rotate(-94.626)"/><rect class="c" width="6.36" height="51.059" transform="translate(366.491 199.351) rotate(-94.626)"/><rect class="c" width="6.36" height="51.059" transform="translate(3.49 246.98) rotate(-99.627)"/><rect class="c" width="6.36" height="51.059" transform="matrix(-0.167, -0.986, 0.986, -0.167, 365.059, 185.654)"/><rect class="c" width="6.36" height="51.059" transform="matrix(-0.253, -0.968, 0.968, -0.253, 7.589, 264.739)"/><rect class="c" width="6.36" height="51.059" transform="matrix(-0.253, -0.968, 0.968, -0.253, 362.437, 172.133)"/><rect class="c" width="6.36" height="51.059" transform="translate(13.221 282.073) rotate(-109.627)"/><rect class="c" width="6.36" height="51.059" transform="translate(358.648 158.893) rotate(-109.626)"/><rect class="c" width="6.36" height="51.059" transform="translate(20.342 298.85) rotate(-114.627)"/><rect class="c" width="6.36" height="51.059" transform="translate(353.718 146.033) rotate(-114.626)"/><rect class="c" width="6.36" height="51.059" transform="translate(28.898 314.943) rotate(-119.626)"/><rect class="c" width="6.36" height="51.059" transform="matrix(-0.494, -0.869, 0.869, -0.494, 347.687, 133.651)"/><rect class="c" width="6.36" height="51.059" transform="matrix(-0.568, -0.823, 0.823, -0.568, 38.824, 330.229)"/><rect class="c" width="6.36" height="51.059" transform="matrix(-0.568, -0.823, 0.823, -0.568, 340.599, 121.843)"/><rect class="c" width="6.36" height="51.059" transform="translate(50.045 344.591) rotate(-129.626)"/><rect class="c" width="6.36" height="51.059" transform="translate(332.51 110.697) rotate(-129.626)"/><rect class="c" width="6.36" height="51.059" transform="matrix(-0.702, -0.712, 0.712, -0.702, 62.474, 357.921)"/><rect class="c" width="6.36" height="51.059" transform="translate(323.479 100.298) rotate(-134.626)"/><rect class="c" width="6.36" height="51.059" transform="translate(76.019 370.117) rotate(-139.627)"/><rect class="c" width="6.36" height="51.059" transform="translate(313.577 90.726) rotate(-139.627)"/><rect class="c" width="6.36" height="51.059" transform="matrix(-0.815, -0.579, 0.579, -0.815, 90.574, 381.086)"/><rect class="c" width="6.36" height="51.059" transform="translate(302.878 82.054) rotate(-144.626)"/><rect class="c" width="6.36" height="51.059" transform="translate(106.03 390.744) rotate(-149.626)"/><rect class="c" width="6.36" height="51.059" transform="translate(291.464 74.347) rotate(-149.626)"/><rect class="c" width="6.36" height="51.059" transform="translate(122.269 399.019) rotate(-154.626)"/><rect class="c" width="6.36" height="51.059" transform="translate(279.422 67.664) rotate(-154.626)"/><rect class="c" width="6.36" height="51.059" transform="translate(139.168 405.847) rotate(-159.626)"/><rect class="c" width="6.361" height="51.059" transform="translate(266.843 62.056) rotate(-159.626)"/><rect class="c" width="6.36" height="51.059" transform="translate(156.598 411.176) rotate(-164.627)"/><rect class="c" width="6.36" height="51.059" transform="translate(253.823 57.566) rotate(-164.627)"/><rect class="c" width="6.36" height="51.059" transform="translate(174.425 414.966) rotate(-169.626)"/><rect class="c" width="6.36" height="51.059" transform="translate(240.462 54.228) rotate(-169.626)"/><rect class="c" width="6.36" height="51.059" transform="translate(192.515 417.188) rotate(-174.626)"/><rect class="c" width="6.36" height="51.059" transform="translate(226.86 52.067) rotate(-174.626)"/><rect class="c" width="6.36" height="51.059" transform="translate(210.73 417.824) rotate(-179.626)"/><rect class="c" width="6.36" height="51.059" transform="matrix(-1, -0.007, 0.007, -1, 213.121, 51.099)"/><rect class="c" width="6.36" height="51.059" transform="translate(228.931 416.871) rotate(175.374)"/><rect class="c" width="6.36" height="51.059" transform="translate(199.351 51.333) rotate(175.374)"/><rect class="c" width="6.36" height="51.059" transform="translate(246.98 414.335) rotate(170.373)"/><rect class="c" width="6.36" height="51.059" transform="translate(185.654 52.766) rotate(170.373)"/><rect class="c" width="6.36" height="51.059" transform="matrix(-0.968, 0.253, -0.253, -0.968, 264.739, 410.235)"/><rect class="c" width="6.36" height="51.059" transform="translate(282.073 404.604) rotate(160.373)"/><rect class="c" width="6.36" height="51.059" transform="translate(298.85 397.483) rotate(155.374)"/><rect class="c" width="6.36" height="51.059" transform="translate(314.943 388.927) rotate(150.374)"/><rect class="c" width="6.36" height="51.059" transform="matrix(-0.823, 0.568, -0.568, -0.823, 330.228, 379)"/><rect class="c" width="6.36" height="51.059" transform="translate(344.591 367.78) rotate(140.374)"/><rect class="c" width="6.36" height="51.059" transform="translate(357.921 355.35) rotate(135.374)"/><rect class="c" width="6.36" height="51.059" transform="translate(370.117 341.806) rotate(130.373)"/><rect class="c" width="6.36" height="51.059" transform="translate(381.086 327.25) rotate(125.374)"/><rect class="c" width="6.36" height="51.059" transform="matrix(-0.506, 0.863, -0.863, -0.506, 390.744, 311.794)"/><rect class="c" width="6.36" height="51.059" transform="matrix(-0.429, 0.904, -0.904, -0.429, 399.019, 295.555)"/><rect class="c" width="6.36" height="51.059" transform="matrix(-0.348, 0.937, -0.937, -0.348, 405.847, 278.656)"/><rect class="c" width="6.36" height="51.059" transform="translate(411.176 261.227) rotate(105.373)"/><rect class="c" width="6.36" height="51.059" transform="matrix(-0.18, 0.984, -0.984, -0.18, 414.966, 243.399)"/><rect class="c" width="6.36" height="51.059" transform="translate(54.228 177.363) rotate(100.374)"/><rect class="c" width="6.36" height="51.059" transform="matrix(-0.094, 0.996, -0.996, -0.094, 417.188, 225.309)"/><rect class="c" width="6.36" height="51.059" transform="matrix(-0.094, 0.996, -0.996, -0.094, 52.067, 190.964)"/><rect class="c" width="6.36" height="51.059" transform="translate(417.824 207.094) rotate(90.373)"/><rect class="c" width="6.36" height="51.059" transform="translate(51.099 204.703) rotate(90.374)"/></g><g class="e" transform="translate(277.672 77.688)"><path class="c" d="M617.918,690.487a269.976,269.976,0,1,1,190.9-79.074A268.208,268.208,0,0,1,617.918,690.487Zm0-539.156a269.179,269.179,0,1,0,190.34,78.84A267.418,267.418,0,0,0,617.918,151.331Z" transform="translate(-298.419 -101.012)"/><path class="c" d="M605.171,727.263a318.494,318.494,0,1,1,124.364-25.108A317.508,317.508,0,0,1,605.171,727.263Zm0-638.2a317.7,317.7,0,1,0,124.055,25.045A316.714,316.714,0,0,0,605.171,89.06Z" transform="translate(-285.672 -88.265)"/></g><g transform="translate(246.593 36.593)"><g class="e" transform="translate(0 360.233)"><rect class="c" width="92.886" height="0.722"/><rect class="c" width="92.886" height="0.722" transform="translate(628.302)"/></g><g class="e" transform="translate(360.232)"><rect class="c" width="0.722" height="92.886" transform="translate(0 628.302)"/><rect class="c" width="0.722" height="92.886"/></g></g></g></svg>